<svg xmlns="http://www.w3.org/2000/svg" viewBox="0 0 580.25 746.83"><defs><style>.cls-1{fill:#fff;}.cls-2{fill:#ffc22c;}</style></defs><g id="Layer_2" data-name="Layer 2"><g id="Layer_1-2" data-name="Layer 1"><path d="M272.91,485.54c.41-9.71,7.31-3.49,12.33-.37,2.06-4.67,2.92-8.8,5.32-12.71,13.33-10.45,21,6.41,27.71-1.63,4.62-4.38,12.92-4.16,15.24-11.22a5,5,0,0,1,3.17-2.94C349.05,455,356,444,366.06,438.49l-.15-.15c-1,4.6-1.45,9.57-7.75,10.11-5.82,4.8-12.38,8-19.37,10.78-1.89.89-2.63,4.11-4.51,5.16-5.8,3.23-5.32,10.63-10.16,14.37s-9.69,7.27-14.2,11.29c-6.67,5.94-13,12.29-19.55,18.33-5.36,4.76-13.17,5.84-14.38,14-2.19,7.15-6.29,12.87-13.85,15.22-13.15,0-14.94,5.7-25.8,10.59-18.5,11.39-7.55,38.81-11.11,56.72-.26,8.5,4.29,14.84-2.52,22.09-15,17.84-5.21,34.44-13,55.23-.58,2.29-4,4.3-6.53,5.6-12.23,5.61-8.44,15.63-13.91,24.24-11.6,11.13-23.15,22.11-33.11,34.76h-3c-7.59-14.46-24.41-23.33-25.33-41,.24-4.64-2.84-9.53-4.79-14.15-4.08-8.18,5.58-15.91-3.32-23.13C115,662,119,653,110.51,643a27.18,27.18,0,0,1-5.28-17c.48-14.08-3.77-27-8.9-39.81-2.39-6-3.14-12.58-5.26-18.68-4.8-9.69-9.8-19.63-11.68-30.4-.79-4.25.43-8.84.54-13.29-1.86-8.64-3.56-17.51-4.68-26.31-1.79-14.94-1-30.1-4.67-44.92-1.12-4.55.5-9.76.83-14.66.29-4.29,0-8.71,1-12.82.88-5,6.68-10.08,5.72-15.27-4.57-10.24,4.51-10.92-.74-29.68,10.63,15.42-.09,15.87,3.2,26.93,1.67,3.16,2.29,5.88-.19,8.54-4.14,4.87,3.63,6.85,7.05,5.77,1.24-.33,2.69-2.31,2.91-3.72,1.55-10.11,9.24-15,17-20.33-18.3-11,9.51-13.51-.23-29.14-3.19-6.66,5.21-6.79,9.23-10.72-14.18-6.71-16.52-23.38-25-35.05-3-4.58-10.4-5.63-13.15-10.82C90,316.9,92.13,318,97.5,327A110.72,110.72,0,0,1,106,345.31c2.1,5.65,6.74,7.59,11.71,8.87,6.88-.56,7.44-10.46,10.22-15.45l1.42.26c-.46,4.39-2.32,8.63-4,12.43,0,3.5-2.47,3.89-4.76,5.3a52.42,52.42,0,0,0-10.37,8.47c-2.3,2.41,2.12,13.53,5.7,14.25,6,1.2,8.93,4.17,8.36,10.47,1.27,4.87,6.39,6.36,10.53,10.13,4-1.68,10.84-3.52,13.06,2.59,2.09,4.72,6.26,4.17,7.75-.37,1.67-7.45,8.5-9.17,13.65-12.55,3.26-2.14,7.54,1.15,7.84,5.36.3,10.33,4.22,9.94,12.67,6.11,9-4.35,9-4.35,15.33,3.72,12.37-18.37,11.87-4.31,36.28-2l4.61-6.59,1.71,1.52c.6,2.2,0,3.12-2.35,4.94-5.91,4.59-11.35.23-16.92.28-3.61,0-7.36-.82-10-4.31-.59-.79-3.68,0-5.45.54-5.35,6.2-6,12.7-13,3.56-9-5.77-26.58,15.89-25.93-7.17-.74-9.58-16.73,3.81-16.82,9.18-1.2,5.07-8.91,3.5-10.77,1-4.45-9.23-7-3.39-13.3-2.5-2.22-1.93-3.85-4.61-6.22-6.26s-5.23-2.24-5-6.29c.25-3.84-1.77-6.78-5.72-8.22-6.28-2.11-9.64,3.11-13.64,7.15,19.19,11.45-7.57,12.82-9.41,28.77-2.25,11-10.76,6.75-17.61,4.3a172.67,172.67,0,0,0,.5,55.43c1.77,18.6,3.23,37.23,5.1,55.82.67,6.62,6.58,8.31,10.42,10.33,11-16.46,2.25-24.7,12.32-27.56,6.53-3.13-.33-8.47,11.58-7.49,16.36,2.49,4.38-17.82,21.26-9.52l-.18,1.58c7.15-5.54,15.95-8.29,21.09-16,2.87-3.6,7.12-9.41,14.14-7.11.73.24,2.38-.28,2.58-.82,1.83-5,4.12-9.95,4.86-15.11.56-4-1.64-8.46,5-9.11,3.28-1.92,5.16-7.42,7.27-10.72,3.71-6.51,9.62,4.69,13,6.94,4.29,5.1,9.29.64,14.09-.95,8.68-2.91,8,7.38,5.79,12.43,2.59,4.59,3.33,9.17,7.48,12.08,2.42-1.94,2.76-4.61,3.21-7.47.86-10.71,13.46-6.05,7.85-13.82-2.78-3.92-7-7.5-5.81-13,1.8-8.33,3.82-16.59,3.13-25.23-.05-.61,1.1-1.33,2.13-1.84-1.23,7.74,2.33,15.73-2,23.14-4,6.71,2.72,11.47,5.64,16.85,4.83,7.21-6.61,7.66-8.26,13.8-1,7-.4,8.69-7.14,12.92.74.8,1.19,1.68,1.59,1.65,9.87-.29,10.2,10.88,15.08,16.83,4.48,4.53,6.61-4.08,7-7.43l1.22.13c.7,2.56-1,7.33,3.63,5.34,5.71-1.75,12.08-2.77,13.89-9.4,1.34,5.29-.22,7.72-6.07,9.91-6.44,1.69-14.21,8.56-20.68,4.39-6.67-4.9-4.8-15.39-13.4-17.54a9.43,9.43,0,0,1-4.66-4.46c-1-2.08-1.1-4.68-1.47-7.07-.65-4.22-7-6.55-3.77-12.14,3.46-6.49-1.91-9.66-7.67-5.63C207,458.55,200,448.64,195.19,444c-4.86,5.85-11.64,8.82-13.15,15.85-.79,11.46-5.25,22.42-10.37,32.61,8.12,4.06,6.19,7.83-.15,12.19-5.42,10.32,11.55,7.62-5.5,23.57,13.56,12-12.32,10.73-7,23.37.43,3.53,1.16,8.58-3.84,8.72-5,1-5.1-4-8.18-6.35-1.5,4.18-2.83,7.87-4.15,11.56l-1.31-.37c1.45-5.33.79-11.64,6.08-14.9,2.09,3.19,5.17,5.37,8.08,7.76.31-3.27,1.77-6.58.47-9.75-2.59-10.9,13-7.17,9.47-16.63-7.81-6.31,6-9.83,5-16.5-5.51-7-3.57-11.85,3.13-16.14.19-.12.17-.59.37-1.39-9.65-3.21-3.23-10.49-.29-16.6-5.11-.83-15,3.67-15.47,7.21-.49,3.75-2.89,4.64-5.43,6.21A133.62,133.62,0,0,0,139.11,504c-4.45,3.69-4.39-2.85-8-4.09-3.74,6.88-4.63,15.1-14.31,12-7.94-2.51-8.68,6.46-15.58,10.13-.23,7.17-.43,7.07-4.65,15.63-2,8.82,1.35,19-2.25,27.6,2.21,16.71,10,32.15,13.19,48.56,7,7.79,12.55,17.6,20.55,24.19,5.61,2.52,11.68,4.6,11.72,13.07,2.25-7.73,7.67-8.49,14.2-8.38,10.85-2.26,4-17.74,9.24-24,5.83-2.54,11.95-4.44,18-6.57L181,612l-2.23,7.45c10.26-1.1,19-2.61,25.81-10.1,14.49-1.87-1.21-20.7,19.73-8.94-1.06-14.4-7-49.82,10.59-54.81,6.91-2.8,13.52-9.39,21.12-10.18,10.67-.5,12.93-3.33,15.95-12,4.37-14.47,6.92-10.59,16.71-18.37,12.79-11.36,27.56-20.76,38.1-34.39l-1.31-1.19c-5.3,3.62-12.23,9.43-18.14,3.64a11.53,11.53,0,0,0-17.51,6.59C286.39,496.08,278,477.27,272.91,485.54Zm-97.78,132c-4.53,1.64-9.92,1.48-10.87,6.74.24,10.06-.25,21.79-13.33,20.7-7.16-.62-11.82,9-8.49,15.09a10.58,10.58,0,0,1,.34,8.15c-5.8,12.68,19.87,7.53,10.53,25-4.86,7,2.94,15.89.45,22.54-4.83,8,.14,16.48-2.44,24.49-1.07,3.3,2,4.25,4.75,3,9.44-7.8,14.07-20.2,25-27.05,4.1-2.84,9.3-6.39,8.93-12.32-1.46-18.55,21.58-15.88,20.15-34.74,1.22-12.5-1.6-26.42,6.36-37.2,3-3.77,6.19-8.63,7.33-13.42-1-7.88,1.38-17.51-9.35-19.27-1.24,5.32-.16,12.54-9,12.18-4.09,6.27-9.2,8-15.89,9.18C184.67,621.81,178.39,624.67,175.13,617.57Zm-68,1.5-2.09.75c2,6.57,3.53,13.38,6.23,19.66,3.15,7.29,7.89,13.87,8,22.33,0,2,1.66,4.23,3.13,5.83,7.19,6.84,1.42,12.69,2.35,20.41,10.21,30.84,2.49,23,24.59,49.82.59-10.37,1.88-20,1-30.08-1.62-5.42-1.77-10.49.67-15.71,2.89-6.18,1.11-10-5.42-12.29-4.89-1.74-6.46-5.44-5.64-10.54,1-5.58-1.67-11.42-2.73-16.71.12-5.47-2.77-8.22-7.19-10.66C121,636.07,114.62,626.74,107.17,619.07Zm-15.51-59.7c4.87-7.92,2.65-12-8.57-15.24Z"/><path d="M169.13.22c9.6,25.92,12.29,10.6,18.19,21,.42,1.55,2.57,2.58,3.81,3.95,5.31,3.82,2.94,8.57,5.48,12.5a9.8,9.8,0,0,0,3.4,3c7,4.42,18.14,2.15,20.14,1.72-17.11,3.27-23.52.36-26.11-3.16-1.94-2.64-1.2-5.09-3.09-9.08-1.76-3.69-5.69-8.1-16-13.26-4.55-1.54-3-18.5-10.87-12.64-.24.2-.66.5-.84.42-6.46-2.79-12.38,3.87-18.52,1.19C152,.47,160.21-.54,169.13.22Z"/><path d="M.23,321.63l13-10.51L43,322.42c-.87-1-9.85-11.31-22.82-9.79C18.05,312.89,5,314.75,2.46,325c-1.72,7.09,2.34,15.32,10.21,19.46,11.45,15.74,20.48-4,25.36,2.61-11.71,7.92-23.62,7.68-30.49-5.66C4.44,334.83-1.21,329.4.23,321.63Z"/><path d="M257.09,190.86c-1.8,5.77-3.26,11-5.08,16.06-1.06,4.31-9,7.81-3.43,11.82,14.3,13.55,32,21.84,46.82,34.53,1.3,1.35,4.33.95,6.49,1.6,26.32,15.51,12.36-26.19,42.75,17.48,3-1.83,7.8-5.1,10.21-.33,6.85,12.78,20.85,2.23,30.44,9.06,1.5,1.41,5.07.63,7.9.87-4.14,2.69-8,4.22-12.33.35-5-1.23-11.56-.6-16.83-.44-9.91,1.94-9.25-11.87-16-8.21-5,2.23-5.13.92-8.32-3.62-3.82-5.44-9.48-9.63-14.63-14-.58-.5-3.8.74-4.4,1.9-2.31,4.27-.12,8.44,4,10.63,11.65,8.54-12.67,13.84.79,25.08,2.42,3.32,6.86,7.15,2.93,11.38-3.42,4.21-6.49,1.9-10.55.56-1,1.63-1.57,3.66-2.91,4.55-10.32,7.76-4.58,21.77-5.71,32.69a5.15,5.15,0,0,0,3.25,3.62c10.2,1.41,7.82,12.16,10.22,19.66-3.85.72-5.32-.78-4.24-5.31,3.83-14.47-14.07-8.67-12.73-21.62l-1.24-.41c-2.63,4.85-9.28,8.85-11.3,1.3,0-7.75-.45-15.2-10.24-14.35-6.79.85-2.9-7.75-9.55-7.21-1.52,0-3.29-1.35-4.42-2.57-4.14-5.55-7.16,2.64-12.63,1.3,3.72-2.65,7.06-9.63,12.16-5.49,5.83,6.65,8,1.48,11.46,7.63,1.39,2.27,1.49,5.21,5.91,3.63,8.36-.69,10,11.89,10.95,18.88,6.07-5.56,12.53-10.12,10.18-19-2.4-9.09,5.1-13.35,9-19.27,2-.89,7.75.54,10.66-.3-.32-1.48-.14-3.47-1.05-4.38-8.87-9-8.07-17.75.16-25.41-10.2-13.43-12.19-11.91-27.75-15.67-8.29-1.27-11.41-12.11-20.6-13.14-9-4.49-16.37-12.16-24.59-17.94-4.78-2.84-11.62-9.29-8.52-14.72C252,206.49,247.58,194.55,257.09,190.86Z"/><path d="M477.86,316.73c-5.51,2.5-9.12,8.4-15.61,5.07a39.71,39.71,0,0,1-10.63,1c-6.29-3-9.34,5.37-11.64-8.53-1.81-13.55-11.71-34.33,3-43.25l-.55-1.38c-4.74.7-8.18,6.93-12.6,2.93-5.09-4.55-9.72-8.16-12.68-14.77-4.71,10.87-6.86,7.52-16.79,10.69-.14-4.23-.34-8.58-.4-12.93,0-4.12-4.19-3.75-6.25-5.65-5.45-4.88-14.92-5.93-20.82-9.08-2.56-6.58-9.35-1.85-12.84-7.63-10.92-13.92-25.31-5.71-27.72-27.59l-2.28.15c-.52,2.69-1.35,8.4-3.2,9.77-3.25.24-8.17,2-9.28-2.14-1.84-6.84-7-8.19-12.34-9.36-13.11-4-14.55-17.7-33.63-18.18-4.93-1.11-10.63-2.78-13.16,3.36-.36-3.92-.72-7.84-1-11.07,10.65,3.21,21.57,6.46,32.45,9.85a5.74,5.74,0,0,1,3.05,2.35c4.08,7,10.61,10.51,18.11,12.41,4.68,1.18,8.56,2.73,9.76,8.14,7.07,6.1,5.49-5,7.48-7.72,10.91-3.72,7.66,11,13.28,15.24C348.25,223.59,361.2,222,363,232c.34,2.61,1.56,3.22,4.11,2.32,3.49-1.22,6.27-.26,8.31,3.16a5.27,5.27,0,0,0,4,2.22c8.15.07,13.89,7.43,21.56,9.54,2.12-2.62-1-7.56,3.36-7.34a24,24,0,0,1-.79,17.6l-2.05.5c4.07,5,6.93,6,10.65.08,5.17-8.69,4.54-12.55-2.43-19,10.56-3,3.2,13.46,13.8,10.76-8.5,8.52,3.17,14.84,9.38,19.11,5.9-1.05,5.69-5.24,13-1.23-1,1.67-1.66,3.8-3.1,4.94-4.08,3.24-7.08,14.87-4.19,18.91,9.92,5.07,23.2,5.28,33.66,1.16-8.65,10.9-21.29,2.83-33,2.11-.31,5.16-1.42,9.08,2.5,12.44,1.58,1.55.74,8,2.11,9.53,10.7,1.77,22.35,3.46,31.9-3.05C476,315.57,476.88,316.25,477.86,316.73Z"/><path d="M546.26,278.13c-.45,1.38-1.55,2.92-1.25,4.1,4.19,12.4-14.64,19.63-8.45,31,4,8.87-2.27,15.88-6,23.25-4.88,11.76-21.57,5.21-19.86,14.34,1.81,16.14-3.71,32.1-1.76,48.7-.28,8-3.07,11.83-14,9,1.64-1,2.55-2.08,3.33-2,11.17,1.76,7.08-10.15,8.51-17.54-6.06,2.76-8.37-.38-10.34-4.24,2.39,1,9.58,6.63,9.35,1.34-2.46-8.54,3.65-15.68,3.22-23.75-.3-5.61-.53-11.22-1-16.8-.45-4.84-12.78-12.45-17.29-10.79q-8.4,3.1-16.74,6.38c-7.81,3.08-10.52,8.68-8.43,16.45.45,4.57.33,9,3.28,13l-2,1c-12-24.72-2-30.92,20.88-38.15-6.76-7,1.5-11.12,2.57-16.75,3.87-13.88-5.38-17.22-16.26-22.15.8-.53,1.05-.83,1.24-.8,13.06,1.72,25.59,14.68,15.9,27.28-1.64,2.43-3,7.51-2,9.66,3.94,5,11.24-.76,14.89-3.73,3.05-4.72-1.5-11.2,4.33-15.22,8-5.41-3.92-14.63,3.75-16.27,2.32-.76,3.26-5.56,4.86-7,8.72-3.68,2.66-12.36,7.38-18.43a39.86,39.86,0,0,1,9.52,5.57c-2.55,2.66-2.57,2.65-8.67-3.95-.34,2.58-1,4.3-.69,5.8,1,4.68,1.71,9-3.5,11.88-2.53,2.85-4.77,6.68-7.47,9.58L512,298.2c.5,2.62,1,5.23,1.8,9.37,6.12-8.5,13.52-4.56,19.25-3.75,2.71-4.15,4.56-7.68,7.06-10.67,6.79-5.2-3.38-17.2,6.26-14.95ZM537,317.44c-2.62-7.81-8-14.11-15.52-12.16-5.44,3.25-9.76,8.37-14.51,12.77,2.09,6.85,1.49,11.52-7.15,13.9,7.49,6.17,9.38,15.21,19.63,9.4C530.83,338.48,529.86,324.5,537,317.44Z"/><path d="M546.33,278.2a87.57,87.57,0,0,0-1-12.09L538.62,270l-1.21-1.57c5-4.51,9.66-9.54,15.17-13.34,3.86-2.66,5.91-5.26,5.35-9.87.93-12.33-1.61-12.26-12.5-8.27-11.84,2.89-23.85,8.54-31.32,18.49-2.63,5.2-7.57,4.7-12.22,6.76-2.19.61-4.59,1.82-6.6,1.39-12.41-3.38-15.47,15.11-27.55,6.75-5-2.51-11.76-1.36-17-3.74-5.56-5-7.74-5.68-14.6-1.81,7.3-14.65,19.86,8.4,32,0,1.61,5.28,5.87,7,9.73,3.33,8.33-9.53,20.42-5.8,31.11-10.42.7-.21,1.67-1,1.76-1.57,2.18-8.65,12.77-10.89,18.54-16.9,6.61-4.06,14.85-4.31,22.16-6.63,6.36-1.61,9.41.64,9.43,7.05.05,7.23,1.69,15.09-7.45,17.43-4.61,2.06-11,8.36-4.27,12.11,6,1.49,12.49-17.16,31.08-11.54-9.09,3.09-18.49,2.82-24.21,11.28-3.29,2.89-7.68,4.93-9.79,9.24Z"/><path d="M147.1,116.08c6.07.47,10,5.66,14.78,8.87,4.93-5.48,5.63-12.84,8.5-19.26,2.32-4.55,7.22-5.6,11.87-5.46,5.25.79,8.12,7.17,12,10.21a10.13,10.13,0,0,0,6.44,1.64c8.14-1.69,9.29,6.47,15.77,9.84,5.61-4.91,6.19-4.6,13.71,7.27l7-3.08.8,1.1c-9.83,7.06-9.26,3.7-15.2-4.27a8,8,0,0,0-3,2c-6.15,6.52.44,24.22,9.15,34.48,8.36,9.85,19.25,13.55,25.4,15-21.65-1.33-29.59-7.94-32.86-13.66-6.23-10.88,1-24.49-8.6-38.12a32.72,32.72,0,0,0-8.8-8.43c-8,2.13-13.24-2.15-17.66-7.69-12.29-14-17,10.77-19.6,19.36-.16,7,3.37,13.18,5.73,19.55l-1.7.71c-3.39-4.47-5.22-23.13-13-18.05-6.1,5.14-19.71,8.55-15.23,18.89,3.77,9.25,1.6,12-5.78,13.52-7.69,1.58-7.38,9.28-11.51,13.51.7,2.21,2.35,4.78,3.56,7.83-6.22-3.42-7.21-6.24-4.46-11.44,3.21-6.1,6.49-12.36,14.42-13.28,5.86-.81,2.82-6.67,1.37-9.91-2.6-6.16-1-10,5-13.29,4.11-1.83,11.2-7,10.12-11-.23-.85-.85-.84-4.24-3.48C149.36,118.08,148,116.9,147.1,116.08Z"/><path d="M67,304.66,55.31,310c-2.57-8.4-1-24.62-10.64-28.73-4.91-.16-3.35-3-3.53-5.24-1.09-7,1.19-15.74-4.53-21-12.88-9.25,1.69-20.29,7.29-29.4,7.45-11.94,19-5.87,25.46,3.43,11.26-3.31,13.81-14.31,22.73-20,6.56-3.79,12.47-7.93,14.35-15.84,1.48-10.43.2-13,12.47-12.24-1,.81-1.28,1.3-1.67,1.36-6,1-8.71,5.44-8.87,10.72.35,15.87-17.8,14.9-23.1,27.12-3.11,5.82-7.87,10.47-15.27,9.55-8.24-1.63-12.87-13.75-21.55-4.53-4.4,5.08-7.83,11-12.28,16.1-2.47,2.8-3.33,6-.59,8.21C47.3,257.54,37.64,275,49.69,280.5c4.25,3.28,4.85,14.46,5.52,20.36C55.93,307,61.79,303.91,67,304.66Z"/><path d="M256,486.75c1.28-16.05,19.87-11.68,12.56-26.53,0-8.54-6.16-16.62-4.4-25.23.27-1,4.43-2.24,4.74-1.82,3.38,4.55,5.55,9.94,9.3,14.25l1.73-.56c-1.06-29-9.49-19.36,14.14-40.24,14.89-4.37,5.59-20.87,18.32-24.32,3.78-1.23,7-4.26,10.24-6.38,5.29,2.23,12.8,3.16,16.94,8.2l-1,1.23c-10.05-6.65-18.7-4.39-27.77,1.4a8.46,8.46,0,0,0-3.45,6.48c.28,8.5-5.35,11.89-11.54,15.41-3.93,2.88-6.63,9-11.38,10.83-11.51,4.65,3.67,23.32-5.87,30.75-6.32-3-5.54-11.74-12.09-13.54-.14,1.23-.86,2.86-.33,3.63,4.91,7.17,3.37,16.11,6.72,23.76,1.52,3.46-.19,7.48-3.65,9.45-5.06,2.89-9,6.44-10.39,12.27-.16.64-1.08,1.08-1.64,1.61Z"/><path d="M195,266.2c-4.73-7.86-10.39-14.28-13.79-22.39-.9-3-.93-6.26-5.9-5.34-1.44.26-3.48-2.66-5.29-4.16l-7.54,4.26-.78-1.24c2.75-2.21,5.49-4.43,8.8-7.11,5.07,11.4,11.75,4.64,19.38,1.36-3.92,6.75-11.41,10-3.48,16.67,5,4.62,8.46,10.37,13.72,15,6,7.07,25.16,8.24,22.47,19.33C219.1,289.77,212,295,207.77,301.74c-1.49,6.45-3.86,14.11-7.42,19.64l10.33,10.11c5.77-5.2-7.81-5.09-1-17.9.33,4.58-.08,9,4.27,12.58,4.88,4.31-5.18,13.45-7.07,4.36-4.12-4.65-10.94-6.49-6.78-14.25,3.21-13.31,10.37-24.16,19.9-33.77,1.72-2.6,2.21-5.24-2.38-5.94-6.66-3.36-13.19-8-20.23-11l.32-1.73Z"/><path d="M220,155.41c.65-.82,1.31-1.65,1.89-2.4,2.35,4.05,6.95,6.89,6.55,11.71-7.21-2.57-16.16-13.85-22.13-3.71-2.18,4.36-.2,10.11-4.53,14.14-.76.71.42,3.51.73,5.46-.42.07-1.12.37-1.31.18-7.26-9-9.43,9.89-9.26,14.75.26,4.12,5.41,8.67,1.4,12.25-5.45,4.74-1.32,8.77-.09,14-15.19,8.26-19.24-12.34-7.74-13,6,0,7.59-3.21,5.3-8.78-4-28.32,8.34-21.23,12.63-35C203.67,154.51,210.39,150.48,220,155.41Zm-31.23,66.23a22,22,0,0,1-1.67-10.77C178.75,210.76,181.46,223.23,188.81,221.64Z"/><path d="M411.27,400.82c-1.57,3.92-3.61,3.1-5.82.58-4.47-5.08-4.76-4.9-9.46-.57-6.65,5.86-15,9.57-22.76,13.69.35-6.64,8-7.86,12.72-11.28-13.67-21.84-18.52-8.88-23.95-21.86l.87-1.09a21.65,21.65,0,0,0,7.58,5.26,15.17,15.17,0,0,0-1.37-8.5c-.27-4,1.47-8.58-5.47-10.27,14.46-2.91,4.22,8.88,9.78,13.78a4.44,4.44,0,0,1,1.17,3.11c.83,10.22,12.85,10.52,16,20.28,3.36-6.59,9.14-12.46,15.64-5.36,1.15,1.29,3.43,1.59,5.19,2.34Z"/><path d="M198.32,271.33c-2.88,6-10,8.48-15,12.55-6.53.84-24.35,8.26-10.68,13.65,12.63,6.74.59,20.85-.51,31.06-1.43,10.78-10.82,3.22-16.41,0,5.08-2.94,7.62,2.73,12.12,4.14,3.11-8.53,8.11-17.88,8.93-26.74-2.72-5.29-15.44-8.53-10.61-14.83,3.89-6,8.85-10,16.68-9.79,4.73-3.58,9.4-7.23,14.1-10.86Z"/><path d="M429.46,291.18l5-2c-7.17,11.4-13.75-2.72-21.34-5.24-7.8-.33-7.77,11.55-1.74,14.74,4.29,3.05,14.61,12,6.26,15.84-9.43.35-8.7,7.43-11.24,14.38-1.87-10.12,1.28-16.6,12-17.54-1.44-5.75-7.22-10.91-13.41-12.19C402.78,274.37,414.56,280.62,429.46,291.18Z"/><path d="M411.37,400.93c-.87-3.24-.62-5.35,3.69-5.56,12.37-2.09,6.2-26.53,1.51-34.24-4.78-6.95,3.38-19.39-6.65-23-2.67-1.43-4.16-3.19-3.52-6.42,21.48,15.06,4.29,15.45,14.09,32.65,7.86,10.73-2.52,22.81,7.33,28.75-5.08,2.36-10.83,5-16.56,7.71Z"/><path d="M394.37,334c-4.73,4.31-10.75,6.62-12.46,13.39-.61,1.71-2.69,3.18-4.44,4.13-14.59,6.13-9.28,6.83-22.91.53-.5,4.3,5.72,14.66,9.15,16.2-4.76,4.7-7-4.76-9.59-7.59-3.49-4.45-2.33-14.73,4.9-9.95,4,2.7,7.39,4.51,10.84-.42,11.48.61,9.56-13,23.32-17.86Z"/><path d="M10.51,369.26a186.39,186.39,0,0,1,13.38,18.79c-.7,11.13,11.43,13.08,15.1,21.25,1.56,3.46,3.42-.17,4.2-2.24,2.07-5.53,2.53-5.69,8.15-1.87-4.17-.1-6.52.82-6.39,5.26.07,2.71-5.36,3.79-7.58,1.64-4.86-5.22-11-9.93-15-15.65,0-10.68-9.21-17.17-12.89-26.45Z"/><path d="M147.25,115.93c-.83,0-1.93.28-2.43-.13-5.49-5.56-13.95-9.64-17.47-16.55a156.65,156.65,0,0,0,4.67-39A155.76,155.76,0,0,0,130.25,38c0,15-.67,27.08-1.25,35.36-.61,8.56.78,12.28.08,17.65-1.59,12.16,12.94,15,18,25.08Z"/><path d="M212.61,302.34c-1.54,2.62-3.08,5.25-4.48,7.62-2-3,1.18-10.29,5.21-10,4.38.52,4.68,10,10.26,6.07,2.81-1.42,7.09.55,10.07.87,6.45-.68,12.66-1,18.14,3.62.66.56,3.11-1,5-1.69v6.44a48.45,48.45,0,0,0-29-6.68c-6.7.42-11.92,4.13-13.41-6.3Z"/><path d="M132.88,311.53c-5.69,3.92-7.54,9.51-1.06,16.57-9.49-4.73-7.44-19.58,2.73-19.22,12.83,4.74,21.64,3.05,11.69,18.64l-1.54-.6,3.89-10Z"/><path d="M141.41,197.35c5.15,3.87,14.5,3,13,10.87.08,4.92.11,9.89.68,14.75-.1,8.8-.11,8.8,4.85,14.25-4.89-.51-7.77-4-7.87-8.75.14-6.38-1.86-13-1-19.28,1.25-3.66.67-5.72-3.67-6.48C142.31,201.82,141.71,200.87,141.41,197.35Z"/><path d="M243,119.75c-3.16-5-5.77-9.9-9.1-14.22-2-2.6-5.69-4.2-5.48-8,1-6.65.19-20.89,11-10.75-11-1.55-10.94,13.52-2.81,17.88C241.36,107.71,243.16,113.72,243,119.75Z"/><path d="M126.56,14.65c-.41,1.88-.83,3.76-1.42,6.39l-2.79-2.18c-1.63-1.27-2.42-6-5.12-2.72-1.7,2.06-1.25,6.24-.94,9.38,4.11,4.13,13.1,4.63,14.71,12-.25.17-.67.54-.75.48-4.32-3.35-8.2-7.18-14-8.46C109.52,24.88,112,6.84,124.14,16l1.39-1.69Z"/><path d="M488.62,367.47a74.33,74.33,0,0,1-3.71-6.86c-7.6,3-8.81,13.37-16.43,15.64,1.56-5.95,2.12-8.82,8.12-11.55,2.53-1.48,3.63-5.26,5.71-7.72a3.77,3.77,0,0,1,2.63-.7c5.75,1,7.37,20.11,7.79,35.54Z"/><path d="M195,170.85c-2.85-1-6-.49-6.1-4.94-3.37-4.78-10.2-8.93-14.53-13.35l1.94-2.08C182,157.52,191.17,161,195,170.85Z"/><path d="M397.14,305.62c-11,4.66,3.15,18.9-1.07,26.9-1.19-4.43-6.17-7.68-3.3-13.26.58-1.13-1.28-3.51-2-5.31C388.41,308.25,391,304.46,397.14,305.62Z"/><path d="M340.15,392.91c13.13-19.94,10.63,4.76,17.14-5.67.28-.51,1.62-.43,2.67-.67-2.74,7.62-4.79,7.76-12.64,1.13C345.38,390.23,345,395.51,340.15,392.91Z"/><path d="M220.15,42.35c.13-4.35,3.77-3.8,5.7-3,8,4,4.2-9.83,11.37-7C234.51,40.62,229.39,45,220.15,42.35Z"/><path d="M78.65,371.1c-4.76.61-5.34,3.2-5.59,6.77-.42,5.85-1.64,11.64-2.52,17.45H69.29c-.53-7.27.77-14.34,1.89-21.49C71.67,370,73.59,369,78.65,371.1Z"/><path d="M149.48,183.48c-10.32-3.52-9.81-4.43-15.46,6-3.51-11.44,12.38-16.56,15.33-5.87Z"/><path d="M366.06,438.49c0-.33-.14-.85,0-1,8-5.3,4.93-13.81,6.65-20.8C375.05,425.45,377.62,436.68,366.06,438.49Z"/><path d="M125.05,12.64c-3.28-10.63,12.16-5.17,19-6.42C137.47,12.71,130.24,4.05,125.05,12.64Z"/><path d="M68.49,398.7c-5.27,2.62-12,14.71-17.47,7.75C59.72,408.31,59.06,395.5,68.49,398.7Z"/><path d="M149.35,183.62l5.78,4.44c2.47-5.33,5.18-5.91,11-3.45-5.08,2.34-16.79,10.11-16.65-1.11A1.35,1.35,0,0,0,149.35,183.62Z"/><path d="M49.09,315.13,33,318.59C35,313,44.89,311.07,49.09,315.13Z"/><path d="M257.84,47.93a64,64,0,0,1-18.38,38.86Q248.66,67.37,257.84,47.93Z"/><path d="M395.19,290.44c2,4,8.82,10,4,13.56C397.74,299.28,391.24,294.91,395.19,290.44Z"/><path d="M257.88,46.52c-1.48-6.21-6.14-6.63-11.1-6.51l-9.56-7.62c8.61-1.23,16.29,1.74,19.29,7.38A12.75,12.75,0,0,1,257.88,46.52Z"/><path d="M403.11,274c1.58,3.27-4.06,11.46-8,7C396.61,277.49,400.37,276.11,403.11,274Z"/><path d="M492.73,391.82l2.37,16-2,.33q-1.08-8-2.15-16Z"/><path d="M266.11,365q-1.16,6.18-2.32,12.36l-1.6-.37q.9-6.24,1.78-12.48Z"/><path d="M249.4,166.5l4.91,7.9c-3.84.43-6.4-1.75-6.84-6.09Z"/><path class="cls-1" d="M91.66,559.37l-8.57-15.24C94.31,547.32,96.53,551.45,91.66,559.37Z"/><path class="cls-1" d="M537,317.44c-7.14,7.05-6.17,21.05-17.55,23.91-10.24,5.81-12.15-3.23-19.63-9.4,8.65-2.38,9.23-7.05,7.15-13.9,4.75-4.4,9.07-9.52,14.51-12.77C529,303.34,534.37,309.62,537,317.44Z"/><path class="cls-1" d="M188.81,221.64c-7.35,1.59-10.06-10.88-1.67-10.77A22,22,0,0,0,188.81,221.64Z"/><path d="M169.49,595.62c-3.53,3.57-6.17,4.43-8.89,1.07-1.42-4.15-6-7-4-12.87.87-2.5-3-6-7.57-5.77-5.89.31-6.25-.41-5.32-7.71l3.6,5.51C165.94,572.37,152.21,595.1,169.49,595.62Z"/><path d="M181.18,612.18c6-7.91-1.39-13.49-3.64-19.91-2.69-2.28-5.41,1.21-8.74,1.65,2.83-7.44,13.14-5.65,14.36,1.87.75,5.8,7,14.48-2.12,16.24Z"/><path class="cls-2" d="M76.13,446.8s-3,5.65,4.8,24h0c-2.49-13.75-4.23,38.8,9.6,40.8,8.56,1.24,32.83-52.23,16.8-67.21C99.08,436.69,80.19,439.26,76.13,446.8Z"/></g></g></svg>