<svg xmlns="http://www.w3.org/2000/svg" viewBox="0 0 566.86 605.11"><defs><style>.cls-1{fill:#ffc22c;}.cls-2{fill:#fff;}</style></defs><g id="Layer_2" data-name="Layer 2"><g id="Layer_1-2" data-name="Layer 1"><path d="M241.48.11c.47.41,1.36.82,1.35,1.21,1,12.26.1,20.42-9.84,28.88,4.55,1.74,9.49,7,15,5,1.4-.22,3.27-1.22,4.1-.66,5.63,3.85,13.5,4,17.45,10.71A7.09,7.09,0,0,0,273.79,48a31.22,31.22,0,0,1,18,11.15c15.52-6.26-2.17-13.81,13.31-20.51,25.47-13.88,10.68,4.55,26.62,4.59,16.59-3.75,26.6,16.48,37.84,5.8,12.38-12.61,21.18,8.08,31.8-1.77,6-5.84,4,9.66,9.91,13.61,2.5,2.74,1.85,6.2.13,9.52-1.71,3-2.08,9-4.24,11.22-3,.43-5.14-2.2-8.24-2.78,10.68,12.53,17.16,28.24,28.14,40.58,4.13,6.55,18.14,9.52,14.08,19.06-4.6,9.65,1.48,18.24,8.93,21.06,9.73,4,9,18.28,12.89,25.36,13.83,3.54,24.33,10.7,32.42,22.14,1.81,2.05-1.15,7.05-.63,8.6,2.8,2.8,2.56,8.39,7.71,8.86,7,2,11.76-6.53,18.37-1.92.54.43,1.91,0,2.85-.26,7.52-1.85,15.05-3.64,22.51-5.68,4.81-2.11,10.52-5.31,15.8-4.5,3.61.76,4.09,4.38,3.69,8.08-.18,3.73,1.59,7.61,1.09,11.48-6.76,4.78-7,14.3-12.33,20.85-7.29,19.2-18.44,38.45-37.1,48.86-12.72,6.18-22.26,16-31.26,26.54-8.86,11.23-24.52,20.07-23.94,36.13,1.53,2.71,5.83,5.55,6.63,9,.25.85-1.71,2.35-2.79,3.72-5.47,17.8,19.25,21.31,5.1,38.7-.61-4.19-1.07-7.31-1.58-10.77-8.56,6.72-56.6-1.35-42.07,18.39,4,3.75,5.5,7.5,3.92,13.16-2,7,1,15.22-4.94,20.92-18.86-10.9,2.85-22.45-7.56-23.9-12.6-3.93-20.21,1.2-32.27,5.18,2.42,3.28,2.06,8.78,8.05,6,2.29.67,5,3.32,7.47,4.3,2.12,1,5.88,1.37,6.26,2.76,3,7.56-3.62,15.21.45,22.44.63.9-.28,3.11-.86,4.57-.4,1-2,1.7-2.12,2.66-1,7.9-6.82,13.49-9.53,20.5-1,8,.18,19.36-.24,26.51,17.11-8.7,30.26-14.44,22.94-37.45-1.65-5.73-10.38-8.14-2.13-13.41,14.89-6,19.46-23.4,27.5-23,14.26.42,23.73-11.42,28-23l1.81-.14c4.91,9.91-11.11,24.4-19.9,25.89-8.5,1.91-14.29,5.05-19.1,12.2-3.83,5-11.24,8.49-16.68,11.74,13,16.72,7.57,43.19-13.64,47.21-1.94,13.11-4.67,25-16.81,31.95-3,1.74-4.79,6.07-6.65,9.48-4.61,9.64-15.66,13.21-22.15,21.91-14,13.62-23.86,9.11-40.86,9.51-5.88.4-11.33,3.24-17.06,4-3.38-1.34-6.86-2.45-10.1-4.07-6.05-3.21-7.37-15.77-2.08-20.34a221.87,221.87,0,0,0-23.47-39.5c-9.28-23.1-6.16-49.88-22.14-70.46-10.31-10.16-9.45-17.14-9.83-30-.25-2.46,2.47-5.12,3.47-7.83,3-6.38,1.08-14.09,7.46-18.68,4.72-3.84,6.93-10.62,2.27-16.91-3.25-4.39-5.66-8.74-3.29-14.89,1-8.18-5.35-17.45-9.16-24.64-7.8-13.73-19.89-25-26.93-39-.87-11.08,5.95-21.74,7.32-32.76,1-2.91.21-4-2-6-10.4-10.17-29.15,3-35.43-11.92-5.32-14.95-26.85-7.52-38.21-4.53-8.65,1.25-17,11.92-25.49,7.91C88.56,255.51,77,288,55.73,266.42c-6.14-6.19-11-14.2-20.45-16.77-14.07-5-2.3-19.88-16.09-27.2-6.27-12-21.2-9-16.89-23.39.83-3.48.16-5.37-2.3-7.26v-5c11.38-5.11,6.36-16,14.38-23,3.41-3.25,4.89-7.05,2.34-11.9-.9-1.7.21-4.35,0-6.53.37-6.35-8.61-9.43-3.28-15.34C32.16,109.1,45.57,80.85,73,70c7.72-3.93,13.19-9.2,11.92-18.85a3.73,3.73,0,0,1,.85-2.7C90.09,43.71,94,38.25,99.12,34.61c8.18-5.77,18-9.12,22.43-19.54,1.73-4.09,6.44-3.79,10-.75,5.25,5.46,12.86,3.58,19.62,3.69.91,0,2.43-.46,2.62-1.05,1.77-5.54,7-4.9,11-6.46C183.33,1.71,203.6,5.34,223.25,3,228.64-.67,235.05,0,241.48.11ZM427,218.92c-3.63,9.67-3.47,21.15-14.54,25.34.39.66.89,2.16,1.3,2.14,8-.76,7.41,7.29,12.73,10.42,7.59,5.93,9.15,17.47,20,19.15,1.91.21,3.68,2,5.44,3.15,12.77,8.8,18.51-5.93,29.74-1.46,10.45,5.72,17.83-8,28.72-6.08a4.85,4.85,0,0,0,3.45-1.36c6.86-7.05,13.58-14.21,20.93-22-11.25-1.28-29.46-5.09-37-13.19-4.26-4.2-5.82-10.71-12.55-13-7.6-3.33-4.78-11.67,2.29-13.91-1.25-11.14-12-11.94-18.63-17.29-.66-.53-2.35-.23-3.36.18-4,1.63-5.49.05-6.55-3.83-1.89-6.91-4.4-13.65-6.49-20-11.16.6-12,9.32-13.67,18.41.42.67,2.28,2.27,2.12,3.63.13,12.33-5,21.71-14.06,29.77-2.75-9.16,14.57-14.64,9.55-30.53-3.34-7.81,4.38-13.22,4.25-20.36.89-1.48,5.78-2.79,7.87-3.58-7.58-1.31-9.29-7.67-12-12.95C433.58,146,432,140.3,438.41,135c-5.44-3.26-9.94-6-14.11-10.45-3-3.33-4.57-3-7.51.66-7.43,11.45-9.36,5.37-21.27,3.76-18.29.42-35.89.72-54.29,1.89v17.7l-6,.72c.44,8.25-1.34,16,1.47,23.59.48,1.79,1.78,4.16,1.1,5.3-1.58,2.81-6.82,3.66-9.14,5.09-3,6.19-4.64,13.12-7.71,19.26-1.71,2.77-1.49,4.61,1.36,6.36,1.49.92,3.76,2.57,3.66,3.7-.49,8.55,11.37,11.73,8.23,20.46-.33,1-.25,3,.24,3.24,15.62,6.94,23.08,22.68,33.74,34.93,2.51,5.84,7.9,3.85,12.48,2.23,6.39-2.85,7.31-1.7,11.17,3.46,9.57,7.59,27.43-4.42,38.88-4.17.88-.1,1.66-1.26,2.73-2.12-4.74-5.93-9.5-11-14.12-16.51-1.08-2.36-2.19-3.68-5-3.44-4,.32-4.58-2.86-5.17-5.77-1.17-4.8,4.69-4.41,7.53-5.58C418.72,231.85,417,219.84,427,218.92Zm-102.27,237L321,462l.41,1.21,16.86-5.44c-.13-.75-.26-1.5-.38-2.24a62.58,62.58,0,0,1-13.26.48c-2.31-3.86-8.15-2.9-7.37-10.3.32-5.93.23-12.11.17-18-3.73-20.08,22.3,1.08,13.93-25.1-10,3.18-10,3.18-12.83-5.69-5.14-5.41-2.35-12.36-3.71-18.88l2.38-.12C315.81,401.07,324.5,389,321,402c10-5.61,16.61,1.74,26.3,3.12,2.42.26,4.87,2.48,7.05,2.14,4.68-.74,7.75.29,10.65,4.22,1.71,2.31,5.83,2.84,7.51,5.16,2.32,3.19,5,3.62,8.33,3.68l1.17-4.77c-12.12,2.11-13.61-17.37-10.43-24.9,1.67-3.14,3.36-6.27,5.35-10L389.6,379c-4-11.87-11.5-22-10.63-35.24.1-4.61-5.28-9.95-4.33-14.79,5.05-6.95,8.68-14.93,11.67-23,1.93-5.16,6.57-9.92,3-16.25-.44-.77.61-2.37.9-3.6,1.34-3.85-2.5-7.1-3.74-10.5-15.16,4.78-15.16,4.78-22.14-3.89-9.54-1.4-17.63-.84-26.87.43-7.08,1-13.14,5.34-21.27,4.11-7.14-.25-12.76-5.19-19.4-5.24-3.05,1.11-7,10-5.52,13,1.34,2.72.42,4.42-1.16,6.55-3.32,3.42-1.36,11.42-8.12,10.8,2.07-5.68,4-10.89,6.39-17.47-7.35-3.58-14.53-1.56-15.21,7.51-.74,6.16-2.1,6.65-8.14,4.25-3.66-1.44-7.75-1.78-11.65-2.62l-.5,1.77c1.07.6,2.19,1.8,3.19,1.7,6.67-.54,5.93,6.68,2.08,9.66-3.14,2.87-3.23,5.2-1.21,8.63,8,15.12,3.48,13.9-10.05,18.66-4-3.18-7.46.62-9.47.49-2.79,3.28-4.68,5.49-6.76,7.92,10.88,19.68,19.22-8.22,27.41,4.43,5.68-5,11.46-8.21,10.59-16.89-.09-7.12,6-13.93,13.47-13.87-2.77,5.94-10.5,4.06-10.11,14.85.37,8.62-5.26,13.47-11.17,18.43-4.28,3.64-7.09,0-8.54-3.87-2.19,6.83-14.51,6.31-7.63,13.83,53.64-12.68,16.29,24,52.18,15.39,4.82-10.52,12.41-5.66,19.43-1.3-.06.62-.18,2.08-.32,3.79l-10.23-5.93c-6.34,6.84-15.44,5.88-24.27,6.18-1,0-2.5-.22-2.83-.85-1.58-3-3.39-6-4.07-9.26-4.65-14.55-22.91-5-33.93-5.6,15.77,22.59,1.73,19.54,10.37,34.68,4.1,6.59,6.55,10.22-1.91,19.65-4.93,5.41-5.79,13.72-8.52,20.13-4.08,5.17-1.31,9.38-1.47,15,12.65-7.58,16,7.34,32,3.38C289.07,451,307.56,465.7,324.69,455.94ZM169.63,150.31c20.37,1.53,24.93-9.37,41-18.38,4.14-4.38,36.57-16,21.31-21.6-4.09-1-12.8-11.41-12.37-15.5,1.64-5.16,3.59-10.32,5.14-15.53.2-.65-.42-1.58-.74-2.34-3.63-5.15,2.25-10.24-2.09-16.14C220,58,221.81,53,221.41,49c-.77-8-13.12-12.28-7.7-21.1,4.14-6.54,6.9-13,4-20.63-10.17,3-9,3.65-19.24.81-16,4.35-50,3.39-44,28.19,1.63,5.85-2.07,10.81-7,9.53-7-1.89-11.89,10-17,13.06A140.33,140.33,0,0,1,113,67.78c-6.73,2-16-1.76-19.44,6.9-4,7.57-.57,10.63,5.36,14.92,17.8,13.53,35.63,27,53.34,40.65,1.84,1.42,3.75,3.69,4.17,5.84C158.53,148.07,172.18,134.77,169.63,150.31ZM316.86,37.91c-27.5,9.84-3.68,12.45-18.63,22.76-9.83,8.61-14.44-8.72-24.65-7.79-1.88-.09-4.6-1.3-5.36-2.81-3.7-7.22-11.29-7.38-17.37-10.23-.92-.43-2.39-.77-3.16-.34-19.38,8.27-9.44,10.72-21.86,21.84.73,1.32,2.89,3.57,2.41,4.6-3.44,11.93,3.49,11.8-4.85,26.5-2.56,9.19,13.79,16.75,18.86,22.84,4.07.88,8.57,1.11,12.35,2.87,8.86,5.75,12.23-6.45,20.25-2.11,19,12.12,37.4,23.17,56.52,35.53-1.24-6.68,3.05-6.66,6.82-7-1-32.77-1.41-65.16-4.48-98.1C324,51.42,321.37,42.87,316.86,37.91ZM172,153.85c-15.62,1.72,1-9.74-11.38-10-4.18-.36-7.57-1.32-8.17-6.53-.2-1.71-2.06-3.49-3.58-4.73-10.12-8.27-20.26-16.54-30.62-24.51-5.42-3.84-21.4-16-20.5-1.86q0,29.94,0,59.9c9.56,31.38-33.95,3.9-43,20.06-.83,4.51-5.81,3.38-8.87,3.87-3.06,23-.52,15.86,17.84,13.81,1.34-.17,3.61.4,4.1,1.33,2.27,4.4,6.69,8.63,2,13.91,6,5.78,9.38.77,16.07,2.23,7,2.73,10.8-3.23,9.92-11.14l4-.9c-.53-3.89.91-6.26,4.58-7.56,3.08-1.49,6-5.52,9.59-5.83,8.47.4,10.94-10.78,18.76-11.83,6.53-.93,13.53-1.35,19.89,0,5.88,1.28,9.2-2.88,13.87-3.78C172.58,173.64,173.77,163.14,172,153.85Zm162.09,23.33c-1.33-4.27-4.44-8.82-3.42-12.08,2.86-9.19-3.31-12.3-8.85-16-7.83-5.19-15.88-10-23.88-15-6.78-2.49-26.57-21.11-31.18-12.84-2.71,3.92-1.62,9.18,2.1,12.75,4.26,4.08,4.53,6.34,1.42,11.43a46.86,46.86,0,0,0-1.51,18c2.09,14-18.53,14.45-15.66,29,.07.36-.42.85-.68,1.26-4.06,7.24,8.79,9.2,12.9,12.57,7.9,3.72-2.23,9.66,3.93,13.73,2.87,3.11,2,11.75-4.52,9.12-2.18-.65-4.93.6-8.54,1.18,4.13,6.91,13,9.19,9.88,18.56l3.51-2.57c2.65.61,4.75,1.83,5.91,1.23,6-3.12,12.1-6.29,17.54-10.29,3.13-2.31,5.95-3.94,9.8-3.5,9.2.45,15.56-7.62,23.4-11.26-.28-.4-1.73-1.56-1.82-2.82.67-9-12.59-9.13-7.77-16.79C322.07,191.87,319.09,180.75,334.13,177.18Zm-28.78,360c3.31,7.41.42,12.18-6.31,15.91-8.08,4.46-13.59-.66-20-4.4.9,7.07,20.39,31.77,14.76,34.52-3,2.5-4.69,5.42-2.27,9.45,8.77,12.27,26.33.8,38.51,3.86,17.17,2.82,26.67-10.47,37.87-20,4.89-3,7.65-6.92,10.51-11.57,5.51-7.66,11.91-12.2,17.91-20.32-15.95,3.7-18.6-10.75-7.71-16.39a8.49,8.49,0,0,0,5.41-10.06c-2.35-10.35.71-15.14-11.52-16.9-3.76-1.47-7.84.11-11.64.75-6.4,1.65-8.09,7.92-11.73,12.3-2.76,3.61-6.63,6.32-9.94,9.26-4.49,7.35-11,5.62-18.31,3.64C320.24,525.5,333.37,540.06,305.35,537.22Zm-42.82-412.3c-22.13-9.94-20.77-6.82-40.44,4.79-7.32,4.56-14.56,9.22-21.83,13.86-6.73,4.3-12.39,11-21.76,9.48-5,2.3-1.93,10.16-3,14.52-2,14.28-11.9,21.57-25.75,19.39-1.31-.21-2.79.68-3.85,1,2.32,4.66.08,8.75,5,11.26,5.17,2.66,9.67,6.62,14.43,10,3.32-7.69,7.18-14.66,16.38-15.94,5.72-.85,9.72,4.77,14.38,7.25,6.69-6.5,11.09.36,18.12-.16,8-1,16.86-7.67,24-.62,3.16-5.23,6.87-2.82,10.76-.82-5.93-24.67,18.9-19.93,16.53-44.3-.17-4,1.2-8,1.63-12C269,134.48,260.18,135,262.53,124.92ZM88.38,94.85c-6.17,1.62-25.67-2.19-25.6,5.66-2.19,5.93-.11,20.23-9.11,19.46-3.35-.37-5.35.37-4,4.76,4.07,12.59-23.17,3.78-32,9.81L17.59,136c7.2,4.46,2.73,9.49,3.47,15.65,2.1,6.93,1.71,13-5.3,17.06-.15.08-.06.59-.1,1,5.83,1,13.39-4.41,17.39,5.08-1.59-.18-3.38.15-3.92-.52C26,170.37,21.76,171.91,18,172c-7.37,2.44-7.92,12.06-12,18.6,4.09,4.9,14.43.31,20.32,2.6,2,.42,4.05,2.83,4.91,4.84.42,1-1.82,3.13-2.58,4.32l11.23,1.91c4.43-5.84.55-12.89,1.29-19.3,6.64.7,6.69,8.71,11.92-3.33,6.72-9.21,36.4.22,42.21-4.14,1.34-19.52-1.43-39.92.48-59.78.14-5.15.16-10.32,0-15.47-.34-5.74,4.11-4,8.57-4.48L90.7,86.93ZM337.85,48.19c1,26.9,1.91,53.11,2.87,79.83,19.1-2.62,38.58-1.21,57.85-2.06a7.66,7.66,0,0,1,4.09,1.1c4.62,3,8.57,1.84,11.09-3.19,1.38-3.71,9.52-5.61,4.76-10.12-8.69-8.62-13.32-20.37-20.42-30.21-3.91-6.79-12.45-15.73-6.63-23.48,4.87,5.32,5.79,13.48,13,16.53,5.76-11,2.72-14.13-3.45-23.59-12.23,5.62-19.81-9.9-30.44.19C359.06,65.89,352.06,46.08,337.85,48.19ZM195.21,271.66c21.85,1.87,6.72-19.4,28.82-18,10.87,1.54,7.8-11.92,14.46-16,10.54-4.87,6.62-18.94,17.21-23.85,2.23-.92,2.73-2.88-.23-4.72s-5.47-4.7-8.28-7c-5.61-5.57-7.62,5.75-12.81,0-9.38-4.52-19.92,6-29.94-.35-.52-.28-1.44-.62-1.71-.4-6.25,5.41-10.93-.76-16.37-3.31-6.84-2.31-13.69,2.07-15.62,8.78-3.64,8.16,2.52,18.17-4.65,24.87-5.48,4.7-6.55,10.2-4.43,16.76.19,3.21,1.93,7.63,5.24,8C185.11,253.39,173.92,274.94,195.21,271.66Zm199.37,61.78c2.79,5.66-1.65,14.53-8.45,16.25-1.22.31-3.05,3-2.72,3.93,4.95,15.37,10.88,34.61,29.94,35.53,18.37.36,8.36,22.2,21.54,17.38,2,.25,6,2,7.81.83,9.29-6.51,13.73,1.82,25-6.14-4-7.47-8-14.59-7.94-23.28-.37-3.23-1.12-5.38,3.42-6.31-10.93-2.45-4.57-14-4.24-20.86-8.6-12.3-22.36-18.2-35.21-25.2-1.25-.67-3.48-1-4.43-.31-2.6,4.37,3,8.25-4.36,11.2-4.9,2.4-9.07-1.22-13.28-2.56-2-1.28-2-7.61-3.35-10.83C397,326.68,396,329.58,394.58,333.44ZM311.2,462.07c-.13-.55-.25-1.09-.38-1.64-5.07,0-11.21,1.39-15.92-.13-10.88-5.3-23.07-1.91-34.66-3-8-2.32-11.45-6.93-20.55-3.3,6.59,17.74,21.24,31.35,22.38,51.52,2.22,14.79,2.09,30.57,13.08,42.15,7.63-8.54,10.65,6.08,19.88,3.28,6.77-2.13,8.91-8.16,8.38-15.23-1-13.14-1.39-26.33-2.07-39.49-.45-5.22,4.4-3.65,8.26-3.88-.54-7.22-.57-14-1.72-20.55C307.15,467.61,307.11,464.42,311.2,462.07Zm24.44-54.81v13.48c-21.05-6-14.29,10.18-15.33,23.75,0,5.89,5.93,9.68,11.5,7.86,5.19-.89,10.06,3.67,14.9,4.93,7.68,2.19,14.36,1.83,19-6.51,4-4.86,12-7.58,17.23-11.63,4.33-6.51,14.82-7.45,20.37-9.41,2.22-4.71,3.22-8.41,5.45-11.11,1.95-2.36,3.47-3.91,2.59-7.37-1-5.21,1.12-12.54,2.09-17.27-11.14-4.88-21.88-15-33.45-11.31-5,7-6.14,12.49-7.53,20.3,1.93,3.28,4,7,5.71,10l7.89-4.47c2.89,22.34-20.08,11.53-27.34.74-5.68,3.08-11.76,2.11-14.13-2ZM419,277l.52,1.83c9.41,4.12,12.27,18,3.3,25.16-2.18,1.75-2.87,3.45-.83,6.16,2.51,4.11-2.45,10.63,3.51,13.37,9.65,6.88,24,10.33,30.28,20.64,1.39,3,7.18,4.68,8.6,3.11,5.56-6.17,11-12.44,16.7-18.52,4.59-4.17-2.72-7.71-2.13-12.46,1.59-11.78-2.22-25.51,6.52-34.65-5.67-3.42-11.09-3.66-16,1.2-17.16,7.61-24.38-11.33-38.82-7.12C426.93,276.14,422.65,275.06,419,277Zm-108,189.45c.45,10,.86,19.11,1.29,28.65-12.43-.63-8.61,5.18-7.91,14.2-.85,14.69,7.81,12.79,5,25.5,17.94,1.48,10.93-15.61,23.89-10.11,3,.88,6.14,2.56,9.16-.06,5-4.35,11.11-8,14.72-13.27,4.1-6,7.59-12,14.18-13.69C328,449.67,362.94,460.24,310.93,466.46ZM496,227.49c3.46,4.92,7.26,10.3,14.28,11.56,8.26,1.13,15.44,7.23,24.49,5.78,1.2-.19,2.65,1.21,4,1.87-5.8,9.16-14.36,16.63-21.49,24.86-1.64,1.66-4.8,3.28-6.8,2.84-8.42-.73-25.74,9.29-28.08,17.21-1,9.38-.47,18.92-.24,28.38,4.34,5.78,8.35-5,12.14-7.15,12.23-13.25,30.65-18.22,39.94-34.06a125.18,125.18,0,0,0,21.39-37.73c1.82-5.45,8.7-10.05,4.26-17.17a46,46,0,0,0,.89-7.6c-7.57,1-14.13,5.1-21.81,5.57-4.76,1.43-9.39,4.44-14.12,4.51C514.82,226.27,506,230.33,496,227.49ZM360.87,269.37c.49-1,1-2.07,1.46-3.1-2.83-2.17-7.44-3.9-8.1-6.6-1.86-6-7.15-7.34-10.09-12.24-5.71-7-18.45-6.35-13.15-18.77-11.47-5-15.61,10.93-27.86,8.05-3-.24-5.46,0-6.74,3.48-1.64,2.84-6.41,2.77-9.07,4.21-3.62,2.18-6.87,5-10.57,7-11.58.88-11.57-.74-17.78,10.2-4.84,7.44,8,17.55,11,25,3.95-6.45,9.27-9.19,16.68-7.41,4.76-1.84,2.92-16.8,17.58-9.16,7.1,4.17,15.28,3.48,23.16,2.89,5.93-.37,10.39-6.43,16.79-3.72C348.81,264.58,355.13,270.12,360.87,269.37Zm-91.75,23c-3.9-10.86-22.49-24.58-10.46-36.39,5.92-6.18,4.72-15.29-2.51-20.09-8-8.12,4.71-10.45,11.54-10.56-9.3-10.45,1.58-15.71-7.7-17.27,1.06,4.2.33,7.49-3.8,9.48-5.94,2.87-5.71,9.67-8.33,14.51-2.05,7.77-12.7,8.48-12.31,17.22-1.68,14.61-26.28,1-25.15,24.52,9.47,3.63,9.73,6,8.64,16C236,289.12,252.35,290.82,269.12,292.37ZM64.79,81.11c6.9,1.63,15.2-1.07,22.55-1.3.93-.12,2-1.94,2.37-3.16,2.25-7.76,7.06-11.86,15.07-11.54,11.57-.49,23.49-7.23,30.85-15.79,2.08-4,7-7.81,10.19-7.2,4.39.83,6.07-1.19,4.9-5.61a19,19,0,0,1-.94-6.71c3.35-14.35-10.66-3-20.32-10.89-3.29-3.56-4.13-.81-5.68,1.15-5.22,8.74-14.06,13.39-22.37,18.68-18.28,11.12-8.16,17.6-16.13,27.09C78.75,71.14,71.81,75.94,64.79,81.11ZM349,461.31c1.88,3.58,3.58,6.36,4.83,9.32,2.66,6.3,9,9.53,12.47,14.8,5.95,10,24.93,19.27,31.68,6.25,2.32-5.76,6.69-11.19,7.53-17.33-.39-3-2.06-6.38-1.19-8.9,6.93-18.39-13.52-11.62-20.57-21.7-4.53-.61-15.42,10.87-19.51,14C358.49,464.15,356.72,462,349,461.31ZM76.31,268.68c10.75-6.93,22.21-7.44,34.86-4.32-12.43-12.68,6.61-21,.28-34.58-6.07.8-10.08,4.57-15.24-1.13C91.32,223.94,78.48,223,72.09,227c2.7,5.89,8.84,6.65,2,13.29C61,250.67,84.21,255.86,76.31,268.68Zm36.26-51.57c10-.22,19.36-3.33,28.17-1.63,3,3.46,5.83,2.8,8.59,0,8.1-6.48,6.86-8.93-1.34-13.5-6.77-2.93-2-24.14-19.82-12-11.23,15-12.1,1.5-24.72,17.24a26.37,26.37,0,0,0-6,12.65c-3,10.79,8.23,7.65,15.13,6.94Zm143,109.33c.86-9.54-8.07-18.52.82-24.83-8.67-8.28-10.94-8.52-22.93-8.7.89,4.1-.68,9.66-4.58,10.46-9.83-1.81-16.62,4.29-16.28,14.34,2.34,8.62,9.4,13.62,16.24,20.68,1.23-8.53-.64-10.15,8.59-9.34,1.45-.05,4-2.58,4.52-2.24C247,330.52,251.37,325.54,255.6,326.44ZM114.07,265.68l-.9,1.8c9.82,1.26,18.12-5.47,26.9-8.89a4.84,4.84,0,0,0,2.08-3.8c-2.82-11.66,2.37-26.24-6.61-35.21-3.6-.31-6.73-.8-9.86-.79-11.45,0-10.15-1.39-9.82,9.6C118.69,253.82,105.56,244.12,114.07,265.68ZM19.83,129.86c6.86,0,14.87.22,22.86-.11,8.65-.49-.52-14.82,10.47-12.81,9.25.74,3.06-20,10.72-22.85A100.56,100.56,0,0,1,77.09,93c8.82-.14,8.82,0,11.2-8.27.07-.23-.09-.54-.27-1.44C74.3,83.63,58.1,80,48.5,92.67c-6.19,6.44-9,15.22-16.23,21.12C26.93,118.12,23.55,124.88,19.83,129.86ZM382.9,321c5-.85,9.3-2.51,13.31-2,3.38.45,5-.18,6.8-2.64,1.51-2,3.46-5,5.4-5.17,13.26-1.73,24.94-23.3,10.59-30.45-6-2.41-12.6,1.81-18.73,1.74-10,.42-6.4,8.34-7.19,14.88C389.9,305.3,386.08,312.88,382.9,321ZM21.78,218.9c1.91,1.67,4.26,3.54,6.36,5.65,1.53,1.54,2.58,4.63,4.11,4.82,5.32-1.15,11.77-10.9,16.88-2.34,2.48,7.56,14.36,10.15,12.3,18.56C75,242,74.18,230.66,67.85,221.74c-3-3.77-1.23-5.45,1-7.66-1.67-4.5-2.28-8.86-8.2-6.48-9.29,1.09-19.11-.08-28.61.32C33.56,215.54,23.62,212.35,21.78,218.9ZM66.3,247.79C52.44,254,64.31,234,49.53,242c.12-1.31-.24-3.34.56-4.7C53,232.27,47.52,230.94,46,228c-.31-.6-3.95,0-5.73.81s-3.18,3-5.07,3.74c-9.46,4.13,2.91,17.85,10.31,14.43,7.18,10.15,14.61,19.49,27,23.49C79.86,258.25,65.92,258.41,66.3,247.79ZM227.53,32.62c-2.38-8.84,15.75-11.41,10.05-23-.37-.83.2-2.08.3-2.84L231.47,4.5c-18.62,5.91-2.64,8.77-11.75,19.12-4.57,4.46-4.52,13.26-.24,15.26,6.88,2.44,4,8.43,6.11,13.61,1.36,3.12,4.18,2.25,4.77-.3-.94-7.49,6.12-8.69,10.45-12.95Zm200,420.89c-1.55-8.95,4.71-23.14-2.16-28.31-10.61-9.46,8.23-14.61-7.38-31.61-1.76,5.53-3,10.56-2.68,15.49,1.71,13.25-20.32,17,3,21.21C435.35,432.63,412.34,448.87,427.49,453.51ZM148.74,221c3.14,2.78,2.53,5.11,3.19,10.21,6.5,4.12-1.38,24.64,6.49,23,.76-8.56-4.17-17.29,4.24-24.23,6.83-5.88,4.77-15.73-2.63-19.52ZM402.85,330.72c3.74.88,13.3,6.81,11.88-1.25-.69-9,8-7.1,4.82-20.07C411.18,317.73,404.28,308.36,402.85,330.72ZM150.24,257.25c.4-6.3,1.16-10.23,1.37-15.56-.81-3.51-2.91-7-2.72-10.42.38-6.69-4-8.82-8.61-11.6,1.85,7.64,6.7,16.08,4.92,23.44C142.17,247,145.16,260.7,150.24,257.25ZM19.1,215.33a55.22,55.22,0,0,0,9.82-6.7c-5.18-6.8-13.56-2.3-20.71-2.41l-.74,1.2C12.1,209.31,18.37,209.14,19.1,215.33ZM389,331.88l-8.53,3.9c1.18,3.06,2.45,6.37,3.73,9.68C391.16,342.4,395.54,338.41,389,331.88ZM229.73,299.41c-.71-3.07,1.26-6.66-3.93-6.85-7.34-.26-9.29.84-10,6.85ZM395.54,536.87l-4.43-5.53-5.57,6.13C390.51,541.93,390.56,544,395.54,536.87Zm-4.73-214.51c-5.41,3-11.1.68-12.9,8.14,5.43-1,9.75-1.51,14.69-3.11C393.2,326.09,391.28,323.34,390.81,322.36ZM8.79,197.83l0,1.66,19.58-.94C21.1,193,14.94,196.15,8.79,197.83Zm482,23.94c-.22-4.89-.37-8.21-.55-12.29L484,215.83Z"/><path d="M521.55,442c.67-7.31,1.62-8.12,6.31-6.36-1-14.54,2.34-7.08,9-15.85,13.22-25.22,17.61,16.64,15.8,26.28-.14,3.93-3.32,3.74-6.72,2.57-1.28,10.38-2.6,20.22-9.46,28.55-3.47,6.75-5.73,14.09-10.25,20.25-1.46,2.49-4,5-4,7.58,0,8.45-6,14.35-8.36,21.74-.36,1.13-2.6,2.1-4.1,2.33-10.21.66-26.06,5.67-25.69-10.06-2.09-28.58-12.21-9.9,8.77-34.94,2.77-6-3.8-12.53.8-18.64.73-3.59-1.29-10.64,1.76-13.71C502.33,444.51,511.91,443.1,521.55,442ZM484.2,500.41c8.67,17.79-5.07,28.7,23.72,23.77a4,4,0,0,0,2.78-1.55c2.5-5.12,6.08-10.18,6.74-15.58,4.06-14.38,14-25.88,20.2-39.38-1.48-11.53,5.39-14.74,4.18-24.1l5.53-.37c1.48-9.15,3.08-18-4.36-25.57-4.28,16.29-11.25,7.8-11.22,17.8a8.91,8.91,0,0,1-1.66,4.75c-4,3-9.47,10.1-14.48,10-6.4-4.87-10.61,0-15.19,3.22-2.49,1.73-3.39,3.76-2.2,7,1.18,3.79-2.27,9.19-1.62,12.85C501.88,485.23,492.91,493.83,484.2,500.41Z"/><path class="cls-1" d="M419,277c3.7-1.95,8-.87,11.68-1.27,14.36-4.26,21.58,14.7,38.82,7.1,4.88-4.85,10.3-4.61,16-1.19-8.74,9.14-4.93,22.87-6.53,34.65-.58,4.75,6.73,8.29,2.14,12.46-5.67,6.08-11.14,12.35-16.7,18.52-1.42,1.57-7.21-.07-8.6-3.11-6.25-10.29-20.64-13.78-30.28-20.64-5.95-2.74-1-9.26-3.51-13.37-2-2.71-1.35-4.41.83-6.16,9-7.19,6.11-21-3.3-25.16Z"/><path class="cls-2" d="M427.49,453.51c-15.15-4.64,7.86-20.88-9.18-23.22-3.29-.84-14.86-2-9.59-7.38,9.45-7.05,4.8-19,9.23-29.32,15.65,17.11-3.26,22.07,7.38,31.61C432.21,430.4,425.94,444.55,427.49,453.51Z"/><path class="cls-2" d="M402.85,330.72c1.45-22.34,8.23-13,16.7-21.32,3.2,13-5.51,11.05-4.82,20.07C416.14,337.54,406.61,331.59,402.85,330.72Z"/><path class="cls-2" d="M389,331.88c6.59,6.54,2.19,10.52-4.8,13.58-1.28-3.31-2.55-6.62-3.73-9.68Z"/><path class="cls-2" d="M395.54,536.87c-5,7.13-5,5-10,.6l5.57-6.13Z"/><path class="cls-2" d="M324.6,456a62.58,62.58,0,0,0,13.26-.48c.12.74.25,1.49.38,2.24l-16.86,5.44L321,462C322.06,460.16,323.82,457.46,324.6,456Z"/><path class="cls-2" d="M390.81,322.36c.47,1,2.39,3.74,1.79,5-4.94,1.6-9.25,2.14-14.69,3.11C379.71,323,385.4,325.34,390.81,322.36Z"/><path class="cls-2" d="M490.79,221.77,484,215.83l6.23-6.35C490.42,213.56,490.57,216.88,490.79,221.77Z"/><path d="M365.36,552.21c17.65-.76,5.7,21.34-6.62,18.64-7.28-1.22-9.7-8.75-4.23-14.15,2.68-2.64,6.74-3.87,10.17-5.73Zm-10.05,12.15c6.44,5.61,15.61.76,14.76-7C364.34,552.36,356.6,557.19,355.31,564.36Z"/></g></g></svg>