<svg xmlns="http://www.w3.org/2000/svg" viewBox="0 0 566.77 605"><defs><style>.cls-1{fill:#ffc22c;}.cls-2{fill:#fff;}</style></defs><g id="Layer_2" data-name="Layer 2"><g id="Layer_1-2" data-name="Layer 1"><path d="M233.91,0c2.76,1.06,6.89,1,9.3,2.15.65.81.16,2.67-.07,4-.18,1.06-1.32,2.26-1,3.05,3.46,9.8-3.41,15.74-10.32,20.58,15.61,11,13.8,1.75,27,8.24,6.44,2.13,9.26,9.22,15.21,10.56,7.55,1.69,12.87,6,18.12,11C306.88,52.55,291.12,47,303,40c26.78-15.69,12.38,3.31,29.5,3.29,16-2.65,27.07,15,34.56,7.84,17.26-15.66,25.54,9.39,36.45-6.28,8.92,23.32,13.27,13.6,3.53,37.95-3-1.25-5.22-2.91-8.16-4.3,8.59,13.66,19.31,26.21,27.13,40.26,3.7,3.84,7.55,7.84,12.1,10.47,4.75,2.76,4.49,6.58,3.27,10.14-6.43,22.06,14.85,15.75,16.73,31.22,1,5.58,3.79,10.84,5.94,16.64,3.9-2.4,6.78,1,10.4,2.08,6.47,1.16,22.46,16.87,21.25,23-.74,4.26,2.36,11.05,6.75,12.38,6.63,2.32,11.71-5.36,18.36-2.18a161.66,161.66,0,0,0,30-7.41c7.72-4.82,9.2-4.79,16,.59v17a11.63,11.63,0,0,0-5.4,8.18c-.77,3.73-4.12,6.86-5.83,10.49-7.85,20-19.08,40.16-38.95,51-11,5.25-19.46,13.7-27.31,23-10.16,11.24-23.18,20.26-27.29,35.71-4,8.69,13.1,5.85,4.71,15.51-1.39,1.49-1.36,10.41,0,12.3,5.5,6.95,15.05,18.95,4.28,25.56v-8.15c-8.08,2.3-58.43.76-44,16.53,7.41,6.18,4.37,13.88,4.42,21.13-.43,4-.73,10.6-3.94,13.17-6.14.91-12.77-11.57-6.85-16.65,1.1-1.25.91-3.64,1.24-5.11-9.83-3.11-18.5-3.61-27.75,1-7.59,2.46-7.59,2.45-4.5,8.25,22,8.26,22.31,2.32,17.24,25.63,6.29,16.68-15.3,26-10.37,42.77,1.57,5.27.3,11.38.3,15.53,12.3-7.81,29.05-12.79,23.41-31.49-.84-3.49-1.56-8.32-4.73-10.31-3.26-1.58-3.32-3.74-1.41-5.8,7-7.13,18.25-10.31,22.2-20,5.18-11.18,19-2.43,24.71-13.08,5.44-4.28,8.28-8.12,11.45-15.13,11.74,2.56-10.12,22.95-15.61,24.44-3.38,1.62-7.66,1.24-11.38,2.31a8.61,8.61,0,0,0-4.78,3.53c-4.7,9.4-13.77,13.57-22.21,18.84l1.89.46c8.77,21.45,7.56,40-17.65,47,3.57,4.22,2,8.21.05,12-2.56,4.88-4.23,11.21-8.29,14.09-11.31,7.41-13.51,20.95-25.46,27-10.46,11.52-23,22.59-39.94,18.94-10.05-1.23-20.32,3.32-30.19,3.66-1.25-1-2.37-2.38-3.78-2.8-10-3-12.93-13.73-6-20.94-4.17-8.32-8.11-16.6-12.46-24.66-9.4-9.93-15.5-21.41-16.77-35.15-2.48-14.72-3.68-29.84-11.89-43-4.21-9.07-12.67-14.64-13.49-25.41-.44-7.35-2.83-14.25,3.21-20.61,1.58-5.19,2-13,6.21-17.34,6.54-7.32,6.72-10.38,1.61-19-5-7.2.54-16.28-3.86-23.4-3-6.06-5.43-12.46-8.84-18.28-7.59-13.71-21.25-22.61-26.61-38.05,3.24-8.94,6.61-19.74,8.14-29.56.83-3.19,1.49-5.95-3-6.53-9-9.84-27.41,3.07-33.74-10.86-5-18.16-44.16-5.26-55.29,1.95-2.46,1.57-7.47,1.46-10.14,0C77.31,254.6,81.85,297.06,44.66,255.8c-2-1.65-4.19-3.44-6.6-4.16C20.2,246.17,32.91,232.5,21,225a14,14,0,0,1-4.53-4.59C12.14,210.36-3.14,213.92,1.81,199c.5-1.8,3.13-5.05-1.81-5.28v-7C9.19,180,7.85,168.8,15.67,161.55c6-5.05-3.78-10.71.58-16.7.44-7.77-10.82-5.54-2.65-15.14,22-27.58,30.08-47.12,63.85-62.91C90,57.51,77.38,47,100,34c8-4.92,17-8.33,20.91-18.18A5.52,5.52,0,0,1,130.22,14c6.34,7.11,14.35,3.29,21.67,3.88,5.46-3.95,11.78-7.62,18.62-9,13.17-4.39,26.57-5.29,40.31-5,4.1-.43,7.9-1.89,12.26-.56,1.48.44,3.86-2.09,5.83-3.26Zm193,218.59c.17,5.11-3.57,9.26-4.41,14.07-1,5.13-2,9.63-8.27,10.36-.52.06-1.43,1.92-1.18,2.32,1.23,2.75,7.16,2.8,8.16,4.47,1.16,4.93,5.23,6.88,8.44,9.77,5.54,5.69,6.58,14.83,16,16.49,2.71.53,5.16,2.7,7.58,4.35,14.87,6.78,18.4-7.7,28.55-2.73,3.16,1.35,8.33,2.88,10.25,1.36,27.75-14.05,20.63-.66,42.34-30.91-13.11-1.53-26-4.17-36.09-12.74-4.47-4-6.35-10.23-12.55-13-8.81-3.67-4.56-11.82,2.87-14.12-5.18-12-10.48-11-19.84-17.1-.49-.38-1.75.22-2.65.37-4.87.83-6.19-.72-7.36-5.42-1.57-6.31-4.11-12.38-6.21-18.48-7.85,2-10.6,3.7-10.56,7.22,0,5.4-5.78,10.76-.15,16.18-1.84,10.92-5.12,21-15.05,27.68,1.08-6.74,6.22-11.26,9.29-16.94,1.34-2.82,2.45-6.7,1.56-9.42-2-6-.61-10.62,1.19-16.52,1.29-6.91,4.59-9.08,10.55-11.52C437.09,161,430.72,145,437.9,135.5c-4.44-3.49-9-6.82-13.31-10.54s-4.8-3.8-7.81,1c-8.57,14-16.11.59-28,3.52-12.67,1.22-25.48,1-38.24,1.24-10.67-.38-12.07,3.61-9,13.29.72,2.63.49,4.82-3,4.67s-3.82,1.78-3.71,4.45c.67,7.25-1.77,14.51,2.61,21.22,3.92,7.93-7.23,7.17-9.46,11.35-2.32,5.28-3.83,10.92-6.29,16.11-1.61,3.39-2.78,5.82,1.56,7.86,3.86,3.26,4.46,9.92,7.94,13.5,3.53,3.91,5.07,7.52,1.48,12.58,4.79,2.86,9.6,4.42,13.24,8.3,4.27,5.73,10.85,9.4,13.72,16.5,1.3,3.22,5.39,5.26,6.95,8.46,2.8,6.9,8.5,7.08,14.61,4.61,7.08-4.11,9.48,2.11,13.1,7.1l40.47-8.95c-6-4.7-6.84-12.18-13.59-14.49-2.76-3-1.88-7.68-7.87-6.81-4.22.37-3.15-3.88-4.16-6.07.39-1.58,4.51-4.88,7.4-3.82C418.6,232.7,417.64,222,426.86,218.59ZM323.33,401.33c7.32-.83,6.45-2.89,14.07,1.43,4.63,2.14,10.37,2.1,14.83,5.48,2.48-.72,7.26-1.57,9.44-.22,5.92,3.17,16.25,19.84,21,7.58l-7.47-.48c-6.88-10.62-4.74-11.58-4.18-22.85.51-3.22,6.15-4,4-8.23,1.69-5.74,9.71-3.73,15-4.76-4.2-9.23-8.53-17.69-10.1-27.5-.77-6.49-.39-13.07-5.44-18.27a3.37,3.37,0,0,1-.11-3.06c4.51-6.21,6.86-13.71,10.42-20.3,5.71-8,4.49-17.34,5.9-26.17-.8-3-3.26-5.59-4.67-8.35-15.07,4.76-16.31,7.08-22.35-4.55-2.14.43-5.1,2-6.33,1.11-6.66-4.74-13.35,3.21-19.81-.43-.07,0-.49.83-.86,1-4.57,3.34-10.67-.43-14,5.09-1.55,1-5.65-.47-7.57-1.29-7.11-.8-21.44-11-23.24.9,0,3-2.61,5.86-.19,8.94-1.47,5.1-4.74,10.63-7.23,15.5l-2.11-.93c1.39-4.21,2.18-8.76,4.34-12.53,4.39-8-12.16-9.8-13.89,3.32-.23,15.31-14.32-5.34-20.19,4.17,6.34,1.27,12.6,6.9,4.38,11.09-3.34,1.77-2.18,4.51-.87,7.25,1.69,3.54,3.83,7.13,4.39,10.9,1,6.94-5.32,4.35-8.59,5.73-4.72,4.68-11.35.1-16.51,3l1,.72c-1.27,2.28-4.5,5.91-5.42,7.78,1.84,2.66,3.69,6.46,6.27,7.14,8,2.2,13.88-11.89,20.78-3.36,7.46-4,10.92-10.86,10.79-19.18,1.09-6.17,7.59-11.69,13.85-10.81-4.1,3.13-9.6,6.69-10.62,11.12.26,8.64-2.73,14.9-9.64,20.16-5.33,4.06-6.62,4.36-10.28-1.68-3.77,6-12.94,4.76-8.47,13.67,10.7.35,27.37-9.74,32.63,4.52,3.44,12.06,4.65,12.41,16.89,11.27,6.31-1.67,7.94-10.94,16.67-5.34C323.16,373.65,312.47,385.46,323.33,401.33ZM217.68,8.94c-15.31.34-30.71-1.6-45.08,4.7-3.82,1.32-7.78,2.22-11.66,3.39-3.66,1.11-8.78,12.12-7.75,16.51,2.27,9.6,1,11-8.27,12.6-2.88.5-7,3.11-7.58,5.48-3.73,9.76-16.62,11.51-24.68,16.83-8.4,3-10.11-4.62-18.33,4.68-9.78,13.64,11.91,21.05,19.73,28.73,13.29,11.42,30.24,20.13,41.48,33.25,3.07,14.36,16.36-1.71,13.47,15.94,24.45-1.16,20.94-6.83,40.17-18.18,5.8-4.84,25.61-12,26.75-18.3a8.55,8.55,0,0,0-4.49-3.64c-3.16-1-12.74-12-12.45-15.27,1.69-5.27,4-10.51,5.83-15.8.15-.42.13-1.2-.14-1.42-4.89-4.06-2.42-8-.11-11.28-3.92-5.39-2-10.45-2.81-16.27-.93-7.87-11.29-12.3-9.34-20.63C217,21.59,221.36,19.55,217.68,8.94Zm6.81,64c9,6.71-3.06,15.6-2.19,23.57,6.89,6.36,13.44,15.62,21.43,20.08,8.22-3.26,14.66,8.45,22.4.83,2-2,4.89-3.65,8.4-1.39,18,11.62,36.9,22.93,54.63,34.69,4.64-7.86,9-2.22,8.72-10,.16-30.7-4.1-61.92-2.87-92.4-9.94.1-13.76-2.24-18.33-10.34-28.66,12.16-.92,11.69-19.82,24.26-7.41,6.62-11-7.69-25.23-9.74-5.83-1.57-8.56-8.24-15.25-10.31-7.64-2.38-19.85-.1-23.23,7.21-.85,3.79-.65,8.55-5.67,9.79C223.6,63.9,232.9,66.51,224.49,72.93ZM69.93,220.07c3.45,4.57,12,.8,17.35,1.82,3.93.48,9.71-3.62,8.42-7-1.88-5,1.26-5.08,4.11-5.63l.29-4.19c14.61-14,16.89-5.44,22.66-13.75,4.29-6.45,8.49-8.09,16.12-6.7,4.74.56,9.78-.52,14.5.19,12.77,1.27,17.86-10.17,19.34-20.72,1.9-8.8-.62-7.73-7.69-11.07.2-4.88,2-8.35-4.76-8.62-4.79-.31-8.29-2.56-8.45-8.14-10-10.34-22.93-18.88-34.27-28.08-23.67-15.24-21-7.48-19.66,15-.83,16.44-1.23,32.9,1,49.27.53,3.23-2,9.13-4.65,9.2-6.81.17-13.63,0-20.45,0-5.65,1-15.31-2.5-18.71,3-1.82,4.45-4.72,7-9.59,6.24-3.2,18.53-2.32,17.5,15.25,13.64,8.25-3.13,7.73,4.48,10.16,8C71.84,213.8,70.44,216.75,69.93,220.07ZM331.28,403.5c-7.2-.42-13.53,4.66-12.48-6.15a2.58,2.58,0,0,0-.7-1.28c-8.5-6,3-19.93-8.91-22.7-1.1-.22-2-1.48-2.86-2.15L300,373c.43,3.43-1.22,4.62-4.66,4.43-5.66-.94-13.58,2.06-17.94-2.44-3.72-4-1.67-13.87-7.79-14.39a94.36,94.36,0,0,0-18.87.57c-8.2,1.68-9.82-.77-11.09-8.3l-1.29.09c-.61,11.5,14.41,19.48,9.64,31.4-2,4.16-.28,7.56,2.23,10.75,10.13,11.38-2.79,20.32-6.25,31.39-1.74,8.19-8.86,14.87-4.42,23.37,14.75-3.16,11.45,3.68,21.45,4.33,13-.07,26-.84,38.34,4,4.54.39,9.09-1.74,13.77.85,2.66,1,7.32-1.18,10.42-1.81.19.34.39.68.59,1L319.7,463l.47,1.13,17.9-5.79-.31-2.23c-9.95.5-20,2-20.82-11.24,0-6.59.73-13.18.9-19.77s.89-7.6,7.63-7.75C335.79,418.13,333.78,410.52,331.28,403.5ZM335,176.38c-7.21-6.09-1.33-15.57-6.21-22-17.49-12-36-22.69-53.92-34-8.18-4.68-12.4,7.81-6.63,13.52,6.44,4.52,2.85,11.49,1.76,17.76-1.37,6.82,1.07,15.19-3.53,20.92a93.36,93.36,0,0,1-8.47,7.55c-3.26,3.45-10.21,18.34-3.29,20.56,4.56,3.82,16.25,5.08,13.28,13.07-.59,1.56-.72,4.65.12,5.17,3.63,2.27,4.63,5.65,2.49,8.47-1.31,1.71-5.21,1.37-7.9,2.12-1.59.44-4.26,1-4.38,1.87-.24,1.6.53,4.48,1.67,5,5.05,2.15,7.05,6,7.24,11,1.53-.25,3.39-1.07,3.94-.54,3.36,3.24,5.7.1,8.18-1.13,3.74-1.85,7.66-3.62,10.85-6.22,5.19-4.25,10.62-6.71,17.45-5.94,6.27-2.43,12.44-7.27,18.47-10.4-1-2.63-1.41-7.84-3.89-9.18-9.49-5.15-4.94-12.23-3-18.33,2.12-6.75,2.9-15.19,12.4-16.93C332.71,178.51,333.68,177.29,335,176.38ZM279.63,548.93l-1,.93c5.08,9.31,10.11,18.64,15.23,27.93,1.45,2.64,1.31,4.67-1,7-3.84,3.76-1.77,9.74,3,12.44,6.26,3.55,12.17.29,18.22.25,14.6-1.25,30.79,2.69,42.13-9.13,6.72-7,14.91-13,20.72-20.72,3.67-5.89,7.09-11.65,13.67-15,2.17-1.11,3.33-4.21,5.09-6.59-7.19,0-13.37-.8-12.85-8.94-.55-7.21,9.09-8.11,10.85-13.29a75.84,75.84,0,0,0-1.88-17.47c-1.09-4.49-5.88-3.9-9.55-4.48-5-2.54-13.91.06-17.36,4.4-4.08,5.67-6.33,13-14,15.54a3.37,3.37,0,0,0-1.69,1.77c-6.69,14.41-19.36-4.28-26,10.48-3.74,6.27-11,3.85-17.83,3.88,3,7.64-.42,12.6-6.93,16C290.79,557.77,285.36,552.65,279.63,548.93ZM261.91,125.08c-10-3.79-19.88-9.77-29.11-1.66q-16.05,9.79-31.93,19.88c-6.9,4.36-12.67,11-22.23,9.59-8.56-1.93,2.6,24.63-12.43,31.43a67.44,67.44,0,0,1-20.86,3.37c1.17,3.73,2.09,6.65,3.41,10.88l16.56,10.57c4.55-15.83,15.81-19.08,29.55-9.43,3.94-.69,7.68-2.61,9.58-1.47,11.61,8.29,23.37-8,33.61,1.91,3.3-5.86,7-2.74,11-.38-7.63-24.12,14.39-19.39,16-38.27.34-6.46,1.91-12.84,2.6-19.29C268.05,134.75,259.8,134.66,261.91,125.08ZM90.73,87.66c-5.52,8.65-14,9.4-22.69,9-9-1.22-5.61,12.29-8.19,17.66-.67,2.59-1,6.24-5.38,5.52-11.51-1.52.72,14.73-12.42,13-6.5,0-13-.09-19.48.09-4.66.38-5,2-3,6,1.21,10,6.56,24.83-4.9,30.27,6.56.66,16.27-3.26,17.19,6.57-1.25-.28-2.57-.18-2.93-.72-3.92-5.83-9.43-1.09-14-2.15-4.7,4.17-5.82,12.06-9.25,18C7.18,192.73,9,194,13,193.06c5.73-1.23,23.35-.39,16.17,9.16L39,204.57c5.78-5.91.11-13.15,1.64-19.91,11.85,10.24,7.91-2.8,16.83-5.79,10.77-.07,21.74-.71,32.42.25,1.65-.21,3.84-.15,4.73-1.16,2.38-3.16-.24-7.64-.58-11,1.09-22.56.52-45.63,2.54-67.94l7.14-.36C100.18,94.09,95.29,91.69,90.73,87.66Zm311.43-32.6c-5.15-.91-10.75-.81-15.3-2.94-15.42-8.67-17.51,12.42-30.32,3.24-4.11-1.45-20.69-12.92-18.69-2.67,1.31,19.31,1.5,38.67,2,58,1.33,4.9-3.59,18.33,4.6,17.24,18.35-1.69,36.85-1.12,55.26-1.1,11.82,4.46,10.8,1.11,18.63-7.41,2.31-4.39-1.82-7.59-4.44-10.6-4.94-10.78-32.14-40.1-21.61-49.69C395.18,66.27,397.7,73,404.2,77,410.51,66.06,408.26,64.6,402.16,55.06ZM196,204.75c-5.64-4.1-10.18-9.12-18.49-6.43-4,1.28-2.66,4.41-4.64,5.89-5.18,3.87-4.67,9.57-3.56,14.52,3.79,13-15.25,18.08-7.38,31.43.16,2.88,0,7.33,4.37,6.4,14.29-2.66,11.13,10.85,19.26,14.76,7.53-.43,22.78,4.41,23.44-6.94.14-6,7.94-11.87,13.95-10.73,5.72,1.08,8.77-.83,10-6.55,1.18-9.84,8.05-8.25,11.89-14.74,2.79-8.21,5.44-15.34,13.06-20.59-8.6-8.05-10.65-13.1-22.48-7-1.65-9.43-19.81,1.3-26.88-1.63C203.66,202.4,199.8,202.1,196,204.75ZM398.13,323.67l-.79.39c-.71,3.4-2.29,6.88-1.95,10.17.22,18.93-16.26,13.26-11.45,21.71,6.2,13.25,11.86,32.39,29.43,33.42,17.69-1.49,7.92,22.19,23.46,18,3.43.83,6.08,1.93,9-1.28,7.22-4.46,8.66,3.68,23-5-7.32-5.79-11.26-24.68-6.12-29.33-9.57-2.35-4.78-14.46-3.43-20.25-10-13.94-25.44-20.32-40.54-27.7,1.23,12.85-2.21,16.19-14.43,11.46C398,334.35,400.7,328,398.13,323.67ZM238.39,455.21c5.22,8.47,10.27,16.57,15.49,25,12,19.58,6.11,44.37,17.89,63.71,1.76,2.14,2.63,4.59,6.08,2,5.7-4.4,6.64,7.3,17.23,5.58,6-2.49,8-5.2,7.76-11.59-.52-13.34-1.42-26.67-1.9-40-.22-6.21,1.82-7.82,7.94-7,1.6-10.51-4-22.13,2-31.21-5.73-3.47-9.33,4.76-23.31-4.06-9-1-18.7.13-27.89-.43C252.29,455.21,247,449,238.39,455.21Zm96.11-34.86c-4.95.45-11.58-2.09-13.49,3.46-.63,6.55-.95,13.15-1.1,19.73-.16,6.75,5,10.53,11.65,8.93,1.54-.38,3.79-.65,4.84.16,5.11,4,10.9,5.23,17.16,6.21,6.42,1.56,8.1-4.07,11.76-7.43,8.54-5.33,16.9-11.05,24.88-17,4.49-1.83,11.32-1.87,13.28-5.05,9.88-11.22,6.57-19.34,10.16-31.86,1-2.65.36-5.08-3.72-5.29-10.83-3-17.95-13.59-30.2-9.05-5.13,10.06-10.42,20.53-1.74,29.7l7.63-4.28c4,23.56-19.3,12.28-27,1-4.77,3.15-12.14,1.78-14.14-2.22a73.82,73.82,0,0,0-9.59.28C337.69,411.23,336.15,416.8,334.5,420.35Zm37.22,78c-9.59-10.53-17.88-19.74-24.48-32.19-4.08-6.43-4.14-6.38-11.45-3.38-6.79,1.54-13.79,2.45-20.7,3.35-2.77.3-4.5.78-4.23,4,.63,7.19,1.11,14.4,1.85,21.59,1.35,6.07-5.34,4.22-9.23,4.49,1.28,9.2-.34,18.62,2.77,26.36,5.69,3,3.38,7.71,2.93,12.05,4.21,2,12.18-1.34,13.65-5.69,1.87-5.52,3.14-5.94,8.84-4.51,10.67,4.6,18.24-4.65,24.72-11.6C361,507.06,363.44,499.49,371.72,498.35ZM483,324c7.51-6.8,13.45-12.66,19.92-17.88,11.27-7.78,23.62-14.17,31.27-26.15,8.78-9.66,13.15-21.46,18.63-33.09,6.24-9.18,10.05-19.35,7.79-30.78-4.77.27-9.21,4.94-13.37,5.27-7.15-.69-13.58,1.79-19.35,4.65-4.8,2.37-8.74-1.48-12,0-6.4,4.11-13.13,4.73-19.71.66l-.72,1.09c4.81,2.89,5.8,9.28,12.62,10.77,9.62,2.11,18.32,7.92,28.74,7.15,1-.07,2.11.89,3.5,1.53-7.57,8.39-14.72,16.15-21.66,24.09-2.31,2.65-4.89,3.26-8.26,3.39-7.62.27-14.05,4.93-20.6,8.31C476.47,291.17,483,310.8,483,324ZM421,278c9.44,6.73,10.74,20.57,2.8,27-2.22,1.8-2.43,3.35-.52,5.82,1.41,2.58-.46,8.76,1.71,11.06,10.13,8.89,25.19,10,32.37,22.45,1.3,2.28,3.88,4.06,6.44,1.48,5.53-5.55,10.75-11.41,16.22-17,4.5-3.48-2.26-6.53-2-10.52,2-11.11-3.21-28,6-35.66-5.21-4.56-9.72-3-13.89,1.09a23.73,23.73,0,0,1-24-3.35C439,274.85,428.38,275.08,421,278Zm-60.47-8.56.34-2.06c-5.49-5.67-10.15-12.84-16.12-17.64-1.49-4.21-4.76-5.61-8.31-7.47-4.24-2.23-10.68-4.18-5.85-11.5.12-.18-2.66-3.19-3.5-2.94-6.46,2.5-12.72,5.94-19.06,8.81-4.1,2.14-10.79-1.55-12.75,5.67-7.49,1.12-14,6.63-20.44,10.63-7.77-.91-11.43-.57-15,7.24-1.84,2.95-4,5.56-1.06,9.53,4,5.36,7.18,11.32,10.33,16.39,6.15-5.42,11.47-7.58,19.44-7.22.29-7.07,8-13.47,14.61-9.47,7.4,4.83,12.66,5.58,21.55,3.3,13.07.94,9.93-7.34,18.57-2C347.7,264.37,354.45,270.21,360.55,269.44ZM346.5,460c5.8,9.3,8.52,19,17.35,24.49,4.31,8.29,11.3,13.27,20.44,14.43,10,1.68,12.35-1.58,15.5-9.87,1.55-4.46,6.16-7.95,6.11-13-.45-7.53-.07-15.41-.68-22.83-.28-1-3.27-1.28-5-2-5-4.07-12-3.5-16.77-8.16-2.54-1.7-20.44,12.1-21.5,15.49C358.44,465,352.77,460.41,346.5,460ZM259.61,207.73c.3,3.94,1.3,7.7-3,9.7-8.76,4.74-5.71,16.71-13.81,21.91-11.43,7-3.19,16.77-18.3,18.37-6,1.36-14,1.21-12.79,11.17-1.25,3-3.64,6.05,1.61,6.79,7.35,1,6.32,7.28,5.87,13,8,.85,15.81,2.68,23.78,2.63,8.73-.16,17.5-2.19,26,2.7-1.46-12.66-21.58-23.19-11.67-36.32,13.27-14.72-.75-16.61-3.13-26.25,2.56-5.71,7.55-5.26,13.84-5.26C257.22,214.6,269.37,210.82,259.61,207.73Zm-133-191.09c-6.56,11.79-18,17.53-28.79,24.33C83.56,50.19,92.31,60,83.7,67.6c-6.54,4.68-13.2,9.19-20.9,14.52,8.43-.48,15.65-.71,22.81-1.44,6.8-4.62,3.7-15.05,17.68-14.92,10.31.2,19.07-6.33,27.81-11,5.25-5.24,8.11-14.5,17.49-11.17,5-6.05-2.48-11.23,2.27-17.43.43-.62,0-1.86-.09-2.88C142.51,21.92,133.13,25.59,126.65,16.64Zm-16.58,247.2c-12.67-12.54,7.37-20.18,1.5-28.24-.73-1-.35-4.4-1.22-5-5.43,0-8.37,5-13.36-.67-5.87-6.93-13-5.94-20.37-4.41-6,1.26-6,1.89-1.92,6.53,1.13,1.28,2.37,3.8,1.83,5a31.3,31.3,0,0,1-5.72,8.16c-7,7.26,11.81,11,5.23,23.08C87.52,263,97.68,261.91,110.07,263.84Zm-14.3-40.13L94.71,225c5.84,3.84,10.5,4.19,17.25,1.54.39-3.84-1.91-10.51,4.86-10,7.53.63,16.11-3.28,23.19-.78,4.61,4.92,8.28,1.22,11.65-1.44,8.24-5.79-1.32-11.39-6.6-13.64-1.8-17.08-9.39-17.5-20.41-6.74-2.33,2.86-4.72,4.63-8,4.66-6.88,0-9.85,5.75-14.17,9.34C98.44,211.85,97.11,218.31,95.77,223.71Zm142.14,106c1.66-2.63,4.21-4.53,7.92-.92,3,.4,7.36-2.25,10-2.86.08-9.38-9-17.62.22-23.94-8.39-8.35-11.48-7.89-23-8.78,5.6,19.54-16.66,2.08-20.23,19.65-3.8,6.83,10.2,23.49,16.53,23.8C229.89,328.58,230.27,328.45,237.91,329.67ZM115,219.47c-2,11.17,4.8,21-3.15,29.76-2.27,3.12-3.29,6.35-.17,9.77,1.62,1.86,1,7.65,2.48,8.94,9.58.53,19-7.25,27.91-10-2.49-13.35,2.76-28.31-7.08-38.48ZM17.47,131.26c8.5-.55,15.57-1.14,22.65-1.43,5.82-.23,6.85-1,6.82-7,1.44-15,10.43,8.17,12.88-23.66,1.44-14,29.33,5.15,27.77-15.32C67.28,82.67,51,81.79,41.05,102.76,35.28,113.63,26,120.63,17.47,131.26Zm379.6,187,1.27,2.18c3.56-2.57,7.17-7.64,10.74-9.46,6.61.1,9.26-4.9,12.66-8.95,6.7-8,5.5-16.87-3-20.91-5.2-1.66-11.29,2.54-16.47,2.19-12.53-.71-8.13,6.53-9.42,14.76-2.73,7.92-8.12,15.23-9.33,23.51C388.15,321.46,392.55,319.28,397.07,318.27ZM65.75,207.32a121.42,121.42,0,0,1-31.46.15c-1.06-.05-3.14,1-3.1,1.27,1.15,9.09-17.31,3.45-4.87,14.75,1.8,2.25,3.33,6.2,5.32,6.42,5-.91,12.34-12,16.87-2.47,1.49,3.14,3.63,6.74,6.48,8.28,4.62,2.5,7.18,5.33,5.83,11.11l1.86.46,9.57-11.15c-2.53-6.52-4.75-12.23-7-18.17C70.64,214.63,66.06,210.74,65.75,207.32ZM46.41,246.86c1.67,8.6,16,21.56,25.88,23.53.78-2.4,1.57-4.79,2.36-7.21L64.41,248.81c-4.07,2-5.94.86-6.52-5.06-.61-4.75-6.2-5.46-7.48-.48L49,242.82c.47-2.82.95-5.64,1.37-8.14l-7.21-7.84c-4,3.5-12.62,5.13-11.5,11.79C33.41,245.88,37.59,248.09,46.41,246.86ZM241.46,40.44c-5.54-3.68-10.65-5.23-14.21-8.59,1.22-10.29,15.45-9.65,10.28-24l-6.17-3.13c-19.9,6.59-2,8.89-11.75,19.17-5.69,6.15-4.8,12.09,2,17.07,3.65,3.79,3.23,10.06,4.71,14.9l2.64.78C228.93,48.25,233.07,43.18,241.46,40.44ZM425.68,454.49c3.49-3.15,1.85-19,2.83-24.7,0-1.19-1.27-2.73-2.36-3.59-5.11-4-5-8.64-2.35-14,1.39-3.92-.74-18.33-6.8-18-2.55,7.41-.41,20.48-5,24.92-1.95,1.73-3.37,4-5.76,7,3.41,1.74,6.55,4.57,9.84,4.77C435.7,431.36,414.87,445.62,425.68,454.49ZM149.57,220.6c.53,7.05,3.73,12.91,5.23,19.5.35,5.05-2.44,10.39,1.25,14.83,6.53.13-4.64-16.76,5.71-23.79,6.18-5.47,6-13.32,0-19C156.56,209.55,152.47,218.78,149.57,220.6Zm269.92,90.11c-5.15,3-12.16,2.45-14.95,9.37-1,2.58-2.78,10.41-.88,11.46,4.53,2.18,8.24,4.08,12.94.35C407.59,324.05,425.51,321.47,419.49,310.71ZM139.77,220c2,5.56,3.6,9.85,5,14.22-1.55,7.12-1.69,15,.84,22.07.34,1,3.21,1.05,4.41,1.39,1.24-9.94,1.31-18.15-1.69-27.25C147.62,225,145,222.74,139.77,220Zm-112-9.56c1.24-10.2-14.68-2.9-21.15-3.36,4.13,3.66,11.61,1.62,11.86,8.42Zm355.73,136.1,1.68.49c5.67-5.26,9.12-7.41,4.54-15.19l-9.15,3.68C381.5,339,382.5,342.78,383.51,346.55ZM229.64,300.49c-.85-3.14-.76-6.16-2.21-7.46-2.93-2.62-9.69.16-11.67,3.9C212.77,303.12,225.35,299.68,229.64,300.49Zm160,242.31,2-.06c3.66-4.77,3.89-6.31-.55-10.61C386.37,536.45,384,537.39,389.63,542.8Zm1.86-213.64,1.48-.68c-.64-2-1.29-4-2.23-6.91-3.44,5-11.57,1.05-12.26,9.72L388.92,328Zm-363.8-130c-7-4.72-14.87-4.46-19.33,0Zm463.54,10.08-7.36,6.58c2.14,2.16,3.45,5.83,7.36,4.57Z"/><path d="M547,449.14c-3.54,15.47-8.41,30.67-17.5,43.91-8.15,9.26-7.7,30.89-18.08,36-10.89,1.28-27,6.95-27.51-10.39-.15-5.46-.37-10.72-3.17-15.57-3.51-6.13,9.18-12.56,11.93-17.91.91-1.11,1.52-3.4,1-4.6-3.49-7.93.8-15.69.3-23.55-.12-1.89,1.61-4.32,3.16-5.8,9.22-9.92,15.55-4.31,25.7-10.61v-5.09h4.95c-.8-15,2.66-6,8.93-14,2-4.69,6.58-14.39,11.49-6.35,5.63,8.66,4.5,18.89,4.56,28.73C552.77,450.94,552.44,451.17,547,449.14Zm-3.49-31.2c-2.12,3.81-3,9.15-6.54,11.08-8.17.27-.69,8.85-7.85,11.74-3,2.18-5.25,5.87-9.26,7.23-.45,6.95-9-1.68-14.37,2.56-3.1,2.3-9.74,3-7,10.19,1.17,3.58-2.5,9-1.55,12.89,3.31,8.26,1,16.55-6.08,21.56-9.58,4.63-3.69,14.54-3.17,22.48.77,6.92,4.77,9.62,11.54,7.78,3.47-1.22,8.9.43,11.72-2.18,2.74-6.22,5.25-12.54,7.76-18.86,1.7-6.26,5-11.73,8.07-17.38,2-3.92,2.79-9,5.78-11.73,9.83-5.68,4.3-35.71,14.91-31.39C549,435,551,426.11,543.53,417.94Z"/><path class="cls-1" d="M346.5,460c6.25.42,11.95,5,15.49-1.47,1-3.35,19-17.19,21.5-15.49,4.78,4.66,11.77,4.09,16.77,8.16,1.69.75,4.68,1,5,2,.61,7.42.23,15.3.68,22.83.05,5-4.56,8.53-6.11,13-3.15,8.29-5.5,11.55-15.5,9.88a25.89,25.89,0,0,1-20.44-14.44C355,479,352.3,469.28,346.5,460Z"/><path class="cls-2" d="M241.46,40.44c-8.39,2.74-12.53,7.81-12.52,16.16l-2.64-.78c-1.47-4.84-1.06-11.11-4.71-14.9-6.78-5-7.67-10.92-2-17.07,9.75-10.25-8.12-12.61,11.75-19.17l6.17,3.13c5.16,14.44-9,13.72-10.28,24C230.82,35.22,235.9,36.75,241.46,40.44Z"/><path class="cls-2" d="M149.57,220.6c2.9-1.83,7-11,12.15-8.5,6,5.72,6.22,13.57,0,19-10.39,7.18.86,23.89-5.71,23.79-3.69-4.44-.9-9.78-1.25-14.83C153.3,233.51,150.1,227.65,149.57,220.6Z"/><path class="cls-2" d="M139.77,220c5.18,2.73,7.85,5,8.53,10.43,3,9.1,2.92,17.31,1.68,27.25-1.2-.34-4.07-.42-4.41-1.39-2.53-7-2.39-15-.84-22.07C143.37,229.86,141.74,225.57,139.77,220Z"/><path class="cls-2" d="M491.23,209.26v11.15c-3.91,1.26-5.22-2.41-7.36-4.57Z"/><path d="M360.76,571.05c-15.8-.5-7.92-20,4.54-18.95,5.66,0,9.45,2.81,9.43,7C374.71,565,367.51,571.08,360.76,571.05Zm-5.69-6.36c9.2,8.48,22.13-7.08,11.87-8.61C360.5,555.69,357.35,557.93,355.07,564.69Z"/></g></g></svg>