<svg xmlns="http://www.w3.org/2000/svg" viewBox="0 0 580.79 375.5"><defs><style>.cls-1{fill:#ffc22c;}</style></defs><g id="Layer_2" data-name="Layer 2"><g id="Layer_1-2" data-name="Layer 1"><path d="M46.93,11.47c.63-9.67-2.65-13.94,9.62-10C135.63,19.64,222.5,38.09,302.2,28c2.15-3.47,5-1.28,5.55,1.48,3.32,12.22,11.49,1.91,27.22,11.28,1.45.5,2.66,2.15,4.35,1.12,4.85-3,9.65.06,14.47,0,3.76-.4,4.49,3.85.74,5C349,49.72,343.21,52.14,340.31,59c13.12-3.39,1.55,9,19.19-1.81,10.68-10.92,18.57,8.37,29.41,1.51,13.19-8.94,35.52,8.11,21.44,10,3.63,3.76,10.37,2.38,11.54,8.31.88,4.51,4.53,8.83-.34,14.65,12.45-7,18.82,17.54,10.64,24.09-6.46,5,.73,12.37,7.33,8.82,6.89-4,29.92-16.16,28.23-25-5.2-15.44,29-.91,23.91-19.5,2.22-30.32,48.49-13,50.51-42.38.33-4.81.87-25.62,8.56-22.33,5.28,1.7,9.32-6.89,13.93,3.35,3,8.83,6.81,16.68,14.4,22.56,12.15,8.34-44.75,27.3-19.93,52.44.4-8.41,9.06-.09,5.23,3.32-1.93,2.15-4.59,3-7.2,4.1-12.89,4.4-6.68,13.51-21.5,18.16-9.46,4.11-4,8.26-6.17,15.34-7,12.81-4.71,28.17-11.29,41.07-.78,5.29,6.12,11.13,6.93,16.73-.58,15.83-24.78,30-31.4,43-2.14,7.4-9.21,10.86-13.17,16.82-8.86,12.1-9.25,25.85-.07,38.22,8.34,9,11.15,21,17.46,31.14,4.61,4.69,4.83,33.29-2.54,31.49-3.12-.47-7.26.95-8.77-3.46-7.85-11.2-20.94-18.42-26-31.79-2.09-5.41,2.76-14.36-4.36-17.41-7.41-7.4-14.1-12.59-24.23-4.55-5.77,3.6-12-10.45-21.86-6.16-6.75,3.85-29.43-.91-30.45,5.36-.13,2.89-2.41,6.83,1.92,9.09,5.16,2,1.43,9.34-2.95,5.45-5.9-4.62-13.27,5.58-21.89-.68-3.72-3.22-7.39-5.88-12.8-3.11-14.86-.09-22.22-5.46-35.08,8.05C295.08,325,275,327.17,282.7,352.56c2.51,10.92-9,2.4-14.07,2.3-10.24-1.13-13.25-8.63-14.9-16.92-4.44-8.76-10-16.5-14.72-25.19-4.78-9.57-18.57-15.45-24.62-3.95-7.5,12.24-22.12-9.3-25.4-16.62-6.85-14-14.21-23.37-28.58-22.21-9-.62-3.16,7.14-16.06,4.39-26.55-.23-47.93-15-68.93-29.05-9.69-6.39-26.55,3.55-26.9-13.37-.25-1.34-.57-3-1.49-3.83-6.06-5.29-9.31-13.29-17.28-16.83-7.07-3.14-13.55-7.28-12.66-16.81-2.74-8.15-7.55-15.29-7.4-24.7-.55-10.59-4.11-21.46-8.64-31.18.69-10.87-3.51-22,1.28-32.59,5.25-11.09,1.06-24.23,8.13-34.44C46.37,7.6,4.57-7.11,46.93,11.47ZM177.76,268.81l-.62,1.55c5.43,7.22,13.5,13.07,16,22.05,1.47,6.75,13.21,22,19.85,13,8.58-11.66,21.68-5.89,28.19,4.89,4.82,8.5,10.37,16.71,15,25.09,1.41,9.94,6.44,16.41,16.89,17.71,5.48,1.39,8.45,1.08,5.42-5-3.14-12.58,6.28-26.54,18.69-30.5,5-1.58,9.29-4.26,11.49-8.85,2.44-9.06,11.32-.63,14.23-9.49,7.14-17.1-5.36-25.09-4.18-42.8,1.65-7-14.85-11.38-19.74-8.84-10.69,2.6-49.57-3-48.93-17.34-.77-5.2,4-20.92-3.49-20.56-6.85.5-27.11-5.56-26.68,4.87-.93,14.55-2.31,29.07-3.06,43.62-.72,13.75-1,14.11-14.78,12.53C194,269.89,185.86,269.46,177.76,268.81ZM21.09,196.58c-4.16,9.62,26.3,14,31.15,37.13.22,2.65.88,4.62,4,4.93,32.78,2.89,15.8,6.13,26.79-10.73,4.91-7.55,2.67-14.18-1.89-20.83C68,188,55.09,168.71,41.9,149.63c-10.55-9.91,14-46.58.3-47.58-7.6-1.73-15.11-3.84-22.62-5.92-9.9-2.75-9.88-2.81-12.82,6.67C1.07,114,4.33,126,4,137.69c5.75,10.39,7.75,22.65,9.62,34.11C10.56,181.09,20.77,187.82,21.09,196.58ZM208.38,84.09c3.75.06,6.69-.11,7-5.19.78-14.36,1.82-28.72,2.94-43.06.26-3.21-.89-4.23-3.9-4.47a889.56,889.56,0,0,1-99.16-13.54c-3.76-.73-4.83.59-5.71,3.9-5.71,18.2,14.41,23.79,8.94,35.4-4.64,8.33,5.65,3,5.71,13.43,1.94,13,12.55,12.93,19.93,8.61A12.89,12.89,0,0,1,153,77.46C171.46,79.75,189.92,81.9,208.38,84.09Zm-6.14,183.26c10.36.37,10.22.36,10.87-8.73q1.88-26.56,4.11-53.09c.31-3.51-1.06-4.75-4.21-4.93-17.54-1-35-2.65-52.43-4.84-4.73-.59-7,1.16-7.4,6.07-2.3,21.22-5.46,42.35-8,63.54-1.43,3.68,2.27,7.79,5.36,4.49,4-7.54,12.26-1.36,18-3.11C179,262.67,192.09,267.61,202.24,267.35Zm-66.19,2.53c5,1,5.49-3.23,6-7.36,2.57-20.61,5-41.24,7.85-61.8.69-4.95-1-6.37-5.34-7q-19.87-2.82-39.68-6c-3.74-.62-5.65.43-6.4,4.16-.54,2.7-1.3,6.92-4.11,6.58-6.48-.8-4.45,3.51-5.09,6.54-3.16,8.51,3.38,14.75,0,19.6-3,4.79-8.42,8.88-5.17,15.8-.31,3.89-4.47,4.72,1.06,7.64C102.17,256.53,116,269.3,136.05,269.88ZM84.79,205.94a20.73,20.73,0,0,0,1-3.29c-.51-15.68,8.6-3.21,9.38-12.15q6-34.2,12-68.42c.68-3.86-.62-5.9-4.66-6.72C87,112.22,71.6,109,56.24,105.44c-4.25-1-5.67.37-6.54,4.3-.72,10.11-11,29.76-5.44,37.45C58.06,167.11,70.69,185.79,84.79,205.94Zm144.65-48.17h1.5c-.35-7.89,2.39-13.8-8.06-13.2-18.72-1.19-37.4-2.78-56-5.11-3.76-.47-6,.58-6.47,4.89-1.5,13.68-3.11,27.36-5.08,41-.66,4.56.14,6.32,5.08,6.92,20,2.46,40.08,4.15,60.18,5.48,7.75.52,8.56-.17,8.79-8.26C229.67,178.9,229.44,168.33,229.44,157.77ZM213.91,93.66c1.57-6.08-2.92-6.64-7.69-7-17-1.13-33.86-2.93-50.62-5.69-5.59-.92-7.56,1-8.25,6.22-1.74,13.08-3.63,26.14-5.75,39.16-.75,4.62.6,6.34,5.32,7,19.4,2.83,38.91,4.46,58.38,6.47,4.09.42,5.37-1.32,5.62-4.94C211.86,121.39,212.88,107.84,213.91,93.66ZM74.52,106.36c3.72.62,4.7-1.94,5-4.62,1-8.63,5.63-16.68,4.08-25.74-.31-1.86,1.15-3.3,2.32-4.7C110.16,45.41,57.6,54.94,44.75,49.63c-14.77-2-5.76-10.48-15-11.88-2-.1-2.73,1.56-3.18,3.07A166.81,166.81,0,0,1,10.47,78C5.82,86,8,89.43,17,91.93,36,97.35,55.26,101.92,74.52,106.36Zm72.26,84.44c3.9,0,4.63-2.38,5-5.51,1.4-11.5,3-23,4.46-34.47,1.62-12.33,1.63-12.33-10.66-14-16.57-.27-.21-13.65-11.8-16-5.73-.82-11.44-1.84-17.14-2.85-3.41-.61-5.2.61-5.82,4.13-3.31,18.69-6.75,37.36-10.14,56-.54,3,.18,5.21,3.52,5.76Q125.5,187.37,146.78,190.8ZM350.84,45.09c-10.7-1-17.83,1.57-26.77-5.76-6.41-.63-13.81,2.29-17.9-5.1-.87-1.4-1.8-.92-3-.8C297.05,35,284,30.64,286.44,41a250.7,250.7,0,0,1,4.23,39c6.82,38.1-9.38,26.49,46.09,26.63,5.29.77,6.34-3.52,1.59-5.81-6.58-5-13.35-9.55-12.49-19.68.25-3-.39-5.86,2-8.12,4-3.06.94-8.79,4.65-11.88C338.3,56.23,341.92,49.07,350.84,45.09ZM272.39,198.85v.35q16.47,0,32.94,0c2.88,0,6.13.05,5.49-4.22-1.5-10,1.73-20.73-5.24-30-1.68-2.24-2.59-4.2-5.56-4.12-20.36.51-40.69-.91-61-1.17-3.42,0-5.19,1.13-5.32,4.76-.32,9.17-.73,18.34-1.31,27.5-.31,4.85,1.63,7,6.51,7C250,198.78,261.21,198.85,272.39,198.85Zm-140-114.56c-2.78.42-5.35,1.83-6.59-.84-1.75-3.75-4.94-6.86-5.14-11.33-.08-1.77-.08-4.05-2.18-4.53-7.15-1.64-5.36-6.41-3.68-10.72,3.79-10.9-15-18.29-8.83-36.37.51-1.69.45-3.88-2-4.32-2.73-.51-3.28,1.7-3.71,3.69-1.44,12.52-9,25.64-4.12,38,1.91,7.48-9.84,15.13-8.94,25.28C87.06,89.81,84.51,96.38,83,103c-.65,2.74-.06,4.78,2.94,5.5,16.12,3.89,32.51,6.32,48.87,8.91,3.15.5,4.77-1,5.21-4.22,1-7.12,2.13-14.21,3.27-21.31C145.2,84.26,137.27,85.11,132.42,84.29Zm157,12.8h.26c.81-9.21-.37-21-12.22-20.18-17.36,0-34.7-.59-52-2.17-5-.45-6.9,1.52-7.2,6.21-.54,8.56-1,17.13-2,25.63-.56,4.69,1.23,5.87,5.48,6.19,21.35,1.59,42.89.8,64,5C292.53,119.38,288.4,101.29,289.46,97.09Zm-16.77,60c8.83,0,15.82.07,22.81-.05,1.5,0,4.53.66,3.48-2.38-8.32-25.87-1-33.85-32.78-36.54-12.15-.71-24.33-.68-36.5-1.41-13.38-.8-13.4-.47-15,12.95-1.89,11.32,1.53,11.61,11.89,11.75,7.67.27,8,.42,8,8.35,0,4.21,1.26,6.21,5.78,6.28C251.78,156.18,263.12,157.59,272.69,157.06Zm-9.94-83.33c37.53.21,23.34,4.06,20.72-34.61-.42-3.41-1.5-5-5.05-5.13-65.69,1.2-54.7-15.73-58.92,31.74-.47,4.62,1.3,6,5.61,6.07C237.66,72,250.17,73.59,262.75,73.73Zm50.9,156.8c.93-7.05-2-15.36-2.65-23.9-.26-3.25-2.58-3.65-5.15-3.65-26.76,0-53.52.28-80.25-1.32-4.82-1.12-4.81,4-.07,3.32,26.88,3.73,30.54-8.11,27.63,24.18-.1,2.43-.14,4.86,2.63,6.12,15.13,7,32.19,11.38,48.81,8,3.11-.72,6.52,3.77,8.53.13C314.74,239.28,313.27,235.66,313.65,230.53ZM365.52,211c7.25-9.68,3.91-17.22-4.12-24.82-2-1.3-4.44-3.18-4.08-5.61,1-7.07-5.19-10-8.23-14.41-8-7.81-5-16.05-10.92-15.46-10.76.68-21.49,1.86-32.3,1.72-1.93,0-3.75,1.38-2,2.82,18.57,19.14,2.51,53.62,16.28,51,11.76-.79,23.54-1.14,35.29-2C360.31,204,364.91,203.34,365.52,211ZM29.58,8c-1,8,2.55,15,.47,22.23A3.13,3.13,0,0,0,30.72,33c4.2,2.93,7.88,6.09,8.12,11.75,0,.33,1,1,1.43.89,6.62-1,12.31,3.51,18.73,3.31,9.2-.29,18.35-.52,27.27,2.34,2.47.8,4.07.25,4.65-2.79C100.08.5,105.23,19.33,54.81,4,47,1.31,52.32,16.31,48.07,20.56c-.68,5.46-5.59,3.85-5-.72C44.45,11.42,35.39,10.75,29.58,8ZM442.82,278.2c4.78-.36,10.77-.65,16.73-1.28,9.33-1,16-15.91,11.07-23.83-6.47-10.41-16.07-17.73-25-25.55-2.68-2.35-4.71-6.94-9.52-6.4-4.21,1.52-18.8-.47-17.17,6.2,2.77,9,4.22,18.38,8.66,26.76C432.73,265.66,420.92,278,442.82,278.2ZM336,147.33c20.07,2.08,4.24-7.54,14.32-12.86,13.62-7.27-7.18-12.39-6.47-21.8-.08-3-2.47-3.1-4.84-3-13.33.64-26.66,1.51-40,1.68-15.67,1.51.51,22.12.15,30.69.63,5.81,3.07,6.71,8,6.71C316.92,148.77,326.66,148.2,336,147.33Zm50,16.9c-1.18-12.51-1.59-22.53-3.19-32.35-.66-14.52-11.78-9.35-22.06-9.4-2.25.11-4,.29-2.86,3.45,3.8,10-8,9.52-7.3,16.39.41,2.22-.91,4.25-1.86,6.23-8.42,12.91,9.29,16.48,12.18,24.5-1.41,10.12,3.5,9.63,8,15.08,1.25,2.13.46,6,5,5.26,4.17-.7,7.66-2.78,8-6.86C382.6,178.13,389.26,170.64,386,164.23Zm-30.8-44.86c29.1-3.32,20.37,4.43,22.95-22.48.27-1.77,1-3.88-1-4.87-3.46-1.72-2.93-3.92-1.87-6.92,1.76-5-1.43-12.15-6-12.48-9.23-.67-16.94-5.25-25.23-8.39-9.38-3.17-9.52,4.78-13.06,10.49-9.4,19.41,17,19.71,16.71,38.6C348,118.11,351.8,119.15,355.22,119.37ZM332.3,255.25c3.59-1.35,20.24,1.72,19.79-4.83-.44-5.95,3.44-10.51,4.81-15.75,1.91-7.33,12-14,3-22.74,1.7-5.43-2.29-4.22-5-4.08-12,.62-23.9,1.45-35.86,2.05-3.09.16-4.43,1.21-3.72,4.42,1.94,8.88,1.14,17.9,1.32,26.88C316.79,249.74,322.59,255.46,332.3,255.25Zm136.59,20c-1.57,6.84-4.91,6.3-9,5.79-8.52-1.28-18.62,2.48-26.77.7-9.49-3.91-18.49-.42-27.68.18-4.44-.95-4.18,4.37-.09,4.62,20.89-4.24,21.41,12.48,31.42,3.14,9.59-8.67,18.12,7.42,26,11.61,1.43,1,1.59,3.33,1.26,5.07-1.18,6.29,5.94,10.72,3.7,17.33-.55,3.15,5.81,2.76,6.6,5.27,2.33,8.3,10.76,11.4,15.21,17.92,10,9.69,9.35-21.29,4.4-25.62C484.44,305.68,478.23,292.11,468.89,275.23Zm-70.06,12.55c-2.36-7.94-1.62-8.92,5.95-9.55,4-1.12,21.42,0,21.23-4.6,1.13-14.13-4.62-24.78-8.42-37.79-3.58-11.67-1.64-12.49-15.76-10.55-11.5,1.58-11.88,1.41-12.7,13-1,14.33-1.42,28.71,1,43,.25,1.44.27,5,1.66,4.07C395.45,283.05,396.12,286.92,398.83,287.78Zm-13.11-44.53c-1.09-5.12,3.43-16.9-5.05-16.1-5.8,1.53-13.9-1.14-18.13,3.79-16.37,26.12,3,28.3-8.75,45.4-5.53,12.68,20.56-1,20.47,8.37-.1,2.87-.09,6.52,4.05,5.37,3.52-1,10.1.36,8.56-6.93C384.05,269.9,385.15,256.57,385.72,243.25ZM433.3,216c13.86,3.33,24.27-11,37.6-2.52,6.67,1.81,12.26-2.77,18.53,3.67,3.82,3.05,11.48,9.29,14.19,1.87.87-6.36,13.09-10.51,9.16-16.84-6.31-6.88,3.52-3.35,6.62-5,1.38-.43,2.63-1.5,2.41-3-1.06-4-8.71,1.83-10.35-2.88-1.29-4.39,6.39-1.69,5.54-6.18-18.5,2-36.85,6.64-55.3,9.56a6.5,6.5,0,0,0-4.81,3.18C450.53,205.41,440.72,209.38,433.3,216Zm33-104.26c11.4-.12,23.16-4.28,34.57-6.29,12.68-3.92,10.64,5,19.55,6.48,3.15.17,6.7-.08,6.4-4.69-.93-14.35-4.66-28.15-8.64-41.88-3.72-11.22-25.21,7.21-22.47,16,.7,6.49-2.76,11.18-9.32,12.21-25.51,1.23-8.72,3.34-17.1,13.18C468.18,108.29,466.05,109.24,466.32,111.76Zm-1.17,4.59c-6.17-1.37-7.15,1-6.29,5.38,3.23,7.3-1.16,26.12,11.38,22.81,6.65-3,53.88-6.13,45.16-17.22-6.77-8.81,4.05-22.26-15-18.16C488.31,111.73,476.18,114.11,465.15,116.35ZM339.53,258v.33c-34.11-1.83-7.08,16-11.94,33.07-.78,2.66-1.78,7.61.29,8.41,15.59,8.23,15.16-3.6,27.28,3.63,9.71,8.72,8.69,0,17.7-1.7,2.86-4.55-8.56-2.8-8.21-7.41-.66-4.54,6.66-2.65,5.55-7.16-3-7.58-25.43,6.09-20.67-8.4C355.72,264.94,359.19,256.8,339.53,258Zm117-119.75c0-5.53,1.17-23.72-7.22-15.17-5.66,4.95-11.85,7.26-19.24,4.24-4.31-1.31-16.22-1.27-15,5.33,2.44,9.15-.39,23.48,7.05,29.81,6.15,5.83,14,.95,20.7,3.74,1.71.7,1.79-5.93,4.67-8.13C454.24,150.56,458.1,148.73,456.55,138.26Zm-36.1-53.88c-.81-2.15-1.54-5.11-3-7.67-1.56-2.78-11-5.07-11.57-3.12-1.1,3.49-4.37,4.52-6.27,7-13.27,15,.73,26.15-2.53,41.47-.92,3.06.43,4,3.31,3.79,17.82-.07,36.11-5,30.35-27.14-3.65-11.39-7.3,4.36-13.2,0C413,93.93,421,90.23,420.45,84.38Zm32.68,112.75c-25.35.85-52.31,5.17-77.93,9.36-2.69.57-4.36,1.55-5.14,4.18-.93,5.47-8.65,15.79,2.35,13.6,14.34-1.14,28.64-2.69,43-4,6.79-.64,13.63-.93,17.22-8.36C439.15,207.05,446.4,202.23,453.13,197.13Zm-72.81,5.49c14.79-5.08,32.41-5.35,48.11-6.82,9.06-.37,13-6.87,18-12.4,2.52-3.33-5.91-7.45-6-12.12-.64-2.24-2.63-2.63-4.88-2.39-10.41,2.57-14.84-5.25-16.27-2.37-1.53,4-6.58,4.51-8.15,8.5-3.16,8.08-10.71,9.14-17.77,10.15-11,.68-7.4,11.27-14.73,12.36C373.29,197.29,375.1,203.61,380.32,202.62Zm74.91-18c-3.58-1.85-10.85,4.21-10.24,6.76,1.77,3.47,5,1.32,7.39.92,19.95-4.14,41.82-5.45,61-11.48,2.18-2.35-2.12-4.58-2.43-7.28.25-6.58-2.56-10.3-9-11.08-9.33-1.15.8-10-8.73-11.32-4.59-1.05-7.49.69-9.33,5.46-2.47,6.42-10.57,8.73-12.26,16.22C469.73,181.21,463.8,185.12,455.23,184.67Zm-40.65-27.28c-.39-3.24-.95-9-1.78-14.72-2.13-14.62-2.18-14.61-16.82-12.91-7.42.86-9,2.63-8.73,9.89-.35,13.38,5.81,26.76-.24,39.92-.94,1.83.53,2.18,2.21,2.31C401.74,181.66,413.88,171.62,414.58,157.39Zm135.2-83.08c1.89-4.21,6.08-7.4,7.2-10.27,1.62-10.36,26.29-15.83,17.74-21.82-11.69-6.42-9.28-25.83-17.38-24.9-15.34.84-9.59,16.44-13.05,26.58C539,55.31,546.52,64.22,549.78,74.31Zm-90,140.58c-3.32-.5-20.14,3.38-12.83,9,7.29,6.14,14.27,12.71,20.94,19.53,8.15,11.55,19.23-1.37,23.07-10.08,3.13-8.35,1.19-12.7-7.28-15.64-4.79-2.11-10.23,2.23-14.59-.8C466.59,214.69,463.62,214.78,459.79,214.89ZM466,148.54c-9.34,1.89-14.32,8.84-18,16.76-10.92,12.64,15.84,23.41,20,8.3,2.77-14.36,6.86-10.13,13.36-19.44,3.15-3.53-.56-7-3.49-3C469.83,159.35,474.34,146.26,466,148.54Zm-85.7-39.43c1.87,4.61,2,26.17,10.91,16.81,11.09-15.62-12.92-30.83,8.46-50.21,2.46-2.34,4-9.61-1.71-6.9-5.91,3-19,5.56-16,14.4C384.76,92.34,380.72,99.69,380.31,109.11Zm23-44.11c2.15,1,7.72-1.07,4.05-2.91-6-.45-11.94-4.53-18.21-.1-10,6.83-18.53-8.62-30-1-1.72.88-4.52.9-4.45,3.28s3,2,4.73,2.79c6.11,2.82,14.37.52,18.63,7.88.75,1.29,1.72.23,2.32-.59C386.16,66.44,395.31,67.14,403.34,65Zm128-7c-15.36-.63-7,17.18-4.15,25.2.31,5.56,6.08,4.41,4.75-.89C529.17,70.24,538.76,57.63,531.33,58Zm7.42-2.9c-.7,10.14-12.57,39.91,7.48,28.16,1.53-1,2.83-2.47,1.6-4.53C543.72,71.8,542.6,63.72,538.75,55.11Zm-15.18,65.51c2.67-4.14-5.92-7-6.57-2.27-2.66,8.41,9.57,8,1.27,17.22-1.32,1.57-2.74,3.36-.24,5,2.3,1.48,4.77,1.33,6.07-1.36,2.17-4.53,5.62-9.18.2-13.9C522.93,124.07,523,122.47,523.57,120.62Zm26.2-34c-5.21,1.28-9.49,2.26-13.72,3.4-3,.82-8.12.35-6.87,5.32,1.2,4.81,5.35,1.22,8.09,1,4.88-.33,9.86-4.32,14.47.9.71.81,2,.33,2.47-.72C555.56,92.19,547.83,92.71,549.77,86.6Z"/><path d="M24.11,339.5c-3.31,2.77-10.22-2.13-5.67-4.23,9.06-1.52-4.39-10.26,12.81-18.88,1.81-.51,4.69-.5,4.57-2.95-.13-2.79-3.16-1.59-4.89-2.09-5.89,0-10.27-2.58-10.91-8.65-.52-8.11,16.34-4.9,6.72-14.49-6.32-7.41,3.68-7.37,6.72-12.24,9.67-16.12,27.95-4.65,42.43-7.05,5.1-.86,8.7,1,10.28,6.59,4.2,15,8.76,29.93,13.25,44.87.5,1.68,1.4,4.58,2.21,4.61,4.44-.06,7.52,4.09,11.48,4.18,8.69-9.34,12.9,1.79,18.69,4.45,3.28,1.51,5.84,4.48,9.83,5.19s7.22,6.5,6,9.54-7.9,5.14-11,2.94c-5.69-4.07-12.45-6.09-17.86-10.93-7-6.29-15.72-9.28-25.48-6.48a3.48,3.48,0,0,1-2.34.13c-8-4.66-12.23,1.07-17,5.93-2.21,2.26-4.76,7.42-8.49,1-.61-1-1.85.21-2,1.15-.29,1.53.84,2.66,1.81,3.59,5.12,5,4.47,9.94-1.8,13.42-1.14.63-2.62,1.18-3.29.16-3.54-5.37-6-1.14-8,1.1-6.74,7.44-16.26,9.85-24.73,14.13-4.88,3.41-8.24-2.94-2.24-4.86,6.83-3.13,35.67-19.35,13.7-21.2-4,.47-5.1-.82-6-4.4C31.65,339.38,26.53,341.61,24.11,339.5Zm24.26,18.38.9.81c3.43-4,9.4-7.83,9.7-12.07.48-6.58,5.09-10.43,6.78-15.92.64-2.08,3.45-4.2,5.87-2.67,4.52,2.8-5,5.59-1.29,8.86,1.67,1.28,5.92-3.13,5.48-5-.59-9.46,12.88.48,18.13-1.7,3.17-.53,4.49-1.5,3.39-5.09-4.85-15.85-9.5-31.77-14.13-47.69-1.06-3.64-3.25-5.15-7-5.08-16.32,1.81-30.27-7.61-42.81,8.09-6.57,7-.7,8.39,2.32,12.75.89,2.22,4.42,4.07,2.11,6.73-1.95,2.23-5,2.41-7.6.39-1.64-1.28-2.94-.54-4.36.3-2.05,1.22-.88,2.93-.52,4.27,1.9,8.05,11.68-1.23,14.1,3.1,3.26,17.32-19.86,6.5-12.25,26.64.27,5.4,7.74.54,8.79,5.11C39.61,351.3,59.87,337.7,48.37,357.88Z"/><path d="M190.11,350.16c1.78-3.43,1-13.26,6.11-11.9,7.32,1.9,12.68,6.43,16.47,12.77,3.25,7.12-9.56,7.54-13,12C191.29,368.3,192,354.82,190.11,350.16Zm3.92-.28c1.06,2.68.18,12.56,4.61,9.58,2.56-3.55,13.34-3.45,9.42-9.36C203.6,343.79,195.36,338.3,194,349.88Z"/><path d="M172.85,320c5.94,1.06,11,4.88,16.71,6.9,1.88.65,3.23,2.9,1.45,4.9-5.32,6.34-9.84-1.77-16-1.2-3.88,0-6.08-4.67-7.46-7.59S170.39,320.49,172.85,320Z"/><path class="cls-1" d="M371,207.44c3-.59,7-1.36,11.8-2.2,7.9-1.39,20.45-3.43,36-5.2,10.24-1.16,21.74-2.2,34.33-2.91L433.4,211.44a19.51,19.51,0,0,1-3.74,4.49c-4.46,4-9,4.18-23.14,5.8-13.68,1.57-20.52,2.36-21.12,2.51-3.77,1-7.74.72-11.6,1.2-1.58.2-4.14.53-5.8-1a4.93,4.93,0,0,1-1.4-2.8C365.51,216.35,370.16,208.78,371,207.44Z"/></g></g></svg>