<?xml version="1.0" standalone="no"?>
<!DOCTYPE svg PUBLIC "-//W3C//DTD SVG 20010904//EN"
 "http://www.w3.org/TR/2001/REC-SVG-20010904/DTD/svg10.dtd">
<svg version="1.0" xmlns="http://www.w3.org/2000/svg"
 width="331.000000pt" height="320.000000pt" viewBox="0 0 331.000000 320.000000"
 preserveAspectRatio="xMidYMid meet">

<g transform="translate(0.000000,320.000000) scale(0.100000,-0.100000)"
fill="#000000" stroke="none">
<path d="M72 1588 l3 -1593 2 1588 3 1587 1585 0 1585 0 3 -1587 2 -1588 3
1593 2 1592 -1595 0 -1595 0 2 -1592z"/>
<path d="M230 2835 l0 -185 185 0 185 0 0 185 0 185 -185 0 -185 0 0 -185z
m318 3 l-3 -133 -132 -3 -133 -3 0 136 0 135 135 0 136 0 -3 -132z"/>
<path d="M337 2913 c-4 -3 -7 -42 -7 -85 l0 -78 85 0 85 0 0 85 0 85 -78 0
c-43 0 -82 -3 -85 -7z"/>
<path d="M717 3013 c-4 -3 -7 -15 -7 -25 0 -13 -7 -18 -25 -18 -20 0 -25 -5
-25 -25 0 -20 5 -25 25 -25 20 0 25 5 25 25 0 21 5 25 30 25 25 0 30 4 30 25
0 20 -5 25 -23 25 -13 0 -27 -3 -30 -7z"/>
<path d="M930 2995 c0 -23 -3 -25 -50 -25 -47 0 -50 -2 -50 -25 0 -18 5 -25
20 -25 16 0 20 -7 20 -30 0 -29 -1 -30 -50 -30 -48 0 -50 -1 -50 -29 0 -17 -5
-29 -12 -28 -39 1 -48 -4 -48 -28 0 -20 -5 -25 -25 -25 -25 0 -25 -1 -25 -80
l0 -79 -107 -3 c-100 -3 -108 -4 -108 -23 0 -14 8 -21 28 -23 26 -3 27 -5 27
-63 0 -56 -1 -59 -24 -59 -28 0 -36 16 -36 76 0 40 -2 44 -25 44 -22 0 -24 -4
-27 -57 -3 -55 -4 -58 -30 -61 -20 -2 -28 -9 -28 -23 0 -14 -7 -19 -25 -19
-18 0 -25 5 -25 20 0 15 -7 20 -25 20 -18 0 -25 -5 -25 -20 0 -15 7 -20 26
-20 22 0 25 -4 22 -27 -2 -20 -9 -29 -26 -31 -22 -3 -23 -7 -20 -85 3 -74 5
-82 23 -82 17 0 20 8 23 58 3 53 5 57 27 57 24 0 25 -3 25 -60 l0 -60 110 0
110 0 0 -25 c0 -25 1 -25 80 -25 l80 0 0 -50 c0 -49 1 -50 30 -50 29 0 30 1
30 50 0 49 1 50 30 50 25 0 30 4 30 25 0 24 -2 25 -77 26 -43 0 -106 0 -140
-1 l-63 -1 0 30 c0 31 0 31 55 31 54 0 55 0 55 30 0 30 1 30 55 30 52 0 55 1
55 25 0 23 3 25 50 25 l50 0 0 80 c0 72 -2 80 -19 80 -14 0 -21 8 -23 28 -2
21 -9 28 -30 30 -22 3 -28 9 -28 27 0 18 6 24 28 27 25 3 27 7 30 56 l3 52
-30 0 c-31 0 -31 0 -31 -55 0 -54 0 -55 -30 -55 l-30 0 0 80 0 80 29 0 c25 0
30 4 33 28 3 25 6 27 48 27 42 0 45 -2 48 -27 3 -24 8 -28 33 -28 26 0 30 -3
27 -22 -2 -17 -11 -24 -30 -26 -22 -3 -28 -9 -28 -28 0 -20 5 -24 30 -24 27 0
30 -3 30 -30 0 -25 4 -30 25 -30 20 0 25 -5 25 -25 0 -20 -5 -25 -25 -25 -21
0 -25 -5 -25 -30 0 -25 4 -30 25 -30 21 0 25 -5 25 -30 0 -25 -4 -30 -25 -30
-18 0 -25 -5 -25 -20 0 -15 7 -20 25 -20 21 0 25 -5 25 -30 0 -25 -4 -30 -25
-30 -20 0 -25 -5 -25 -25 0 -20 5 -25 25 -25 20 0 25 5 25 25 l0 26 108 -3
c102 -3 107 -4 110 -25 3 -22 1 -23 -77 -23 l-81 0 0 -30 0 -30 -85 0 -85 0 0
30 c0 23 -4 30 -20 30 -16 0 -20 -7 -20 -30 0 -23 4 -30 20 -30 14 0 20 -7 20
-24 0 -29 16 -36 85 -36 69 0 85 7 85 36 0 22 4 24 55 24 l55 0 0 -55 c0 -52
-1 -55 -25 -55 -20 0 -25 -5 -25 -25 0 -20 5 -25 25 -25 20 0 25 5 25 25 0 20
5 25 25 25 23 0 25 -3 25 -50 0 -47 2 -50 25 -50 23 0 25 3 25 50 0 47 -2 50
-25 50 -25 0 -25 1 -25 85 0 84 0 85 25 85 24 0 25 3 25 55 0 54 0 55 30 55
27 0 30 -3 30 -30 0 -30 1 -30 55 -30 54 0 55 0 55 30 0 29 1 30 50 30 49 0
50 -1 50 -30 0 -27 3 -30 30 -30 30 0 30 -1 30 -55 0 -52 1 -55 25 -55 24 0
25 -3 25 -55 0 -52 -1 -55 -25 -55 -20 0 -25 5 -25 25 0 21 -5 25 -31 25 -30
0 -30 -1 -27 -47 3 -44 5 -48 31 -51 21 -3 27 -9 27 -28 0 -23 -2 -24 -80 -24
-78 0 -80 1 -80 24 0 19 6 25 28 28 27 3 27 4 30 81 l3 77 -30 0 c-25 0 -30
-4 -33 -27 -2 -22 -8 -28 -28 -28 -20 0 -26 6 -28 28 -3 26 -6 27 -58 27 -54
0 -55 0 -52 -27 2 -22 9 -29 31 -31 l27 -3 0 -105 0 -104 -30 0 c-25 0 -30 -4
-30 -25 0 -21 5 -25 30 -25 27 0 30 -3 30 -30 0 -30 -1 -30 -55 -30 l-55 0 0
55 c0 52 -1 55 -25 55 -26 0 -26 0 -23 -82 l3 -83 48 -3 c39 -3 47 -6 47 -23
0 -14 7 -19 30 -19 27 0 30 -3 30 -30 0 -27 -3 -30 -30 -30 -25 0 -30 -4 -30
-24 0 -19 6 -25 28 -28 21 -2 28 -9 30 -30 3 -22 9 -28 28 -28 20 0 24 -5 24
-30 0 -25 -4 -30 -25 -30 -20 0 -25 -5 -25 -25 0 -24 -3 -25 -54 -25 -49 0
-55 -2 -58 -22 -2 -15 -11 -24 -25 -26 -19 -3 -23 1 -23 22 0 21 -5 26 -24 26
-18 0 -25 6 -28 23 -3 19 -10 22 -60 25 l-58 3 0 59 c0 60 0 60 30 60 25 0 30
4 30 25 0 21 -5 25 -30 25 -25 0 -30 -4 -30 -25 0 -20 -5 -25 -25 -25 -20 0
-25 5 -25 25 0 24 -1 24 -107 27 l-108 3 -3 28 -3 27 -160 0 -159 0 0 -30 c0
-27 -3 -30 -30 -30 -27 0 -30 3 -30 30 0 29 -1 30 -50 30 l-50 0 0 -139 c0
-137 0 -140 23 -143 14 -2 23 -11 25 -25 3 -19 -1 -23 -22 -23 -21 0 -26 -5
-26 -25 0 -20 5 -25 25 -25 20 0 25 5 25 25 0 24 3 25 55 25 52 0 55 -2 55
-24 0 -19 -6 -25 -27 -28 -22 -2 -29 -9 -31 -30 -3 -26 -6 -28 -53 -28 l-49 0
0 -55 c0 -52 1 -55 25 -55 21 0 25 -5 25 -30 0 -25 4 -30 25 -30 18 0 25 -5
25 -20 0 -18 7 -20 55 -20 54 0 55 0 55 -30 0 -25 -4 -30 -25 -30 -24 0 -25
-3 -25 -55 0 -54 0 -55 -30 -55 l-30 0 0 -80 0 -80 -50 0 c-46 0 -50 -2 -50
-24 0 -18 6 -25 22 -28 17 -2 24 -11 26 -31 3 -26 6 -27 58 -27 51 0 54 -1 54
-25 0 -20 5 -25 25 -25 20 0 25 5 25 25 0 20 -5 25 -25 25 -21 0 -25 5 -25 30
l0 30 135 0 135 0 0 -30 c0 -30 -1 -30 -55 -30 -52 0 -55 -1 -55 -25 0 -24 3
-25 55 -25 l55 0 0 -110 0 -110 24 0 c23 0 25 -4 28 -52 l3 -53 58 -3 57 -3 0
-54 c0 -48 2 -55 20 -55 18 0 20 7 20 55 0 54 0 55 30 55 30 0 30 1 30 55 0
52 1 55 25 55 21 0 25 5 25 30 0 27 3 30 30 30 27 0 30 -3 30 -30 l0 -31 78 3
c75 3 77 4 77 28 0 18 -6 26 -22 28 -15 2 -23 10 -23 23 0 13 -7 19 -24 19
-14 0 -25 7 -28 18 -9 33 2 42 53 42 48 0 49 -1 49 -30 0 -25 4 -30 25 -30 18
0 25 -5 25 -20 0 -18 7 -20 55 -20 54 0 55 0 55 -30 0 -30 -1 -30 -55 -30 -52
0 -55 -1 -55 -25 l0 -24 -132 -3 -133 -3 -3 -27 c-3 -26 -2 -27 55 -30 57 -3
58 -4 56 -31 -2 -28 -1 -28 50 -25 48 3 52 5 55 31 3 21 9 27 28 27 20 0 24 5
24 31 0 27 3 30 28 27 21 -2 28 -9 30 -31 3 -26 6 -27 58 -27 l54 0 0 85 0 85
50 0 c49 0 50 -1 50 -30 0 -27 3 -30 30 -30 25 0 30 -4 30 -25 0 -23 -3 -25
-50 -25 -49 0 -50 -1 -50 -30 0 -23 4 -30 20 -30 18 0 20 -7 20 -55 0 -54 0
-55 30 -55 30 0 30 1 30 55 0 52 1 55 25 55 24 0 25 3 25 55 0 55 0 55 30 55
l31 0 -3 -83 c-3 -81 -3 -82 -30 -85 -22 -3 -28 -9 -28 -28 0 -23 3 -24 60
-24 57 0 60 1 60 25 0 20 5 25 25 25 21 0 25 5 25 30 0 25 -4 30 -25 30 -24 0
-25 3 -25 55 0 52 1 55 25 55 20 0 25 -5 25 -25 0 -20 5 -25 25 -25 20 0 25 5
25 25 0 20 5 25 25 25 20 0 25 -5 25 -24 0 -19 6 -25 28 -28 21 -2 28 -9 30
-30 3 -28 2 -28 -52 -28 -56 0 -56 0 -56 -30 0 -25 4 -30 25 -30 20 0 25 -5
25 -25 0 -21 5 -25 30 -25 30 0 30 1 30 55 l0 55 54 0 c52 0 55 -1 58 -27 2
-22 9 -29 31 -31 21 -3 27 -9 27 -28 0 -17 5 -24 20 -24 18 0 20 7 20 55 0 54
0 55 30 55 30 0 30 -1 30 -55 0 -52 1 -55 25 -55 20 0 25 5 25 25 0 21 5 25
30 25 25 0 30 -4 30 -25 0 -21 5 -25 30 -25 25 0 30 4 30 25 0 23 3 25 50 25
47 0 50 -2 50 -25 0 -20 5 -25 25 -25 20 0 25 5 25 25 0 20 -5 25 -25 25 -24
0 -25 3 -25 60 0 57 1 60 25 60 21 0 25 -5 25 -30 0 -27 3 -30 30 -30 27 0 30
-3 30 -30 0 -25 4 -30 25 -30 21 0 25 5 25 30 0 25 -4 30 -25 30 -21 0 -25 5
-25 30 0 30 1 30 55 30 l55 0 0 -85 0 -85 105 0 105 0 0 55 0 55 -74 0 c-74 0
-75 0 -78 28 -2 21 -9 28 -30 30 -22 3 -28 9 -28 28 0 24 0 24 105 24 l105 0
0 -25 c0 -24 3 -25 61 -25 60 0 60 0 57 -27 -2 -22 -9 -29 -30 -31 -27 -3 -28
-6 -28 -58 0 -53 0 -54 30 -54 25 0 30 4 30 25 0 20 5 25 25 25 24 0 25 3 25
60 0 57 -1 60 -24 60 -18 0 -25 6 -28 23 -3 19 -10 22 -60 25 l-58 3 0 49 c0
49 1 50 30 50 23 0 30 -4 30 -20 0 -18 7 -20 55 -20 l55 0 0 185 0 185 -110 0
-110 0 0 25 c0 21 -5 25 -30 25 l-31 0 3 58 c3 54 4 57 31 60 21 3 27 9 27 28
0 23 -2 24 -80 24 l-80 0 0 30 c0 27 -3 30 -30 30 -23 0 -30 4 -30 20 0 18 7
20 60 20 53 0 60 -2 60 -20 0 -17 7 -20 50 -20 43 0 50 3 50 20 0 15 7 20 25
20 21 0 25 5 25 30 0 25 -4 30 -24 30 -19 0 -25 6 -28 28 -2 15 -9 28 -15 28
-7 1 -20 2 -28 3 -9 1 -15 11 -15 26 0 24 3 25 55 25 l55 0 0 55 c0 52 -1 55
-25 55 -25 0 -25 1 -25 80 0 79 0 80 25 80 21 0 25 5 25 30 0 27 3 30 30 30
l30 0 0 -84 0 -85 -27 -3 c-20 -2 -28 -9 -28 -23 0 -14 8 -21 28 -23 23 -3 27
0 27 23 0 23 4 26 28 23 25 -3 27 -7 30 -50 3 -43 5 -48 28 -48 23 0 24 2 24
75 0 73 -1 75 -25 75 -21 0 -25 5 -25 30 0 25 4 30 25 30 24 0 25 3 25 55 0
52 -1 55 -25 55 -20 0 -25 -5 -25 -25 0 -21 -5 -25 -30 -25 -30 0 -30 1 -30
55 0 54 0 55 -30 55 -23 0 -30 4 -30 20 0 15 -7 20 -25 20 -21 0 -25 5 -25 30
l0 31 83 -3 c81 -3 82 -3 85 -30 3 -22 9 -28 28 -28 24 0 24 2 24 85 0 84 0
85 -25 85 -20 0 -25 -5 -25 -25 0 -25 -1 -25 -85 -25 -84 0 -85 0 -85 25 0 20
5 25 25 25 l25 0 0 135 0 135 -25 0 c-21 0 -25 5 -25 30 0 30 1 30 55 30 54 0
55 0 55 -29 0 -25 4 -30 27 -33 21 -2 29 -10 33 -28 3 -17 12 -25 25 -25 18 0
20 8 23 83 l3 82 -111 0 -110 0 0 80 0 80 55 0 c54 0 55 0 55 -30 0 -30 1 -30
55 -30 l55 0 0 60 c0 57 -1 60 -24 60 -18 0 -25 6 -28 23 -2 16 -11 23 -30 25
-24 3 -28 0 -28 -22 0 -25 -3 -26 -55 -26 -54 0 -55 0 -55 -30 0 -27 -3 -30
-30 -30 -30 0 -30 1 -30 55 l0 55 -50 0 c-47 0 -50 -2 -50 -25 0 -24 -3 -25
-55 -25 -52 0 -55 1 -55 25 0 24 -3 25 -55 25 -54 0 -55 0 -55 30 0 25 4 30
25 30 l25 0 0 105 0 105 30 0 c25 0 30 -4 30 -24 0 -17 7 -25 25 -28 22 -5 25
-2 25 23 0 24 -4 29 -25 29 -24 0 -25 3 -25 54 0 52 -1 55 -27 58 -20 2 -29 9
-31 26 -3 16 -10 22 -28 22 -22 0 -24 -4 -24 -50 0 -47 -2 -50 -25 -50 -20 0
-25 5 -25 25 0 20 -5 25 -25 25 -20 0 -25 -5 -25 -25 0 -20 5 -25 25 -25 21 0
25 -5 25 -30 l0 -30 -140 0 -140 0 0 30 0 30 85 0 c83 0 85 0 85 24 0 19 6 25
28 28 19 2 27 9 27 23 0 18 -7 20 -55 20 -49 0 -55 -2 -58 -22 -5 -35 -52 -32
-52 2 0 23 -3 25 -49 25 -44 0 -50 -3 -53 -22 -3 -21 -9 -23 -85 -26 -83 -3
-83 -3 -83 23 0 21 -4 25 -31 25 -26 0 -30 -3 -27 -22 2 -17 11 -24 31 -26 21
-3 27 -9 27 -28 0 -22 3 -24 55 -24 54 0 55 0 55 -29 0 -25 -4 -30 -27 -33
-20 -2 -29 -9 -31 -25 -2 -15 2 -23 11 -23 9 0 22 -3 31 -6 13 -5 16 1 16 25
0 31 1 31 50 31 47 0 50 -2 50 -25 0 -17 6 -25 18 -26 9 0 33 -1 52 -2 30 -2
35 -6 38 -29 3 -24 0 -28 -22 -28 -21 0 -26 -5 -26 -25 0 -21 -5 -25 -30 -25
-25 0 -30 4 -30 25 0 18 -5 25 -20 25 -15 0 -20 7 -20 24 0 16 -7 27 -20 31
-27 8 -40 -1 -40 -30 0 -18 -6 -24 -27 -27 -20 -2 -29 -9 -31 -25 -3 -17 -10
-23 -28 -23 -19 0 -24 -5 -24 -25 0 -21 -5 -25 -30 -25 -25 0 -30 4 -30 25 0
20 -5 25 -25 25 -24 0 -25 -3 -25 -55 l0 -55 55 0 c54 0 55 0 55 30 0 25 4 30
24 30 19 0 25 -6 28 -27 2 -22 9 -29 31 -31 21 -3 27 -9 27 -27 0 -23 -3 -24
-82 -27 -82 -3 -83 -3 -86 -30 -3 -25 0 -28 28 -28 28 0 31 -3 28 -27 -3 -26
-7 -28 -55 -31 l-53 -3 0 30 c0 26 -4 31 -25 31 l-25 0 0 135 0 135 51 0 c49
0 50 1 47 28 -3 27 -5 28 -70 31 -23 1 -28 6 -28 26 0 24 -3 25 -55 25 l-55 0
0 55 0 55 55 0 c52 0 55 -1 55 -25 0 -20 5 -25 26 -25 24 0 25 2 22 48 l-3 47
-105 0 c-101 0 -105 -1 -108 -22 -5 -35 -52 -32 -52 2 0 23 -3 25 -50 25 l-50
0 0 -50 c0 -49 -1 -50 -30 -50 -26 0 -30 4 -30 26 0 22 -4 25 -27 22 -20 -2
-29 -9 -31 -25 -3 -20 1 -23 27 -23 l31 0 0 -58 0 -59 -52 1 -53 1 -3 -77 c-3
-78 -3 -78 23 -78 21 0 25 -5 25 -30 0 -25 -4 -30 -25 -30 -20 0 -25 -5 -25
-25 0 -21 -5 -25 -30 -25 l-30 0 0 129 c0 134 5 150 45 135 13 -5 15 7 15 79
l0 86 -27 3 c-20 2 -29 9 -31 26 -3 16 -10 22 -28 22 -22 0 -24 -4 -24 -50 0
-47 -2 -50 -25 -50 -24 0 -25 -3 -25 -55 0 -30 5 -56 10 -56 6 -1 16 -2 23 -3
9 -1 13 -36 15 -133 l3 -133 24 0 c21 0 25 -5 25 -30 0 -25 -4 -30 -25 -30
-21 0 -25 -5 -25 -30 0 -25 -4 -30 -25 -30 -21 0 -25 5 -25 30 0 25 -4 30 -24
30 -19 0 -26 7 -31 30 -5 23 -12 30 -31 30 -19 0 -24 5 -24 25 0 24 3 25 55
25 l56 0 -3 108 -3 107 -29 3 c-49 6 -76 -6 -76 -33 0 -18 6 -24 27 -27 24 -3
27 -8 30 -50 4 -48 4 -48 -26 -48 -26 0 -31 4 -31 25 0 21 -5 25 -30 25 -25 0
-30 4 -30 25 0 20 -5 25 -26 25 -22 0 -25 4 -22 28 2 21 8 27 26 26 20 -1 22
4 22 58 0 55 -1 58 -25 58 -20 0 -25 5 -25 25 0 24 3 25 55 25 52 0 55 1 55
25 0 24 -3 25 -55 25 -52 0 -55 -1 -55 -25z m590 -105 l0 -30 85 0 c84 0 85 0
85 -25 0 -14 -6 -25 -12 -26 -24 -1 -133 -1 -145 0 -7 0 -13 12 -13 26 0 18
-5 25 -20 25 -16 0 -20 7 -20 30 0 23 4 30 20 30 16 0 20 -7 20 -30z m1030 0
c0 -25 -4 -30 -25 -30 -21 0 -25 5 -25 30 0 25 4 30 25 30 21 0 25 -5 25 -30z
m-1300 -60 c0 -25 -3 -29 -22 -26 -16 2 -24 11 -26 29 -3 23 0 27 22 27 22 0
26 -4 26 -30z m214 -26 c9 -3 16 -17 16 -30 0 -17 6 -24 20 -24 19 0 20 -7 20
-104 l0 -105 28 -3 c21 -2 28 -9 30 -30 3 -22 9 -28 27 -28 18 0 24 6 27 28 2
21 8 27 28 27 20 0 26 -6 28 -27 3 -27 6 -28 58 -28 53 0 54 0 54 -30 0 -25
-4 -30 -24 -30 -15 0 -26 -7 -29 -20 -3 -14 -14 -20 -31 -20 -22 0 -26 -4 -26
-30 0 -30 1 -30 55 -30 52 0 55 -1 55 -25 0 -20 -5 -25 -24 -25 -19 0 -25 -6
-28 -27 -2 -22 -9 -29 -30 -31 -28 -3 -28 -2 -28 52 l0 56 -55 0 -55 0 0 80 0
80 -49 0 c-47 0 -50 2 -53 28 -2 21 -9 28 -30 30 -27 3 -28 6 -28 58 0 54 0
54 -31 54 -30 0 -30 1 -27 48 3 43 5 47 31 50 20 3 27 9 27 26 0 34 12 42 44
30z m986 -50 c0 -51 1 -54 25 -54 20 0 25 -5 25 -25 0 -20 -5 -25 -25 -25 -21
0 -25 -5 -25 -30 0 -25 4 -30 25 -30 34 0 37 -47 3 -52 -17 -2 -24 -11 -26
-30 -3 -27 -2 -28 47 -28 50 0 51 -1 51 -30 0 -25 -4 -30 -25 -30 -18 0 -25
-5 -25 -20 0 -15 7 -20 25 -20 21 0 25 -5 25 -31 0 -30 -1 -30 -47 -27 l-48 3
-3 78 c-3 74 -4 77 -27 77 -22 0 -24 5 -27 53 -3 48 -5 52 -30 55 -24 3 -28 0
-28 -22 0 -20 -6 -25 -27 -28 -22 -2 -29 -9 -31 -30 -3 -22 -9 -28 -27 -28
-18 0 -24 -6 -27 -27 -3 -26 -7 -28 -50 -31 -40 -3 -48 -6 -48 -23 0 -14 -7
-19 -30 -19 -29 0 -30 1 -30 50 0 49 1 50 30 50 27 0 30 3 30 30 0 29 1 30 50
30 47 0 50 2 50 25 0 24 3 25 55 25 l55 0 0 55 c0 54 0 55 -30 55 -25 0 -30
-4 -30 -25 0 -20 -5 -25 -25 -25 -20 0 -25 5 -25 25 0 20 5 25 25 25 20 0 25
5 25 25 0 21 5 25 30 25 25 0 30 4 30 24 0 29 11 34 68 34 l42 -1 0 -53z
m-705 -84 l0 -75 -82 -3 -83 -3 0 81 0 81 83 -3 82 -3 0 -75z m-765 5 c0 -21
5 -25 30 -25 27 0 30 -3 30 -30 0 -27 -3 -30 -30 -30 -27 0 -30 3 -30 30 0 25
-4 30 -25 30 -20 0 -25 5 -25 25 0 20 5 25 25 25 20 0 25 -5 25 -25z m1090 0
c0 -21 5 -25 30 -25 25 0 30 4 30 25 0 18 5 25 20 25 15 0 20 -7 20 -25 0 -18
-5 -25 -19 -25 -14 0 -21 -8 -23 -27 -2 -22 -9 -29 -30 -31 -25 -3 -28 0 -28
27 0 28 -3 31 -30 31 -25 0 -30 4 -30 25 0 21 5 25 30 25 25 0 30 -4 30 -25z
m-1360 -140 l0 -55 -80 0 -80 0 0 30 c0 30 1 30 55 30 52 0 55 1 55 25 0 20 5
25 25 25 24 0 25 -3 25 -55z m2068 -27 c2 -20 9 -28 23 -28 14 0 19 -7 19 -30
0 -23 -4 -30 -20 -30 -17 0 -20 -7 -20 -50 0 -43 3 -50 20 -50 15 0 20 -7 20
-25 0 -23 -3 -25 -50 -25 l-50 0 0 74 c0 74 0 75 -27 78 -22 2 -28 8 -28 28 0
20 6 26 28 28 23 3 27 8 27 33 0 27 3 30 28 27 21 -2 28 -9 30 -30z m-2118
-108 c0 -18 7 -20 55 -20 48 0 55 2 55 20 0 16 7 20 30 20 23 0 30 -4 30 -20
0 -16 -7 -20 -30 -20 -27 0 -30 -3 -30 -30 0 -30 -1 -30 -55 -30 -52 0 -55 -1
-55 -25 0 -24 -3 -25 -55 -25 -55 0 -55 0 -55 -31 l0 -30 -52 3 c-49 3 -53 5
-53 28 0 23 -4 25 -58 28 l-57 3 0 54 c0 54 0 55 30 55 27 0 30 -3 30 -30 0
-25 4 -30 25 -30 20 0 25 -5 25 -25 0 -24 3 -25 55 -25 52 0 55 1 55 25 0 24
3 25 55 25 54 0 55 0 55 30 0 30 -1 30 -55 30 -48 0 -55 2 -55 20 0 18 7 20
55 20 48 0 55 -2 55 -20z m490 0 c0 -14 -7 -20 -24 -20 -23 0 -41 22 -29 34 4
3 17 6 30 6 16 0 23 -6 23 -20z m100 0 c0 -15 -7 -20 -25 -20 -18 0 -25 5 -25
20 0 15 7 20 25 20 18 0 25 -5 25 -20z m170 0 c0 -16 -7 -20 -30 -20 -23 0
-30 4 -30 20 0 16 7 20 30 20 23 0 30 -4 30 -20z m920 0 c0 -16 -7 -20 -30
-20 l-30 0 0 -190 0 -190 30 0 c29 0 30 1 30 50 0 49 1 50 31 50 l30 0 -3 53
c-3 48 -5 52 -30 55 -27 3 -28 6 -28 58 0 54 0 55 28 52 19 -2 28 -9 30 -25 3
-17 10 -23 28 -23 20 0 24 -5 24 -30 0 -25 4 -30 25 -30 21 0 25 -5 25 -28 0
-22 5 -28 25 -30 23 -2 24 2 27 56 3 53 5 57 28 57 20 0 26 -6 28 -27 3 -22 9
-28 28 -28 22 0 24 -3 24 -55 0 -54 0 -55 30 -55 30 0 30 1 30 55 0 54 0 55
30 55 26 0 30 -4 30 -26 0 -17 6 -28 20 -31 13 -3 20 -14 20 -29 0 -17 -6 -24
-20 -24 -17 0 -20 -7 -20 -50 0 -43 3 -50 20 -50 18 0 20 -7 20 -85 0 -78 -2
-85 -20 -85 -16 0 -20 -7 -20 -30 0 -23 4 -30 20 -30 13 0 20 -7 20 -20 0 -13
-7 -20 -20 -20 -13 0 -20 7 -20 20 0 16 -7 20 -30 20 -23 0 -30 -4 -30 -20 0
-18 -7 -20 -55 -20 l-55 0 0 50 c0 49 -1 50 -30 50 -30 0 -30 1 -30 55 0 52
-1 55 -25 55 -24 0 -25 -3 -25 -55 0 -52 -1 -55 -25 -55 -21 0 -25 5 -25 30 0
25 -4 30 -25 30 -24 0 -25 3 -25 55 0 54 0 55 -30 55 -27 0 -30 -3 -30 -30 0
-27 -3 -30 -30 -30 -25 0 -30 -4 -30 -25 0 -20 -5 -25 -25 -25 -20 0 -25 5
-25 25 0 21 -5 25 -30 25 -25 0 -30 -4 -30 -25 0 -18 -5 -25 -20 -25 -16 0
-20 -7 -20 -30 0 -27 -3 -30 -30 -30 -29 0 -30 -1 -30 -50 l0 -50 50 0 c49 0
50 -1 50 -30 0 -27 3 -30 30 -30 29 0 30 1 30 49 0 47 -2 50 -27 53 -22 2 -29
9 -31 31 -3 24 0 27 27 27 28 0 31 -3 31 -30 0 -25 4 -30 25 -30 21 0 25 5 25
30 0 27 3 30 30 30 27 0 30 3 30 31 0 27 3 30 28 27 21 -2 27 -8 27 -28 0 -20
-6 -26 -27 -28 -21 -3 -27 -9 -30 -30 -2 -21 -9 -28 -30 -30 -26 -3 -28 -6
-28 -53 0 -46 -2 -49 -25 -49 -20 0 -25 -5 -25 -24 0 -19 -6 -25 -27 -28 -22
-2 -29 -9 -31 -30 -2 -20 -9 -28 -22 -28 -13 0 -20 -8 -22 -27 -2 -22 -8 -28
-28 -28 l-25 0 -3 113 -3 113 -27 -3 c-27 -3 -27 -4 -30 -85 -3 -81 -3 -83
-27 -83 -24 0 -25 -3 -25 -55 0 -52 1 -55 25 -55 20 0 25 -5 25 -25 0 -20 -5
-25 -25 -25 -24 0 -25 -3 -25 -55 l0 -55 -54 0 c-52 0 -55 1 -58 28 -2 19 -9
28 -25 30 -17 3 -23 10 -23 28 0 19 -5 24 -25 24 -20 0 -25 -5 -25 -25 0 -21
-5 -25 -30 -25 -30 0 -30 -1 -30 -55 0 -54 0 -55 30 -55 25 0 30 4 30 25 0 20
5 25 25 25 24 0 25 -3 25 -54 0 -49 2 -55 23 -58 21 -3 22 -8 25 -105 3 -99 2
-102 -20 -105 -21 -3 -23 -9 -26 -60 -3 -54 -5 -58 -27 -58 -24 0 -25 3 -26
70 -2 98 -1 95 -31 98 -28 3 -28 2 -28 -52 0 -56 0 -56 -30 -56 -30 0 -30 1
-30 55 0 52 -1 55 -25 55 -24 0 -25 -3 -25 -55 0 -54 0 -55 -30 -55 -27 0 -30
3 -30 30 0 23 -4 30 -20 30 -15 0 -20 7 -20 25 0 21 -5 25 -30 25 l-30 0 0 80
0 80 30 0 c27 0 30 3 30 30 0 27 -3 30 -30 30 -26 0 -30 4 -30 26 0 22 4 25
28 22 19 -2 28 -9 30 -25 5 -33 42 -31 42 2 0 24 3 25 55 25 l55 0 0 55 0 55
-55 0 c-52 0 -55 -1 -55 -25 0 -23 -3 -25 -50 -25 -47 0 -50 2 -50 25 0 24 -3
25 -55 25 -52 0 -55 1 -55 25 0 24 3 25 55 25 52 0 55 -1 55 -26 0 -22 4 -25
28 -22 25 3 27 7 30 51 3 39 6 47 23 47 14 0 19 -7 19 -25 0 -24 3 -25 55 -25
52 0 55 -1 55 -26 0 -22 4 -25 28 -22 19 2 28 9 30 26 3 21 8 22 83 22 77 0
79 1 79 24 0 18 -6 25 -22 28 -17 2 -24 11 -26 31 -3 23 0 27 23 27 23 0 26 4
23 28 -2 19 -9 28 -25 30 -17 3 -23 10 -23 28 0 22 4 24 50 24 l50 0 0 -55 c0
-54 0 -55 30 -55 l30 0 0 85 0 85 -55 0 -54 0 -3 78 c-3 71 -5 77 -25 80 -17
3 -23 10 -23 28 0 24 0 24 -110 24 l-110 0 0 -25 c0 -25 1 -25 80 -25 75 0 80
-1 86 -24 3 -13 4 -38 2 -57 l-3 -34 -82 -3 c-75 -3 -83 -5 -83 -22 0 -16 -7
-20 -30 -20 -27 0 -30 -3 -30 -30 0 -23 -4 -30 -20 -30 -16 0 -20 7 -20 30 0
27 -3 30 -30 30 -27 0 -30 -3 -30 -31 0 -27 -3 -30 -27 -27 -22 2 -29 9 -31
31 -3 21 -9 27 -28 27 -17 0 -24 5 -24 20 0 15 7 20 25 20 18 0 25 -5 25 -20
0 -16 7 -20 30 -20 23 0 30 4 30 20 0 16 7 20 31 20 27 0 30 3 27 28 -2 21 -9
28 -30 30 -24 3 -28 8 -28 33 0 29 -1 29 -55 29 -52 0 -55 1 -55 25 0 20 5 25
24 25 19 0 25 6 28 28 2 21 9 28 31 30 27 3 27 2 27 -52 0 -56 0 -56 30 -56
25 0 30 4 30 25 0 23 3 25 50 25 49 0 50 1 50 30 0 30 1 30 55 30 52 0 55 2
55 24 0 19 6 25 28 28 19 2 28 9 30 26 2 16 10 22 27 22 17 0 25 -6 27 -22 2
-15 10 -23 23 -23 17 0 20 8 23 47 3 42 1 47 -20 50 -34 5 -39 55 -6 60 22 3
23 8 26 86 3 79 4 82 27 82 18 0 24 -6 27 -27 2 -22 9 -29 31 -31 21 -3 27 -9
27 -27 0 -18 -6 -24 -27 -27 l-28 -3 -3 -132 -3 -133 -49 0 c-49 0 -50 -1 -50
-30 l0 -30 80 0 80 0 0 80 c0 78 1 80 24 80 18 0 25 -6 28 -22 3 -20 10 -23
61 -26 55 -3 57 -2 57 23 0 18 5 25 20 25 15 0 20 -7 20 -26 0 -22 4 -25 28
-22 25 3 27 7 30 50 l3 47 -48 3 -48 3 -3 58 c-3 52 -1 57 18 57 15 0 20 6 20
24 0 19 6 25 28 28 21 2 28 9 30 31 3 21 9 27 28 27 17 0 24 5 24 20 0 16 7
20 30 20 23 0 30 -4 30 -20z m-270 -105 c0 -21 -5 -25 -30 -25 -25 0 -30 4
-30 25 0 21 5 25 30 25 25 0 30 -4 30 -25z m0 -109 c0 -14 -5 -28 -10 -31 -17
-11 -50 5 -50 24 0 24 9 31 37 31 18 0 23 -6 23 -24z m-650 -111 c0 -20 -5
-25 -24 -25 -14 0 -28 5 -31 10 -12 19 4 40 30 40 20 0 25 -5 25 -25z m380
-325 c0 -15 -7 -20 -25 -20 -18 0 -25 5 -25 20 0 15 7 20 25 20 18 0 25 -5 25
-20z m750 0 c0 -15 -7 -20 -24 -20 -19 0 -25 -6 -28 -27 -2 -20 -9 -29 -25
-31 -21 -3 -23 -9 -23 -58 0 -51 2 -54 24 -54 19 0 25 -6 28 -27 2 -20 9 -28
23 -28 17 0 21 -8 25 -50 l5 -50 52 -3 c47 -3 52 -1 55 20 3 21 8 23 80 26 73
3 77 2 80 -20 2 -17 11 -24 31 -26 21 -3 27 -9 27 -28 0 -22 -4 -24 -50 -24
l-50 0 0 -55 c0 -48 2 -55 20 -55 16 0 20 -7 20 -30 0 -27 3 -30 30 -30 27 0
30 -3 30 -30 0 -29 -1 -30 -50 -30 l-50 0 0 61 c0 60 0 60 -27 57 -22 -2 -29
-9 -31 -30 -3 -21 -9 -27 -30 -30 -21 -2 -28 -9 -30 -30 -3 -22 -9 -28 -28
-28 -17 0 -24 -5 -24 -20 0 -16 -7 -20 -30 -20 -27 0 -30 -3 -30 -30 0 -25 -4
-30 -25 -30 -24 0 -25 -3 -25 -55 0 -52 2 -55 24 -55 19 0 25 6 28 28 2 21 9
28 31 30 21 3 27 9 27 28 0 22 3 24 55 24 l55 0 0 -55 c0 -54 0 -55 30 -55 27
0 30 -3 30 -30 0 -23 4 -30 20 -30 15 0 20 -7 20 -25 0 -18 -5 -25 -20 -25
-15 0 -20 7 -20 25 0 25 -2 26 -57 23 -51 -3 -58 -6 -61 -25 -3 -17 -10 -23
-28 -23 -19 0 -24 -5 -24 -25 0 -24 3 -25 55 -25 52 0 55 -1 55 -25 0 -21 5
-25 30 -25 25 0 30 4 30 25 l0 25 105 0 105 0 0 -55 c0 -55 0 -55 30 -55 l31
0 -3 -83 c-3 -81 -3 -82 -30 -85 -26 -3 -27 -2 -30 55 l-3 58 -52 3 -52 3 -3
52 c-3 48 -5 52 -30 55 -25 3 -28 0 -28 -27 l0 -31 -105 0 -105 0 0 30 0 30
-80 0 c-79 0 -80 0 -80 25 0 24 -3 25 -55 25 -52 0 -55 1 -55 25 0 21 -5 25
-30 25 -29 0 -30 -1 -30 -50 l0 -50 55 0 c54 0 56 -1 62 -30 4 -23 11 -30 29
-30 22 0 24 -4 24 -55 0 -51 -2 -55 -24 -55 -18 0 -25 7 -29 30 -5 24 -12 30
-32 30 -20 0 -25 5 -25 25 0 21 -5 25 -30 25 -30 0 -30 -1 -30 -55 0 -52 -2
-55 -24 -55 -19 0 -25 -6 -28 -27 -2 -22 -9 -29 -30 -31 -20 -2 -28 -9 -28
-23 0 -12 -7 -19 -20 -19 -18 0 -20 -7 -20 -55 0 -48 2 -55 20 -55 15 0 20 7
20 24 0 19 6 25 28 28 21 2 28 9 30 31 3 26 6 27 58 27 47 0 54 2 54 20 0 18
7 20 80 20 73 0 80 -2 80 -20 0 -15 -7 -20 -25 -20 -24 0 -25 -3 -25 -55 0
-52 -1 -55 -24 -55 -23 0 -25 4 -28 53 -3 48 -5 52 -30 55 -25 3 -28 0 -28
-27 0 -28 -3 -31 -30 -31 -30 0 -30 -1 -30 -55 0 -52 -2 -55 -24 -55 -19 0
-25 6 -28 27 -2 22 -9 29 -30 31 -25 3 -28 0 -28 -27 0 -30 -1 -31 -50 -31
l-50 0 0 54 c0 52 -1 55 -27 58 -26 3 -28 6 -28 48 l0 45 55 5 c51 5 55 7 58
32 3 26 6 28 53 28 l50 0 -3 83 c-3 81 -3 82 -30 85 -28 3 -28 3 -28 -55 l0
-58 -47 0 c-45 0 -48 -2 -51 -28 -3 -24 -7 -28 -30 -25 -25 3 -27 6 -27 53 l0
50 55 5 c51 5 55 7 58 33 3 24 0 27 -27 27 -26 0 -31 4 -31 25 0 21 5 25 30
25 29 0 30 1 30 50 0 49 -1 50 -30 50 -25 0 -30 -4 -30 -25 0 -21 -5 -25 -30
-25 -25 0 -30 4 -30 25 0 20 -5 25 -25 25 -21 0 -25 5 -25 30 0 30 1 30 55 30
54 0 55 0 55 30 l0 30 -85 0 c-84 0 -85 0 -85 25 0 24 3 25 55 25 54 0 55 0
55 30 0 25 -4 30 -25 30 -18 0 -25 5 -25 19 0 14 -8 21 -27 23 -27 3 -28 5
-28 58 0 52 1 55 25 55 23 0 25 -4 28 -57 3 -54 5 -58 27 -58 18 0 25 -5 25
-20 0 -16 7 -20 30 -20 23 0 30 4 30 20 0 16 7 20 30 20 27 0 30 3 30 30 0 27
-3 30 -30 30 -27 0 -30 3 -30 30 0 27 -3 30 -31 30 -26 0 -30 3 -27 23 2 16
11 23 31 25 23 3 27 8 27 33 0 27 3 30 28 27 21 -2 28 -9 30 -30 2 -20 9 -28
23 -28 14 0 19 -7 19 -25 0 -18 -5 -25 -20 -25 -15 0 -20 7 -20 25 0 21 -5 25
-30 25 -25 0 -30 -4 -30 -24 0 -19 6 -25 28 -28 21 -2 28 -9 30 -30 3 -26 6
-28 53 -28 48 0 49 -1 49 -30 0 -30 1 -30 55 -30 l55 0 0 60 0 60 -30 0 c-25
0 -30 4 -30 25 0 20 -5 25 -25 25 -21 0 -25 5 -25 30 0 27 -3 30 -30 30 -29 0
-30 1 -30 50 0 49 1 50 30 50 29 0 30 -1 30 -50 l0 -50 55 0 55 0 0 50 c0 49
1 50 31 50 26 0 30 3 27 23 -3 20 -9 22 -83 27 -78 5 -80 6 -83 33 -3 27 -2
27 52 27 l56 0 0 54 c0 52 1 55 28 58 25 3 27 7 30 51 l3 47 75 0 c67 0 74 -2
74 -20z m-2220 -105 c0 -20 -5 -25 -25 -25 -20 0 -25 5 -25 25 0 20 5 25 25
25 20 0 25 -5 25 -25z m328 -57 l-3 -83 -75 0 -75 0 -3 83 -3 82 81 0 81 0 -3
-82z m1087 -3 l0 -80 -80 0 -80 0 -3 83 -3 83 83 -3 83 -3 0 -80z m865 60 c0
-21 -5 -25 -30 -25 -25 0 -30 4 -30 25 0 21 5 25 30 25 25 0 30 -4 30 -25z
m210 -60 l0 -85 -64 0 c-96 0 -96 0 -96 84 0 40 3 76 7 79 3 4 39 7 80 7 l73
0 0 -85z m110 60 c0 -20 -5 -25 -25 -25 -20 0 -25 5 -25 25 0 20 5 25 25 25
20 0 25 -5 25 -25z m-2488 -50 c6 -30 2 -35 -28 -35 -17 0 -23 -7 -26 -27 -2
-22 -8 -28 -28 -28 -20 0 -26 6 -28 28 -3 24 0 27 27 27 28 0 31 3 31 30 0 25
4 30 24 30 17 0 25 -7 28 -25z m383 -5 c0 -20 -6 -26 -27 -28 -21 -3 -27 -9
-30 -30 -2 -21 -8 -27 -28 -27 -22 0 -25 5 -28 44 -5 67 0 72 60 69 49 -3 53
-5 53 -28z m595 0 c0 -27 -3 -30 -30 -30 -25 0 -30 4 -30 23 0 13 3 27 7 30 3
4 17 7 30 7 19 0 23 -5 23 -30z m100 0 c0 -23 -4 -30 -20 -30 -16 0 -20 7 -20
30 0 23 4 30 20 30 16 0 20 -7 20 -30z m-590 -60 c0 -25 4 -30 25 -30 20 0 25
-5 25 -25 0 -21 5 -25 30 -25 25 0 30 -4 30 -25 0 -24 3 -25 55 -25 52 0 55
-1 55 -25 0 -20 -5 -25 -25 -25 -21 0 -25 -5 -25 -30 l0 -30 75 0 75 0 0 30
c0 27 3 30 30 30 30 0 30 -1 30 -55 0 -52 1 -55 25 -55 25 0 25 -1 25 -80 0
-79 0 -80 -25 -80 -21 0 -25 -5 -25 -30 0 -25 4 -30 25 -30 20 0 25 -5 25 -25
0 -20 -5 -25 -25 -25 -21 0 -25 -5 -25 -30 0 -25 4 -30 24 -30 19 0 25 6 28
28 2 21 9 28 31 30 24 3 27 0 27 -27 0 -28 -3 -31 -30 -31 -30 0 -30 -1 -30
-55 0 -54 0 -55 30 -55 25 0 30 -4 30 -25 0 -21 5 -25 30 -25 29 0 30 1 30 50
0 43 3 50 20 50 15 0 20 -7 20 -25 0 -21 5 -25 30 -25 25 0 30 4 30 25 0 24 3
25 55 25 52 0 55 -2 55 -24 0 -19 6 -25 28 -28 19 -2 27 -9 27 -23 0 -17 -8
-20 -57 -23 l-58 -3 0 -54 0 -55 -136 0 -135 0 3 -53 c3 -48 5 -52 31 -55 23
-3 27 -8 27 -33 l0 -29 -85 0 -85 0 0 30 c0 25 -4 30 -24 30 -19 0 -25 6 -28
27 -2 20 -9 29 -25 31 -17 2 -23 10 -23 27 0 18 -6 24 -27 27 -26 3 -28 6 -28
53 0 47 -2 50 -27 53 l-28 3 0 -80 0 -80 -82 -3 c-82 -3 -83 -3 -86 -30 -3
-25 0 -28 27 -28 30 0 31 -1 31 -50 0 -49 -1 -50 -30 -50 -29 0 -30 1 -30 50
0 43 -3 50 -20 50 -19 0 -20 -7 -20 -105 0 -98 1 -105 20 -105 16 0 20 -7 20
-30 0 -23 -4 -30 -20 -30 -16 0 -20 7 -20 30 0 27 -3 30 -30 30 l-30 0 0 74
c0 74 0 75 -27 78 -22 2 -28 8 -28 28 0 23 4 25 58 28 56 3 57 4 57 32 0 27
-3 30 -30 30 -30 0 -30 1 -30 55 l0 55 50 0 c49 0 50 -1 50 -31 0 -27 3 -30
28 -27 25 3 27 7 30 56 l3 52 -30 0 c-26 0 -31 4 -31 25 0 21 5 25 30 25 30 0
30 1 30 55 l0 55 -49 0 c-47 0 -50 -2 -53 -27 -2 -22 -9 -29 -30 -31 -22 -3
-28 -9 -28 -27 0 -18 -6 -24 -27 -27 -26 -3 -28 -7 -31 -50 -3 -43 -5 -48 -28
-48 -19 0 -24 5 -24 25 0 24 -3 25 -55 25 -52 0 -55 1 -55 25 0 20 -5 25 -25
25 -20 0 -25 5 -25 24 0 19 -6 25 -27 28 -24 3 -29 8 -31 37 -6 55 5 81 33 81
20 0 25 5 25 25 0 23 3 25 50 25 49 0 50 1 50 30 0 29 -1 30 -50 30 -43 0 -50
3 -50 19 0 14 -8 21 -27 23 -22 2 -28 8 -28 28 0 20 6 26 28 28 24 3 28 7 25
30 -2 21 -9 28 -31 30 -26 3 -27 5 -23 50 2 26 4 50 5 55 1 4 12 7 26 7 20 0
25 5 25 25 0 20 5 25 25 25 20 0 25 5 25 25 l0 25 110 0 110 0 0 25 c0 21 5
25 30 25 25 0 30 -4 30 -25 0 -23 3 -25 50 -25 46 0 50 2 50 24 0 19 -6 25
-27 28 -22 2 -29 9 -31 31 -3 24 0 27 27 27 28 0 31 -3 31 -30z m1678 3 c-2
-22 -9 -29 -30 -31 -25 -3 -28 0 -28 27 0 28 3 31 31 31 27 0 30 -3 27 -27z
m-483 -108 c0 -14 -8 -21 -27 -23 -24 -3 -28 0 -28 23 0 23 4 26 28 23 19 -2
27 -9 27 -23z m-1735 -160 c0 -21 -5 -25 -30 -25 -27 0 -30 -3 -30 -30 0 -26
-4 -30 -26 -30 -22 0 -25 4 -22 28 2 19 9 28 26 30 16 3 22 10 22 28 0 20 5
24 30 24 25 0 30 -4 30 -25z m1510 -385 c0 -25 -4 -30 -25 -30 -21 0 -25 5
-25 30 0 25 4 30 25 30 21 0 25 -5 25 -30z m60 -105 c0 -20 5 -25 25 -25 20 0
25 -5 25 -25 0 -20 -5 -25 -25 -25 -21 0 -25 -5 -25 -30 0 -27 -3 -30 -30 -30
-25 0 -30 -4 -30 -24 0 -19 6 -25 28 -28 21 -2 28 -9 30 -30 3 -25 0 -28 -27
-28 -30 0 -31 -1 -31 -50 0 -47 -2 -50 -25 -50 -21 0 -25 -5 -25 -30 0 -25 -4
-30 -25 -30 -23 0 -25 3 -25 49 0 44 3 50 23 53 32 4 31 52 -1 56 -33 5 -28
55 6 60 21 3 23 8 20 55 -3 45 -6 52 -25 55 -20 3 -23 -1 -23 -27 0 -26 -4
-31 -25 -31 -21 0 -25 5 -25 30 0 25 4 30 25 30 20 0 25 5 25 24 0 18 6 25 23
28 14 2 23 11 25 26 3 20 9 22 58 22 51 0 54 -1 54 -25z m-1570 -50 c0 -21 -5
-25 -30 -25 -25 0 -30 4 -30 25 0 21 5 25 30 25 25 0 30 -4 30 -25z m320 -110
c0 -20 -5 -25 -25 -25 -20 0 -25 5 -25 25 0 20 5 25 25 25 20 0 25 -5 25 -25z
m810 -55 c0 -23 -4 -30 -20 -30 -14 0 -20 7 -20 23 0 27 7 37 27 37 8 0 13
-12 13 -30z m224 14 c3 -9 6 -45 6 -80 l0 -64 -85 0 -85 0 0 73 c0 41 3 77 7
80 3 4 39 7 79 7 56 0 73 -3 78 -16z m1076 -64 l0 -80 -80 0 -80 0 0 68 c0 40
5 73 12 80 7 7 40 12 80 12 l68 0 0 -80z m-1780 -11 c0 -27 -3 -30 -27 -27
-22 2 -29 9 -31 31 -3 24 0 27 27 27 28 0 31 -3 31 -31z m1570 -104 l0 -75
-30 0 -30 0 0 75 0 75 30 0 30 0 0 -75z m-212 -167 c3 -25 0 -28 -27 -28 -28
0 -31 3 -31 31 0 27 3 30 28 27 21 -2 28 -9 30 -30z"/>
<path d="M1420 2700 c0 -49 1 -50 30 -50 29 0 30 1 30 50 0 49 -1 50 -30 50
-29 0 -30 -1 -30 -50z"/>
<path d="M1630 2400 c0 -16 7 -20 30 -20 23 0 30 4 30 20 0 16 -7 20 -30 20
-23 0 -30 -4 -30 -20z"/>
<path d="M2400 2675 c0 -20 5 -25 25 -25 20 0 25 5 25 25 0 20 -5 25 -25 25
-20 0 -25 -5 -25 -25z"/>
<path d="M1630 2675 c0 -21 5 -25 30 -25 25 0 30 4 30 25 0 21 -5 25 -30 25
-25 0 -30 -4 -30 -25z"/>
<path d="M2170 2241 c0 -28 3 -31 31 -31 27 0 30 3 27 28 -2 21 -9 28 -30 30
-25 3 -28 0 -28 -27z"/>
<path d="M2555 2152 c-3 -3 -5 -16 -5 -29 0 -18 -5 -23 -25 -23 -23 0 -25 -3
-25 -50 0 -47 2 -50 25 -50 21 0 25 -5 25 -30 0 -30 1 -30 55 -30 52 0 55 -1
55 -25 0 -20 -5 -25 -25 -25 -21 0 -25 -5 -25 -30 0 -25 4 -30 25 -30 21 0 25
5 25 30 0 27 3 30 30 30 25 0 30 4 30 24 0 19 6 25 28 28 21 2 28 9 30 31 3
27 3 27 -57 27 l-61 0 0 50 c0 47 -2 50 -25 50 -20 0 -25 5 -25 24 0 17 -7 25
-25 28 -13 3 -27 3 -30 0z m55 -102 c0 -49 -1 -50 -30 -50 -29 0 -30 1 -30 50
0 49 1 50 30 50 29 0 30 -1 30 -50z"/>
<path d="M2130 2025 c0 -21 -5 -25 -30 -25 -27 0 -30 -3 -30 -31 0 -27 3 -30
28 -27 21 2 28 9 30 31 2 19 9 27 23 27 14 0 19 7 19 25 0 18 -5 25 -20 25
-15 0 -20 -7 -20 -25z"/>
<path d="M2400 2025 c0 -20 5 -25 25 -25 20 0 25 5 25 25 0 20 -5 25 -25 25
-20 0 -25 -5 -25 -25z"/>
<path d="M1904 1876 c-3 -7 -4 -33 -2 -57 l3 -44 53 -3 52 -3 0 60 0 61 -50 0
c-34 0 -52 -5 -56 -14z"/>
<path d="M1520 1800 c0 -23 -4 -30 -20 -30 -13 0 -20 -7 -20 -20 0 -13 7 -20
20 -20 13 0 20 7 20 20 0 16 7 20 30 20 27 0 30 3 30 30 0 27 -3 30 -30 30
-27 0 -30 -3 -30 -30z"/>
<path d="M1850 1530 c0 -25 4 -30 25 -30 21 0 25 5 25 30 0 25 -4 30 -25 30
-21 0 -25 -5 -25 -30z"/>
<path d="M1850 1425 c0 -20 5 -25 25 -25 20 0 25 5 25 25 0 20 -5 25 -25 25
-20 0 -25 -5 -25 -25z"/>
<path d="M1520 1210 c0 -23 -4 -30 -20 -30 -16 0 -20 -7 -20 -31 0 -30 1 -30
48 -27 43 3 47 5 50 31 3 21 9 27 28 27 23 0 24 -2 24 -80 l0 -80 30 0 c29 0
30 1 30 49 0 47 2 50 28 53 21 2 27 8 27 28 0 23 -4 25 -58 28 -56 3 -57 4
-57 32 0 30 -1 30 -55 30 -54 0 -55 0 -55 -30z"/>
<path d="M1750 1100 c0 -15 7 -20 25 -20 18 0 25 5 25 20 0 15 -7 20 -25 20
-18 0 -25 -5 -25 -20z"/>
<path d="M1480 1050 c0 -23 4 -30 20 -30 16 0 20 7 20 30 0 23 -4 30 -20 30
-16 0 -20 -7 -20 -30z"/>
<path d="M2400 1401 c0 -50 -1 -51 -30 -51 -30 0 -30 -1 -30 -55 0 -54 0 -55
30 -55 25 0 30 4 30 25 0 20 5 25 25 25 24 0 25 -3 25 -55 0 -52 -1 -55 -25
-55 -21 0 -25 -5 -25 -30 0 -25 4 -30 25 -30 18 0 25 -5 25 -20 0 -15 7 -20
25 -20 18 0 25 5 25 20 0 15 7 20 25 20 24 0 25 3 25 60 l0 60 30 0 c30 0 30
1 30 55 l0 55 -54 0 -55 0 -3 48 -3 47 -47 3 -48 3 0 -50z m100 -81 c0 -25 4
-30 25 -30 20 0 25 -5 25 -25 0 -20 -5 -25 -25 -25 -20 0 -25 5 -25 25 0 20
-5 25 -25 25 -21 0 -25 5 -25 30 0 25 4 30 25 30 21 0 25 -5 25 -30z m-2 -172
c3 -24 0 -28 -22 -28 -22 0 -26 4 -26 31 0 26 3 30 23 27 16 -2 23 -11 25 -30z"/>
<path d="M2667 1393 c-4 -3 -7 -15 -7 -25 0 -15 8 -18 60 -18 57 0 60 1 60 25
0 24 -3 25 -53 25 -30 0 -57 -3 -60 -7z"/>
<path d="M2130 1100 c0 -16 -7 -20 -30 -20 -30 0 -30 -1 -30 -55 0 -54 0 -55
30 -55 25 0 30 4 30 25 0 23 3 25 50 25 47 0 50 -2 50 -25 0 -21 -5 -25 -30
-25 l-30 0 0 -110 c0 -103 -1 -110 -20 -110 -15 0 -20 -7 -20 -25 0 -18 5 -25
20 -25 15 0 20 7 20 24 0 19 6 25 28 28 19 2 28 9 30 26 3 16 10 22 28 22 22
0 24 3 24 55 0 54 0 55 30 55 30 0 30 -1 30 -55 0 -54 0 -55 30 -55 30 0 30 1
30 55 0 52 1 55 25 55 21 0 25 5 25 30 0 30 -1 30 -55 30 -52 0 -55 1 -55 25
0 24 -3 25 -55 25 l-55 0 0 50 0 50 -50 0 c-43 0 -50 -3 -50 -20z m150 -160
c0 -25 -4 -30 -25 -30 -21 0 -25 5 -25 30 0 25 4 30 25 30 21 0 25 -5 25 -30z"/>
<path d="M2610 940 c0 -27 -3 -30 -30 -30 -27 0 -30 -3 -30 -30 0 -29 -1 -30
-50 -30 l-50 0 0 -50 0 -50 50 0 c47 0 50 2 50 25 0 21 5 25 30 25 30 0 30 1
30 55 0 52 1 55 25 55 21 0 25 5 25 30 0 25 -4 30 -25 30 -21 0 -25 -5 -25
-30z"/>
<path d="M550 1590 c0 -25 4 -30 25 -30 21 0 25 5 25 30 0 25 -4 30 -25 30
-21 0 -25 -5 -25 -30z"/>
<path d="M1637 1614 c-4 -4 -7 -18 -7 -31 0 -19 5 -23 31 -23 27 0 30 3 27 28
-3 26 -34 43 -51 26z"/>
<path d="M2720 1591 c0 -28 3 -31 31 -31 27 0 30 3 27 28 -2 21 -9 28 -30 30
-25 3 -28 0 -28 -27z"/>
<path d="M930 1425 c0 -20 5 -25 25 -25 20 0 25 -5 25 -25 0 -20 -5 -25 -25
-25 -25 0 -25 -1 -25 -85 l0 -85 -30 0 -30 0 0 110 c0 103 -1 110 -20 110 -15
0 -20 -7 -20 -25 0 -24 -3 -25 -60 -25 -57 0 -60 1 -60 25 0 20 -5 25 -25 25
-20 0 -25 -5 -25 -25 0 -21 -5 -25 -30 -25 -25 0 -30 4 -30 25 0 20 -5 25 -25
25 -20 0 -25 -5 -25 -25 0 -20 -5 -25 -25 -25 -24 0 -25 -3 -25 -57 l0 -58 50
3 c50 4 50 4 50 -27 0 -31 -1 -31 -50 -31 -49 0 -50 -1 -50 -30 0 -29 1 -30
50 -30 43 0 50 -3 50 -20 0 -16 7 -20 30 -20 27 0 30 -3 30 -30 0 -27 -3 -30
-30 -30 -25 0 -30 -4 -30 -25 0 -23 -3 -25 -50 -25 -49 0 -50 -1 -50 -30 0
-29 1 -30 50 -30 49 0 50 1 50 30 0 27 3 30 30 30 l30 0 0 -60 0 -60 -55 0
c-52 0 -55 -1 -55 -25 0 -24 3 -25 55 -25 52 0 55 1 55 25 0 20 5 25 25 25 24
0 25 3 25 60 l0 60 30 0 c27 0 30 -3 30 -30 0 -27 3 -30 30 -30 l30 0 0 85 c0
78 2 85 20 85 16 0 20 -7 20 -30 0 -27 3 -30 30 -30 30 0 30 -1 30 -55 0 -52
2 -55 24 -55 19 0 25 -6 28 -27 2 -22 8 -28 28 -28 20 0 26 6 28 27 3 21 9 27
30 30 15 2 28 9 28 16 1 6 2 19 3 27 1 9 11 15 26 15 21 0 25 -5 25 -29 0 -25
-4 -30 -27 -33 -22 -2 -28 -8 -28 -28 0 -24 2 -25 78 -28 l77 -3 0 61 0 60
-50 0 c-47 0 -50 2 -50 25 0 20 -5 25 -24 25 -21 0 -24 6 -28 39 -5 53 -1 61
28 61 17 0 24 -6 24 -19 0 -13 8 -21 23 -23 16 -2 23 -11 25 -30 3 -22 9 -28
28 -28 22 0 24 4 24 49 0 47 2 50 28 53 21 2 28 9 30 31 3 24 0 27 -27 27 -28
0 -31 3 -31 31 0 30 -1 30 -47 27 -44 -3 -48 -5 -51 -31 -3 -24 -7 -28 -30
-25 -21 2 -28 9 -30 31 -3 23 -8 28 -25 25 -19 -3 -23 -11 -27 -58 l-5 -55
-52 -3 -53 -3 0 30 c0 26 4 31 25 31 25 0 25 1 25 85 l0 85 30 0 c25 0 30 4
30 25 0 21 -5 25 -30 25 -25 0 -30 4 -30 25 0 20 -5 25 -25 25 -20 0 -25 -5
-25 -25z m-330 -105 c0 -27 3 -30 30 -30 27 0 30 3 30 30 0 25 4 30 25 30 21
0 25 -5 25 -30 0 -27 3 -30 30 -30 25 0 30 -4 30 -25 0 -21 -5 -25 -30 -25
-27 0 -30 -3 -30 -30 0 -28 1 -29 58 -32 53 -3 57 -5 57 -28 0 -20 -6 -26 -27
-28 -26 -3 -28 -6 -28 -53 0 -48 -1 -49 -30 -49 -25 0 -30 -4 -30 -25 0 -20
-5 -25 -25 -25 -20 0 -25 5 -25 25 0 20 5 25 25 25 23 0 25 3 25 50 0 47 -2
50 -25 50 -24 0 -25 3 -25 60 l0 60 -30 0 c-25 0 -30 4 -30 25 0 20 -5 25 -25
25 -21 0 -25 5 -25 30 0 25 4 30 25 30 21 0 25 -5 25 -30z m598 -167 c-2 -20
-9 -29 -25 -31 -20 -3 -23 1 -23 27 0 27 4 31 26 31 22 0 25 -4 22 -27z m-158
-158 l0 -85 -30 0 -30 0 0 85 0 85 30 0 30 0 0 -85z"/>
<path d="M660 1265 c0 -20 5 -25 25 -25 20 0 25 5 25 25 0 20 -5 25 -25 25
-20 0 -25 -5 -25 -25z"/>
<path d="M930 775 c0 -24 3 -25 55 -25 52 0 55 1 55 25 0 24 -3 25 -55 25 -52
0 -55 -1 -55 -25z"/>
<path d="M1250 775 c0 -23 -3 -25 -50 -25 l-50 0 0 -56 c0 -52 1 -55 23 -52
16 2 23 11 25 31 3 21 9 27 28 27 20 0 24 -5 24 -30 0 -30 1 -30 55 -30 l55 0
0 55 c0 52 -1 55 -25 55 -20 0 -25 5 -25 25 0 21 -5 25 -30 25 -25 0 -30 -4
-30 -25z m60 -50 c0 -21 -5 -25 -30 -25 -25 0 -30 4 -30 25 0 21 5 25 30 25
25 0 30 -4 30 -25z"/>
<path d="M1480 725 c0 -18 5 -25 20 -25 15 0 20 7 20 25 0 18 -5 25 -20 25
-15 0 -20 -7 -20 -25z"/>
<path d="M830 615 c0 -18 5 -25 20 -25 15 0 20 7 20 25 0 18 -5 25 -20 25 -15
0 -20 -7 -20 -25z"/>
<path d="M1263 583 c-7 -2 -13 -16 -13 -29 0 -20 5 -24 31 -24 27 0 30 3 27
27 -3 27 -20 37 -45 26z"/>
<path d="M1900 725 c0 -21 5 -25 30 -25 25 0 30 4 30 25 0 21 -5 25 -30 25
-25 0 -30 -4 -30 -25z"/>
<path d="M1632 503 c2 -22 9 -29 31 -31 24 -3 27 0 27 27 0 28 -3 31 -31 31
-27 0 -30 -3 -27 -27z"/>
<path d="M2720 499 c0 -27 3 -30 28 -27 21 2 28 9 30 31 3 24 0 27 -27 27 -28
0 -31 -3 -31 -31z"/>
<path d="M2720 2835 l0 -185 190 0 190 0 0 185 0 185 -190 0 -190 0 0 -185z
m325 0 l0 -130 -132 -3 -133 -3 0 136 0 136 133 -3 132 -3 0 -130z"/>
<path d="M2827 2913 c-4 -3 -7 -42 -7 -85 l0 -78 85 0 85 0 0 85 0 85 -78 0
c-43 0 -82 -3 -85 -7z"/>
<path d="M1900 2835 c0 -14 5 -26 10 -26 40 -5 45 -3 48 24 3 24 0 27 -27 27
-26 0 -31 -4 -31 -25z"/>
<path d="M2610 2675 c0 -20 5 -25 25 -25 20 0 25 5 25 25 0 20 -5 25 -25 25
-20 0 -25 -5 -25 -25z"/>
<path d="M237 2533 c-4 -3 -7 -17 -7 -30 0 -21 4 -23 50 -23 49 0 50 1 50 30
0 29 -2 30 -43 30 -24 0 -47 -3 -50 -7z"/>
<path d="M286 2152 c-3 -3 -6 -16 -6 -29 0 -18 -5 -23 -25 -23 l-25 0 0 -165
0 -165 50 0 c49 0 50 1 50 30 0 27 3 30 30 30 27 0 30 -3 30 -30 l0 -31 133 3
132 3 0 55 c0 53 -1 55 -27 58 -22 3 -28 9 -28 28 0 20 5 24 30 24 30 0 30 1
30 55 l0 55 -80 0 -80 0 0 -55 0 -55 -55 0 c-52 0 -55 -1 -55 -25 0 -21 -5
-25 -30 -25 -25 0 -30 4 -30 25 0 20 -5 25 -25 25 -21 0 -25 5 -25 30 l0 30
80 0 80 0 0 50 c0 46 -2 50 -24 50 -18 0 -25 -6 -28 -22 -2 -17 -10 -23 -28
-23 -23 0 -25 4 -28 46 -2 36 -7 48 -22 52 -10 3 -21 2 -24 -1z m314 -182 c0
-25 -4 -30 -25 -30 -20 0 -25 -5 -25 -25 0 -20 5 -25 25 -25 21 0 25 -5 25
-30 0 -29 -1 -30 -50 -30 l-50 0 0 55 c0 52 1 55 25 55 21 0 25 5 25 30 0 25
4 30 25 30 21 0 25 -5 25 -30z"/>
<path d="M930 2050 l0 -50 85 0 c61 0 85 3 85 13 0 20 -14 34 -35 38 -12 3
-21 14 -23 27 -3 20 -9 22 -58 22 l-54 0 0 -50z"/>
<path d="M2990 2076 c0 -19 6 -25 28 -28 19 -2 28 -9 30 -25 3 -17 10 -23 28
-23 22 0 24 4 24 50 l0 50 -55 0 c-52 0 -55 -2 -55 -24z"/>
<path d="M830 1995 l0 -55 -60 0 c-57 0 -60 -1 -60 -25 0 -24 3 -25 60 -25 57
0 60 1 60 25 0 18 5 25 20 25 19 0 20 -7 20 -105 l0 -105 30 0 c29 0 30 1 30
50 0 47 2 50 25 50 23 0 25 -3 25 -50 l0 -50 55 0 c45 0 55 -3 56 -17 0 -10 2
-34 2 -53 2 -30 6 -35 30 -38 23 -3 27 0 27 22 0 18 6 25 23 28 16 2 22 10 22
28 0 23 -4 25 -46 28 -37 2 -48 7 -52 23 -3 13 -14 19 -31 19 -22 0 -26 4 -26
29 0 25 4 30 28 33 24 3 27 7 28 43 1 55 -4 65 -32 65 -19 0 -24 -5 -24 -25 0
-24 -3 -25 -55 -25 -52 0 -55 1 -55 25 0 21 -5 25 -30 25 -30 0 -30 1 -30 55
0 48 -2 55 -20 55 -18 0 -20 -7 -20 -55z"/>
<path d="M770 1800 c0 -28 3 -31 28 -28 21 2 27 8 27 28 0 20 -6 26 -27 28
-25 3 -28 0 -28 -28z"/>
<path d="M1202 1533 c2 -20 9 -29 26 -31 19 -3 22 1 22 27 0 27 -4 31 -26 31
-22 0 -25 -4 -22 -27z"/>
<path d="M2990 1236 c0 -52 1 -55 28 -58 21 -2 27 -8 27 -28 0 -20 -6 -26 -27
-28 -26 -3 -28 -6 -28 -53 0 -48 -1 -49 -31 -49 l-30 0 3 -52 c3 -49 5 -53 31
-56 23 -3 27 -8 27 -33 0 -29 1 -29 55 -29 l55 0 0 115 0 115 -25 0 c-18 0
-25 5 -25 20 0 15 7 20 25 20 24 0 25 3 25 60 0 57 -1 60 -24 60 -18 0 -25 6
-28 23 -2 16 -11 23 -30 25 -28 3 -28 2 -28 -52z"/>
<path d="M230 941 l0 -141 25 0 26 0 -3 138 c-3 134 -4 137 -25 140 -23 3 -23
3 -23 -137z"/>
<path d="M230 340 l0 -190 185 0 185 0 0 190 0 190 -185 0 -185 0 0 -190z
m318 -2 l-3 -133 -132 -3 -133 -3 0 136 0 135 135 0 136 0 -3 -132z"/>
<path d="M337 423 c-4 -3 -7 -42 -7 -85 l0 -78 85 0 85 0 0 85 0 85 -78 0
c-43 0 -82 -3 -85 -7z"/>
<path d="M710 175 c0 -21 5 -25 30 -25 25 0 30 4 30 25 0 21 -5 25 -30 25 -25
0 -30 -4 -30 -25z"/>
<path d="M1040 176 c0 -22 4 -26 31 -26 26 0 30 3 27 23 -2 16 -11 23 -30 25
-24 3 -28 0 -28 -22z"/>
<path d="M1200 175 c0 -24 3 -25 55 -25 52 0 55 1 55 25 0 24 -3 25 -55 25
-52 0 -55 -1 -55 -25z"/>
<path d="M1420 175 c0 -21 5 -25 30 -25 25 0 30 4 30 25 0 21 -5 25 -30 25
-25 0 -30 -4 -30 -25z"/>
</g>
</svg>
